<svg width="24" height="24" viewBox="0 0 24 24" fill="none" xmlns="http://www.w3.org/2000/svg">
<path d="M17.523 20.46C16.972 20.46 16.523 19.995 16.523 19.424C16.523 18.854 16.972 18.39 17.523 18.39C18.074 18.39 18.523 18.854 18.523 19.424C18.523 19.995 18.074 20.46 17.523 20.46ZM6.477 20.46C5.926 20.46 5.477 19.995 5.477 19.424C5.477 18.854 5.926 18.39 6.477 18.39C7.028 18.39 7.477 18.854 7.477 19.424C7.477 19.995 7.028 20.46 6.477 20.46ZM17.881 14.227L19.879 10.645C19.9341 10.5462 19.949 10.4301 19.9207 10.3206C19.8924 10.2111 19.823 10.1167 19.727 10.057C19.6796 10.0289 19.6271 10.0106 19.5725 10.0033C19.5178 9.99605 19.4623 9.99992 19.4093 10.0147C19.3562 10.0294 19.3066 10.0548 19.2636 10.0892C19.2206 10.1237 19.185 10.1664 19.159 10.215L17.137 13.842C15.5302 13.0865 13.7755 12.6977 12 12.704C10.147 12.704 8.41 13.111 6.863 13.842L4.841 10.215C4.81497 10.1664 4.77938 10.1237 4.73637 10.0892C4.69336 10.0548 4.64382 10.0294 4.59075 10.0147C4.53767 9.99992 4.48215 9.99605 4.42754 10.0033C4.37293 10.0106 4.32036 10.0289 4.273 10.057C4.17677 10.1165 4.10723 10.2109 4.07891 10.3205C4.05059 10.43 4.06567 10.5463 4.121 10.645L6.119 14.227C2.689 16.158 0.343 19.753 0 24H24C23.657 19.753 21.31 16.158 17.881 14.227Z" fill="#2A2B32"/>
</svg>
