<svg width="70" height="60" viewBox="0 0 70 60" fill="none" xmlns="http://www.w3.org/2000/svg">
<mask id="mask0_3_1139" style="mask-type:luminance" maskUnits="userSpaceOnUse" x="0" y="0" width="70" height="60">
<path d="M0.5 0H69.238V60H0.5V0Z" fill="white"/>
</mask>
<g mask="url(#mask0_3_1139)">
<path d="M5.29501 49.618C2.93201 49.618 0.502014 51.512 0.502014 54.828C0.502014 57.858 2.63801 59.998 5.29501 59.998C7.48901 59.998 8.46601 58.527 8.46601 58.527V59.168C8.46601 59.472 8.75302 59.81 9.10802 59.81H10.693V49.845H8.46601V51.109C8.46601 51.109 7.48102 49.619 5.29602 49.619L5.29501 49.618ZM5.69202 51.656C7.63802 51.656 8.65902 53.367 8.65902 54.826C8.65902 56.452 7.44701 57.996 5.69601 57.996C4.23301 57.996 2.76701 56.811 2.76701 54.806C2.76701 52.994 4.02902 51.656 5.69202 51.656ZM13.789 59.81C13.704 59.8126 13.6193 59.7978 13.5402 59.7665C13.4612 59.7352 13.3893 59.688 13.3292 59.6278C13.269 59.5677 13.2218 59.4958 13.1905 59.4168C13.1592 59.3377 13.1444 59.253 13.147 59.168V49.845H15.374V51.078C15.879 50.319 16.864 49.615 18.378 49.615C20.852 49.615 22.168 51.587 22.168 53.431V59.811H20.621C20.4408 59.8105 20.2682 59.7387 20.1408 59.6112C20.0134 59.4838 19.9415 59.3112 19.941 59.131V53.921C19.941 52.899 19.315 51.658 17.867 51.658C16.305 51.658 15.374 53.135 15.374 54.525V59.81H13.789ZM28.661 49.618C26.297 49.618 23.867 51.512 23.867 54.828C23.867 57.858 26.004 59.998 28.661 59.998C30.854 59.998 31.831 58.526 31.831 58.526V59.168C31.831 59.471 32.119 59.81 32.473 59.81H34.059V44.862H31.832V51.109C31.832 51.109 30.845 49.618 28.661 49.618ZM29.058 51.656C31.004 51.656 32.024 53.366 32.024 54.826C32.024 56.452 30.812 57.996 29.062 57.996C27.599 57.996 26.133 56.811 26.133 54.805C26.133 52.995 27.394 51.656 29.058 51.656ZM37.154 59.81C37.0691 59.8125 36.9845 59.7976 36.9056 59.7662C36.8266 59.7348 36.7549 59.6876 36.6948 59.6274C36.6348 59.5673 36.5877 59.4955 36.5564 59.4165C36.5252 59.3375 36.5104 59.2529 36.513 59.168V49.845H38.74V51.505C39.123 50.575 39.95 49.731 41.42 49.731C41.83 49.731 42.213 49.807 42.213 49.807V52.109C42.213 52.109 41.734 51.921 41.156 51.921C39.593 51.921 38.74 53.398 38.74 54.788V59.81H37.154ZM55.726 59.81C55.641 59.8126 55.5563 59.7978 55.4772 59.7665C55.3982 59.7352 55.3263 59.688 55.2662 59.6278C55.206 59.5677 55.1588 59.4958 55.1275 59.4168C55.0962 59.3377 55.0814 59.253 55.084 59.168V49.845H57.311V59.81H55.726ZM63.841 49.618C61.478 49.618 59.048 51.512 59.048 54.828C59.048 57.858 61.184 59.998 63.841 59.998C66.035 59.998 67.012 58.526 67.012 58.526V59.168C67.012 59.471 67.299 59.81 67.654 59.81H69.239V44.862H67.012V51.109C67.012 51.109 66.026 49.618 63.841 49.618ZM64.238 51.656C66.184 51.656 67.204 53.366 67.204 54.826C67.204 56.452 65.993 57.996 64.242 57.996C62.779 57.996 61.313 56.811 61.313 54.805C61.313 52.995 62.575 51.656 64.238 51.656ZM56.182 47.696C56.3786 47.7011 56.5743 47.6668 56.7574 47.5951C56.9405 47.5234 57.1074 47.4158 57.2483 47.2785C57.3892 47.1413 57.5011 46.9772 57.5776 46.796C57.654 46.6148 57.6934 46.4202 57.6934 46.2235C57.6934 46.0268 57.654 45.8321 57.5776 45.6509C57.5011 45.4697 57.3892 45.3057 57.2483 45.1684C57.1074 45.0312 56.9405 44.9236 56.7574 44.8519C56.5743 44.7802 56.3786 44.7459 56.182 44.751C55.7981 44.761 55.4333 44.9205 55.1653 45.1956C54.8974 45.4706 54.7474 45.8395 54.7474 46.2235C54.7474 46.6075 54.8974 46.9763 55.1653 47.2514C55.4333 47.5265 55.7981 47.686 56.182 47.696ZM48.086 49.615C45.611 49.615 42.891 51.462 42.891 54.81C42.891 57.86 45.208 59.999 48.081 59.999C51.621 59.999 53.351 57.153 53.351 54.829C53.351 51.977 51.124 49.615 48.086 49.615ZM48.094 51.695C49.806 51.695 51.083 53.075 51.083 54.815C51.083 56.588 49.727 57.955 48.099 57.955C46.588 57.955 45.119 56.725 45.119 54.845C45.119 52.935 46.516 51.695 48.094 51.695Z" fill="black"/>
<path d="M51.645 11.6051L57.344 1.73509C57.4967 1.46993 57.5382 1.15513 57.4595 0.859455C57.3808 0.563783 57.1883 0.311276 56.924 0.157089C56.7936 0.0807116 56.6494 0.0309461 56.4996 0.0106769C56.3499 -0.00959222 56.1976 3.53046e-05 56.0516 0.0390011C55.9056 0.0779668 55.7688 0.1455 55.649 0.23769C55.5293 0.329879 55.429 0.444896 55.354 0.576088L49.582 10.5741C45.177 8.56209 40.219 7.44009 34.888 7.44009C29.556 7.44009 24.598 8.56209 20.193 10.5741L14.42 0.576088C14.3443 0.44467 14.2434 0.329503 14.1231 0.237209C14.0028 0.144914 13.8654 0.077313 13.7188 0.0382839C13.5723 -0.0007452 13.4195 -0.0104325 13.2692 0.0097843C13.1189 0.0300011 12.974 0.0797207 12.843 0.156086C12.7113 0.23177 12.5959 0.33277 12.5035 0.453262C12.411 0.573754 12.3433 0.711358 12.3043 0.858139C12.2652 1.00492 12.2556 1.15797 12.276 1.30848C12.2964 1.45899 12.3463 1.60398 12.423 1.73509L18.122 11.6051C8.29602 16.9301 1.64102 26.8751 0.542023 38.5181H69.234C68.134 26.8751 61.479 16.9301 51.646 11.6051H51.645ZM19.117 28.8731C18.3534 28.8731 17.621 28.5698 17.0809 28.0299C16.5408 27.49 16.2373 26.7577 16.237 25.9941C16.2373 25.2304 16.5408 24.4982 17.0809 23.9583C17.621 23.4184 18.3534 23.1151 19.117 23.1151C19.8805 23.1154 20.6126 23.4188 21.1525 23.9586C21.6923 24.4985 21.9958 25.2306 21.996 25.9941C21.9965 26.3724 21.9224 26.7471 21.7779 27.0967C21.6333 27.4463 21.4212 27.7639 21.1536 28.0314C20.8861 28.2988 20.5683 28.5109 20.2187 28.6553C19.869 28.7997 19.4953 28.8737 19.117 28.8731ZM50.651 28.8731C49.8875 28.8728 49.1554 28.5694 48.6156 28.0296C48.0757 27.4897 47.7723 26.7576 47.772 25.9941C47.7723 25.2306 48.0757 24.4985 48.6156 23.9586C49.1554 23.4188 49.8875 23.1154 50.651 23.1151C51.4145 23.1154 52.1466 23.4188 52.6865 23.9586C53.2264 24.4985 53.5298 25.2306 53.53 25.9941C53.5305 26.3723 53.4564 26.7469 53.3119 27.0965C53.1674 27.446 52.9554 27.7636 52.688 28.031C52.4205 28.2985 52.1029 28.5105 51.7534 28.655C51.4039 28.7995 51.0292 28.8736 50.651 28.8731Z" fill="#32DE84"/>
</g>
</svg>
