<svg width="24" height="24" viewBox="0 0 24 24" fill="none" xmlns="http://www.w3.org/2000/svg">
<path fill-rule="evenodd" clip-rule="evenodd" d="M22 20H2C1.46957 20 0.960859 19.7893 0.585786 19.4142C0.210714 19.0391 0 18.5304 0 18V3C0 2.46957 0.210714 1.96086 0.585786 1.58579C0.960859 1.21071 1.46957 1 2 1H22C22.5304 1 23.0391 1.21071 23.4142 1.58579C23.7893 1.96086 24 2.46957 24 3V18C24 18.5304 23.7893 19.0391 23.4142 19.4142C23.0391 19.7893 22.5304 20 22 20ZM3 18H5V13C5 12.7348 4.89464 12.4804 4.70711 12.2929C4.51957 12.1054 4.26522 12 4 12C3.73478 12 3.48043 12.1054 3.29289 12.2929C3.10536 12.4804 3 12.7348 3 13V18ZM6 18H18V12H6V18ZM19 18H21V13C21 12.7348 20.8946 12.4804 20.7071 12.2929C20.5196 12.1054 20.2652 12 20 12C19.7348 12 19.4804 12.1054 19.2929 12.2929C19.1054 12.4804 19 12.7348 19 13V18ZM15.281 5.98L16.416 4.277C16.4547 4.22243 16.482 4.16065 16.4964 4.09532C16.5108 4.02999 16.5119 3.96244 16.4998 3.89666C16.4876 3.83089 16.4623 3.76823 16.4254 3.7124C16.3886 3.65656 16.3409 3.60869 16.2852 3.57162C16.2296 3.53454 16.167 3.50901 16.1013 3.49655C16.0356 3.48409 15.968 3.48494 15.9026 3.49905C15.8372 3.51317 15.7753 3.54026 15.7206 3.57873C15.6659 3.6172 15.6194 3.66626 15.584 3.723L14.398 5.502C13.6419 5.17071 12.8254 4.99968 12 4.99968C11.1746 4.99968 10.3581 5.17071 9.602 5.502L8.416 3.723C8.38057 3.66626 8.33412 3.6172 8.27939 3.57873C8.22466 3.54026 8.16277 3.51317 8.09738 3.49905C8.03199 3.48494 7.96444 3.48409 7.89871 3.49655C7.83299 3.50901 7.77043 3.53454 7.71475 3.57162C7.65907 3.60869 7.6114 3.65656 7.57455 3.7124C7.53771 3.76823 7.51244 3.83089 7.50025 3.89666C7.48806 3.96244 7.48919 4.02999 7.50357 4.09532C7.51796 4.16065 7.54531 4.22243 7.584 4.277L8.719 5.98C7.88397 6.52453 7.19799 7.26879 6.72321 8.14536C6.24843 9.02193 5.99985 10.0031 6 11H18C18.0001 10.0031 17.7516 9.02193 17.2768 8.14536C16.802 7.26879 16.116 6.52453 15.281 5.98ZM10 9C9.73478 9 9.48043 8.89464 9.29289 8.70711C9.10536 8.51957 9 8.26522 9 8C9 7.73478 9.10536 7.48043 9.29289 7.29289C9.48043 7.10536 9.73478 7 10 7C10.2652 7 10.5196 7.10536 10.7071 7.29289C10.8946 7.48043 11 7.73478 11 8C11 8.26522 10.8946 8.51957 10.7071 8.70711C10.5196 8.89464 10.2652 9 10 9ZM14 9C13.7348 9 13.4804 8.89464 13.2929 8.70711C13.1054 8.51957 13 8.26522 13 8C13 7.73478 13.1054 7.48043 13.2929 7.29289C13.4804 7.10536 13.7348 7 14 7C14.2652 7 14.5196 7.10536 14.7071 7.29289C14.8946 7.48043 15 7.73478 15 8C15 8.26522 14.8946 8.51957 14.7071 8.70711C14.5196 8.89464 14.2652 9 14 9ZM6 21H18C18.2652 21 18.5196 21.1054 18.7071 21.2929C18.8946 21.4804 19 21.7348 19 22C19 22.2652 18.8946 22.5196 18.7071 22.7071C18.5196 22.8946 18.2652 23 18 23H6C5.73478 23 5.48043 22.8946 5.29289 22.7071C5.10536 22.5196 5 22.2652 5 22C5 21.7348 5.10536 21.4804 5.29289 21.2929C5.48043 21.1054 5.73478 21 6 21Z" fill="#2A2B32"/>
</svg>
