<svg width="160" height="48" viewBox="0 0 160 48" fill="none" xmlns="http://www.w3.org/2000/svg">
<path d="M154.272 0.194824H5.7284C2.57308 0.194824 0.0151978 2.75271 0.0151978 5.90802V42.0916C0.0151978 45.2469 2.57308 47.8048 5.7284 47.8048H154.272C157.427 47.8048 159.985 45.2469 159.985 42.0916V5.90802C159.985 2.75271 157.427 0.194824 154.272 0.194824Z" fill="#A6A6A6"/>
<path d="M154.219 1.15771H5.77028C3.14085 1.15771 1.00928 3.28929 1.00928 5.91872V42.0814C1.00928 44.7108 3.14085 46.8424 5.77028 46.8424H154.219C156.849 46.8424 158.98 44.7108 158.98 42.0814V5.91872C158.98 3.28929 156.849 1.15771 154.219 1.15771Z" fill="black"/>
<path d="M38.3832 23.0423C38.396 22.049 38.6598 21.075 39.1501 20.211C39.6404 19.3469 40.3412 18.6209 41.1874 18.1004C40.6497 17.3325 39.9404 16.7006 39.1157 16.2548C38.2911 15.809 37.3738 15.5616 36.4369 15.5323C34.4382 15.3229 32.5005 16.7283 31.4826 16.7283C30.4447 16.7283 28.8764 15.5523 27.1881 15.5876C26.0957 15.6227 25.031 15.9403 24.0979 16.5094C23.1647 17.0784 22.3949 17.8795 21.8634 18.8346C19.562 22.8195 21.2788 28.6775 23.4831 31.8988C24.5877 33.4766 25.876 35.2381 27.5633 35.1753C29.2144 35.1077 29.8305 34.1231 31.8234 34.1231C33.7983 34.1231 34.3763 35.1753 36.0979 35.1362C37.869 35.1077 38.9859 33.5518 40.0495 31.9588C40.8424 30.835 41.4527 29.5929 41.8577 28.2785C40.8281 27.8433 39.9495 27.1146 39.3314 26.1832C38.7134 25.2519 38.3832 24.1592 38.3822 23.0414L38.3832 23.0423ZM35.1323 13.4127C36.0979 12.2531 36.5733 10.7628 36.4578 9.2583C34.9819 9.41331 33.6185 10.1188 32.6395 11.2341C32.161 11.7788 31.7946 12.4124 31.5611 13.0988C31.3276 13.7852 31.2317 14.5108 31.2788 15.2343C32.0169 15.242 32.7472 15.082 33.4145 14.7665C34.0819 14.4509 34.6699 13.9881 35.1323 13.4127ZM59.2516 31.1818H53.6184L52.2653 35.1772H49.8791L55.2152 20.3971H57.6947L63.0309 35.1772H60.6037L59.2516 31.1818ZM54.2011 29.3383H58.6669L56.4654 22.8548H56.4045L54.2011 29.3383ZM74.5553 29.7896C74.5553 33.1385 72.7633 35.2895 70.0581 35.2895C69.373 35.3253 68.6917 35.1674 68.0922 34.834C67.4927 34.5006 66.9992 34.0051 66.6683 33.4042H66.6168V38.7422H64.4049V24.4002H66.5454V26.1922H66.5864C66.9327 25.5943 67.4346 25.1015 68.0387 24.7662C68.6428 24.4308 69.3266 24.2655 70.0171 24.2878C72.7528 24.2878 74.5553 26.4503 74.5553 29.7896ZM72.2815 29.7896C72.2815 27.6081 71.1541 26.1732 69.4344 26.1732C67.7442 26.1732 66.6064 27.6377 66.6064 29.7896C66.6064 31.9607 67.7442 33.4147 69.4344 33.4147C71.1541 33.4147 72.2815 31.9911 72.2815 29.7896ZM86.4159 29.7896C86.4159 33.1385 84.6239 35.2895 81.9187 35.2895C81.2336 35.3252 80.5524 35.1673 79.9529 34.8339C79.3534 34.5004 78.8599 34.005 78.5289 33.4042H78.4765V38.7422H76.2645V24.4002H78.4051V26.1922H78.446C78.7923 25.5943 79.2942 25.1015 79.8984 24.7662C80.5025 24.4308 81.1862 24.2655 81.8768 24.2878C84.6125 24.2878 86.415 26.4493 86.415 29.7887L86.4159 29.7896ZM84.1421 29.7896C84.1421 27.6081 83.0147 26.1732 81.295 26.1732C79.6048 26.1732 78.467 27.6377 78.467 29.7896C78.467 31.9607 79.6048 33.4147 81.295 33.4147C83.0147 33.4147 84.1421 31.9911 84.1421 29.7896ZM94.2544 31.0589C94.4192 32.5253 95.8427 33.487 97.7881 33.487C99.6525 33.487 100.994 32.5253 100.994 31.2037C100.994 30.0563 100.185 29.3688 98.2699 28.8984L96.354 28.4366C93.6403 27.7814 92.3796 26.5122 92.3796 24.4526C92.3796 21.9026 94.602 20.1505 97.7585 20.1505C100.882 20.1505 103.022 21.9026 103.095 24.4526H100.862C100.727 22.9766 99.5087 22.0873 97.7271 22.0873C95.9446 22.0873 94.7258 22.9881 94.7258 24.2993C94.7258 25.3438 95.5047 25.9589 97.4091 26.4293L99.0383 26.8292C102.07 27.5463 103.331 28.7651 103.331 30.9266C103.331 33.6918 101.127 35.4238 97.6243 35.4238C94.3468 35.4238 92.1339 33.7327 91.9911 31.0589H94.2544ZM108.104 21.8511V24.4011H110.153V26.1532H108.104V32.093C108.104 33.0166 108.515 33.4461 109.415 33.4461C109.658 33.4423 109.902 33.4251 110.143 33.3956V35.1362C109.738 35.2124 109.327 35.2467 108.915 35.2391C106.733 35.2391 105.882 34.4202 105.882 32.3292V26.1532H104.315V24.4011H105.882V21.8511H108.104ZM111.341 29.7896C111.341 26.3998 113.337 24.2688 116.451 24.2688C119.575 24.2688 121.564 26.3989 121.564 29.7896C121.564 33.189 119.586 35.3105 116.451 35.3105C113.317 35.3105 111.341 33.1899 111.341 29.7896ZM119.31 29.7896C119.31 27.4634 118.243 26.0913 116.451 26.0913C114.659 26.0913 113.594 27.4739 113.594 29.7896C113.594 32.1244 114.659 33.487 116.451 33.487C118.243 33.487 119.31 32.1254 119.31 29.7896ZM123.387 24.4011H125.496V26.2351H125.548C125.69 25.6623 126.026 25.156 126.498 24.8016C126.97 24.4471 127.55 24.266 128.139 24.2888C128.395 24.2878 128.649 24.3154 128.897 24.3707V26.4398C128.575 26.3415 128.24 26.2965 127.903 26.3065C127.419 26.2873 126.942 26.4262 126.544 26.7022C126.145 26.9783 125.848 27.3765 125.696 27.8367C125.596 28.1424 125.562 28.4663 125.599 28.786V35.1772H123.387V24.4011ZM139.096 32.0121C138.798 33.9679 136.893 35.3105 134.456 35.3105C131.321 35.3105 129.375 33.2109 129.375 29.8411C129.375 26.4607 131.331 24.2688 134.363 24.2688C137.344 24.2688 139.219 26.316 139.219 29.584V30.3419H131.608V30.4752C131.573 30.8719 131.622 31.2716 131.753 31.6476C131.885 32.0236 132.094 32.3673 132.369 32.6558C132.643 32.9443 132.976 33.1714 133.344 33.3217C133.713 33.4721 134.109 33.5424 134.507 33.528C135.03 33.5771 135.554 33.4561 136.003 33.1829C136.451 32.9098 136.8 32.4991 136.996 32.0121H139.096ZM131.619 28.7955H137.006C137.026 28.439 136.972 28.0821 136.847 27.7475C136.723 27.4129 136.53 27.1077 136.282 26.8511C136.034 26.594 135.735 26.391 135.405 26.2549C135.075 26.1189 134.72 26.0528 134.363 26.0608C134.003 26.0586 133.646 26.1277 133.312 26.2642C132.979 26.4007 132.676 26.6019 132.421 26.8562C132.166 27.1104 131.963 27.4127 131.826 27.7456C131.688 28.0785 131.618 28.4353 131.619 28.7955ZM51.5483 12.4825H52.5071C52.6721 12.5028 52.8396 12.4889 52.9989 12.4414C53.1583 12.394 53.3061 12.3141 53.4331 12.2068C53.5601 12.0995 53.6635 11.9671 53.7368 11.8179C53.8102 11.6687 53.8518 11.5059 53.8593 11.3398C53.8593 10.678 53.3622 10.2514 52.5186 10.2514C52.3494 10.2279 52.1773 10.2384 52.0122 10.2824C51.8472 10.3265 51.6927 10.4031 51.5578 10.5079C51.4229 10.6126 51.3104 10.7433 51.2268 10.8922C51.1432 11.0412 51.0903 11.2053 51.0712 11.375H50.0181C50.036 11.0669 50.1172 10.7659 50.2567 10.4905C50.3961 10.2152 50.5907 9.97153 50.8284 9.77472C51.0662 9.57792 51.3419 9.43218 51.6384 9.34661C51.9349 9.26104 52.2459 9.23746 52.5519 9.27735C53.964 9.27735 54.9581 10.0677 54.9581 11.2055C54.9612 11.5866 54.8336 11.9572 54.5965 12.2556C54.3595 12.554 54.0274 12.7621 53.6555 12.8452V12.93C54.0964 12.9495 54.5116 13.1428 54.8104 13.4675C55.1093 13.7922 55.2675 14.222 55.2504 14.663C55.2177 14.9802 55.1221 15.2877 54.9691 15.5674C54.8161 15.8472 54.6088 16.0936 54.3593 16.2923C54.1099 16.4909 53.8233 16.6378 53.5164 16.7242C53.2094 16.8107 52.8883 16.8351 52.5719 16.7959C52.2548 16.8391 51.9324 16.818 51.6236 16.7338C51.3149 16.6497 51.0263 16.5042 50.775 16.3062C50.5237 16.1081 50.3149 15.8615 50.161 15.581C50.007 15.3004 49.9112 14.9918 49.8791 14.6735H50.9474C51.0122 15.359 51.6425 15.8018 52.5719 15.8018C53.5012 15.8018 54.1087 15.3048 54.1087 14.6049C54.1087 13.8936 53.5374 13.4566 52.5376 13.4566H51.5483V12.4825ZM56.4645 15.0915C56.4645 14.1174 57.191 13.5565 58.4774 13.4765L59.9438 13.3918V12.9252C59.9438 12.3539 59.5667 12.0302 58.8355 12.0302C58.2394 12.0302 57.8271 12.2492 57.7081 12.6319H56.674C56.7825 11.7026 57.6585 11.1065 58.8859 11.1065C60.2428 11.1065 61.0074 11.7816 61.0074 12.9252V16.6226H59.979V15.8609H59.8934C59.722 16.1336 59.4814 16.3561 59.196 16.5054C58.9106 16.6548 58.5907 16.7258 58.2689 16.7112C58.0418 16.7348 57.8122 16.7107 57.5949 16.6402C57.3777 16.5697 57.1776 16.4545 57.0076 16.302C56.8376 16.1495 56.7015 15.9631 56.6079 15.7548C56.5144 15.5464 56.4655 15.3208 56.4645 15.0924V15.0915ZM59.9438 14.6297V14.1774L58.6222 14.2612C57.8766 14.3116 57.5386 14.5649 57.5386 15.042C57.5386 15.5285 57.9613 15.8123 58.5422 15.8123C58.7123 15.8294 58.8842 15.8121 59.0475 15.7615C59.2109 15.7109 59.3624 15.628 59.493 15.5177C59.6237 15.4074 59.7308 15.2719 59.8081 15.1193C59.8854 14.9668 59.9322 14.8003 59.9438 14.6297ZM63.8412 12.1092V16.6226H62.7747V11.2103H66.3369V12.1092H63.8412ZM72.809 13.9136C72.809 15.6333 71.9396 16.7112 70.5742 16.7112C70.2386 16.7342 69.9035 16.6608 69.6083 16.4997C69.3131 16.3386 69.07 16.0964 68.9078 15.8018H68.824V18.4204H67.7547V11.2103H68.7831V12.1054H68.8631C69.028 11.8006 69.2739 11.5474 69.5737 11.3737C69.8734 11.1999 70.2154 11.1124 70.5618 11.1208C71.9387 11.1208 72.809 12.1939 72.809 13.9136ZM71.7111 13.9136C71.7111 12.771 71.1703 12.0806 70.2647 12.0806C69.3658 12.0806 68.804 12.7852 68.804 13.9184C68.804 15.0467 69.3658 15.7523 70.2609 15.7523C71.1703 15.7523 71.7111 15.062 71.7111 13.9146V13.9136ZM74.2316 18.5603V17.6405C74.3477 17.6558 74.4639 17.6624 74.5801 17.6605C74.8076 17.6774 75.0334 17.6097 75.2141 17.4704C75.3947 17.331 75.5176 17.1298 75.5589 16.9054L75.6389 16.6417L73.6803 11.2103H74.8429L76.1998 15.5085H76.2845L77.6366 11.2103H78.7688L76.7511 16.8454C76.2893 18.1623 75.777 18.5851 74.6743 18.5851C74.5848 18.5851 74.3316 18.5756 74.2316 18.5603ZM79.6001 15.0867H80.6646C80.7694 15.5628 81.216 15.8123 81.8416 15.8123C82.5519 15.8123 82.989 15.4981 82.989 15.0124C82.989 14.4897 82.5967 14.2412 81.8416 14.2412H81.0322V13.4118H81.8273C82.4729 13.4118 82.8014 13.1642 82.8014 12.711C82.8014 12.3139 82.4833 12.0102 81.8273 12.0102C81.2302 12.0102 80.7932 12.2644 80.7237 12.691H79.6953C79.7725 12.2003 80.039 11.7595 80.4376 11.4633C80.8363 11.167 81.3352 11.0389 81.8273 11.1065C83.1127 11.1065 83.8498 11.6874 83.8498 12.6015C83.8558 12.8562 83.7741 13.1053 83.6185 13.3071C83.4628 13.5088 83.2426 13.651 82.9947 13.7098V13.7946C83.2896 13.8326 83.5603 13.9775 83.7554 14.2018C83.9506 14.4261 84.0567 14.7142 84.0535 15.0115C84.0535 16.0399 83.1775 16.7207 81.8416 16.7207C80.6589 16.7207 79.6982 16.1798 79.6001 15.0867ZM85.5913 16.6217V11.2103H86.6502V14.9334H86.7349L89.2287 11.2103H90.2866V16.6217H89.2287V12.8795H89.1487L86.6502 16.6217H85.5913ZM96.1188 12.1092H94.4144V16.6226H93.3451V12.1092H91.6406V11.2103H96.1188V12.1092ZM101.871 15.161C101.725 15.6553 101.411 16.0828 100.982 16.3689C100.554 16.655 100.038 16.7815 99.5258 16.7264C99.1694 16.7355 98.8153 16.667 98.4879 16.5257C98.1606 16.3844 97.8679 16.1736 97.6301 15.908C97.3922 15.6423 97.215 15.3282 97.1106 14.9873C97.0061 14.6464 96.9771 14.2869 97.0253 13.9336C96.9779 13.5791 97.0071 13.2186 97.1111 12.8764C97.215 12.5342 97.3913 12.2183 97.6279 11.9502C97.8646 11.682 98.1561 11.4678 98.4827 11.3221C98.8093 11.1764 99.1634 11.1025 99.5211 11.1056C101.026 11.1056 101.936 12.1349 101.936 13.8346V14.2069H98.1147V14.2669C98.0896 14.5661 98.1592 14.8656 98.3137 15.1232C98.4681 15.3807 98.6996 15.5831 98.9754 15.7018C99.1592 15.7799 99.3563 15.8199 99.5563 15.8171C99.8115 15.8475 100.07 15.8013 100.299 15.6845C100.528 15.5677 100.717 15.3855 100.842 15.161H101.871ZM98.1147 13.4175H100.847C100.861 13.2359 100.836 13.0533 100.775 12.8816C100.714 12.71 100.617 12.5532 100.491 12.4215C100.367 12.289 100.215 12.1843 100.047 12.1143C99.8792 12.0442 99.6983 12.0104 99.5163 12.0149C99.3315 12.0128 99.1481 12.0475 98.9769 12.1172C98.8057 12.1868 98.6502 12.29 98.5193 12.4206C98.3887 12.5513 98.2856 12.7069 98.2161 12.8781C98.1466 13.0493 98.1121 13.2327 98.1147 13.4175ZM106.399 11.2103H108.839C109.897 11.2103 110.518 11.7474 110.518 12.5862C110.52 12.8527 110.43 13.1118 110.264 13.3199C110.097 13.528 109.864 13.6724 109.604 13.7289V13.8146C109.92 13.8343 110.216 13.9749 110.432 14.207C110.647 14.4392 110.765 14.7453 110.761 15.062C110.761 16.0056 110.051 16.6217 108.864 16.6217H106.399V11.2103ZM107.458 12.0302V13.4318H108.516C109.162 13.4318 109.471 13.1842 109.471 12.7253C109.471 12.3034 109.202 12.0302 108.635 12.0302H107.458ZM107.458 14.2164V15.8018H108.724C109.355 15.8018 109.693 15.5238 109.693 15.0115C109.693 14.4706 109.311 14.2164 108.59 14.2164H107.458Z" fill="white"/>
</svg>
