<svg width="16" height="17" viewBox="0 0 16 17" fill="none" xmlns="http://www.w3.org/2000/svg">
<path d="M13.215 7.64329L8.43798 12.2203C8.27798 12.3553 8.12798 12.4103 7.99998 12.4103C7.84596 12.4068 7.69847 12.3475 7.58498 12.2433L2.78498 7.64329C2.54498 7.41529 2.53798 7.01329 2.76698 6.79529C2.82128 6.7381 2.88638 6.69224 2.95851 6.66035C3.03064 6.62846 3.10838 6.61118 3.18722 6.60951C3.26607 6.60784 3.34447 6.6218 3.41789 6.6506C3.49131 6.6794 3.55829 6.72246 3.61498 6.77729L7.99998 10.9803L12.385 6.78029C12.4417 6.72546 12.5086 6.6824 12.5821 6.6536C12.6555 6.6248 12.7339 6.61084 12.8127 6.61251C12.8916 6.61418 12.9693 6.63146 13.0414 6.66335C13.1136 6.69524 13.1787 6.7411 13.233 6.79829C13.463 7.01329 13.455 7.41529 13.215 7.64329Z" fill="#2A2B32"/>
</svg>
