<svg width="24" height="24" viewBox="0 0 24 24" fill="none" xmlns="http://www.w3.org/2000/svg">
<path d="M12 16C10.9391 16 9.92172 15.5786 9.17157 14.8284C8.42143 14.0783 8 13.0609 8 12C8 10.9391 8.42143 9.92172 9.17157 9.17157C9.92172 8.42143 10.9391 8 12 8C13.0609 8 14.0783 8.42143 14.8284 9.17157C15.5786 9.92172 16 10.9391 16 12C16 13.0609 15.5786 14.0783 14.8284 14.8284C14.0783 15.5786 13.0609 16 12 16ZM6.39 10L3 4.077C5.154 1.584 8.316 0 11.844 0C16.181 0 19.965 2.388 22 5.922H11.967C9.367 5.922 7.161 7.635 6.39 10ZM13 18.032L9.664 24C4.182 23.007 0 18.068 0 12.126C0 9.889 0.604 7.798 1.635 6L6.745 15.143L6.752 15.14C7.763 16.942 9.646 18.16 11.804 18.16C12.214 18.16 12.614 18.115 13 18.032ZM16.504 8H23.292C23.742 9.254 24 10.597 24 12.002C24 18.578 18.628 23.93 12 24L17.248 15.003L17.242 15C17.7779 14.0917 18.061 13.0566 18.062 12.002C18.0599 10.5202 17.5048 9.09275 16.504 8Z" fill="#2A2B32"/>
</svg>
