<svg width="214" height="24" viewBox="0 0 214 24" fill="none" xmlns="http://www.w3.org/2000/svg">
<g clip-path="url(#clip0_3_1483)">
<path fill-rule="evenodd" clip-rule="evenodd" d="M30.48 1H4.47998C2.87998 1 1.47998 2.3 1.47998 4V20C1.47998 21.7 2.77998 23 4.47998 23H30.48C32.18 23 33.48 21.7 33.48 20V4C33.48 2.3 32.18 1 30.48 1Z" fill="#383C43"/>
<path fill-rule="evenodd" clip-rule="evenodd" d="M13.18 5.40039C14.0467 5.40039 14.9049 5.5711 15.7057 5.90279C16.5064 6.23447 17.234 6.72062 17.8469 7.33349C18.4597 7.94635 18.9459 8.67393 19.2776 9.47468C19.6092 10.2754 19.78 11.1337 19.78 12.0004C19.78 12.8671 19.6092 13.7254 19.2776 14.5261C18.9459 15.3269 18.4597 16.0544 17.8469 16.6673C17.234 17.2802 16.5064 17.7663 15.7057 18.098C14.9049 18.4297 14.0467 18.6004 13.18 18.6004C12.3132 18.6004 11.455 18.4297 10.6542 18.098C9.8535 17.7663 9.12592 17.2802 8.51305 16.6673C7.90018 16.0544 7.41403 15.3269 7.08235 14.5261C6.75067 13.7254 6.57996 12.8671 6.57996 12.0004C6.57996 11.1337 6.75067 10.2754 7.08235 9.47468C7.41403 8.67393 7.90018 7.94635 8.51305 7.33349C9.12592 6.72062 9.8535 6.23447 10.6542 5.90279C11.455 5.5711 12.3132 5.40039 13.18 5.40039Z" fill="#EB001B"/>
<path fill-rule="evenodd" clip-rule="evenodd" d="M21.98 5.5C25.58 5.6 28.48 8.5 28.38 12.1C28.28 15.7 25.38 18.6 21.78 18.5C18.18 18.4 15.38 15.6 15.38 12C15.38 8.4 18.38 5.5 21.98 5.5Z" fill="#00A2E5"/>
<path fill-rule="evenodd" clip-rule="evenodd" d="M15.38 12.0002C15.38 10.1002 16.18 8.4002 17.58 7.2002C20.28 9.5002 20.48 13.6002 18.18 16.2002L17.58 16.8002C16.8845 16.2098 16.327 15.4739 15.9469 14.6445C15.5668 13.8152 15.3733 12.9125 15.38 12.0002Z" fill="#7375CF"/>
<path fill-rule="evenodd" clip-rule="evenodd" d="M66.48 1H40.48C38.88 1 37.48 2.3 37.48 4V20C37.48 21.7 38.78 23 40.48 23H66.48C68.18 23 69.48 21.7 69.48 20V4C69.48 2.3 68.18 1 66.48 1Z" fill="#F8F8F8"/>
<path d="M37.48 4C37.48 3.20435 37.7961 2.44129 38.3587 1.87868C38.9213 1.31607 39.6843 1 40.48 1H66.48C67.2756 1 68.0387 1.31607 68.6013 1.87868C69.1639 2.44129 69.48 3.20435 69.48 4H37.48Z" fill="#1A1F71"/>
<path d="M37.48 20H69.48C69.48 20.7956 69.1639 21.5587 68.6013 22.1213C68.0387 22.6839 67.2756 23 66.48 23H40.48C39.6843 23 38.9213 22.6839 38.3587 22.1213C37.7961 21.5587 37.48 20.7956 37.48 20Z" fill="#F7B600"/>
<path fill-rule="evenodd" clip-rule="evenodd" d="M62.28 6.10044H63.88L65.48 13.8004H63.48C63.48 13.8004 63.38 12.9004 63.28 12.6004H60.68C60.58 12.8004 60.28 13.8004 60.28 13.8004H58.18L61.18 6.70044C61.38 6.30044 61.78 6.00044 62.28 6.10044ZM62.18 8.90044C62.18 8.90044 61.58 10.7004 61.38 11.1004H63.08C62.98 10.7004 62.58 8.90044 62.58 8.90044L62.48 8.20044C62.38 8.50044 62.18 8.90044 62.18 8.90044Z" fill="#1A1F71"/>
<path d="M56.88 6C57.48 6 58.08 6.1 58.68 6.3L58.38 8H58.28C57.78 7.8 57.28 7.7 56.78 7.7C55.98 7.7 55.58 8.1 55.58 8.4C55.58 8.774 55.93 8.973 56.55 9.326L56.68 9.4C57.88 9.9 58.38 10.6 58.38 11.5C58.38 13.1 56.98 14.1 54.88 14.1C54.08 14.1 53.28 14 52.58 13.7L52.88 12L53.18 12.1C53.78 12.4 54.38 12.5 55.08 12.5C55.58 12.6 56.18 12.2 56.28 11.7C56.38 11.3 56.08 11.1 55.28 10.7C54.28 10.4 53.58 9.6 53.48 8.6C53.48 7 54.88 6 56.88 6ZM50.58 6.2L49.28 13.9H51.28L52.58 6.2H50.58ZM43.78 6.1H40.48V6.3C41.32 6.452 42.115 6.78 42.823 7.238C42.743 7.19026 42.662 7.14425 42.58 7.1L44.38 13.9H46.48L49.68 6.2L47.58 6.1L45.58 11.4L45.38 10.3L44.68 6.8C44.6245 6.60246 44.5071 6.42789 44.3452 6.30192C44.1832 6.17594 43.9851 6.10517 43.78 6.1Z" fill="#1A1F71"/>
<path fill-rule="evenodd" clip-rule="evenodd" d="M57.753 18C58.023 18 58.235 17.93 58.331 17.883L58.268 17.609C58.1272 17.6735 57.9738 17.706 57.819 17.704C57.419 17.704 57.12 17.417 57.12 16.951C57.12 16.535 57.37 16.19 57.832 16.19C58.032 16.19 58.168 16.24 58.256 16.286L58.339 16.006C58.18 15.9321 58.0063 15.8955 57.831 15.899C57.174 15.899 56.75 16.352 56.75 16.972C56.75 17.588 57.146 18 57.753 18ZM55.985 16.752C55.989 16.522 55.889 16.161 55.477 16.161C55.103 16.161 54.945 16.498 54.915 16.751H55.985V16.752ZM54.911 17.014C54.92 17.509 55.231 17.713 55.602 17.713C55.864 17.713 56.027 17.667 56.16 17.609L56.226 17.871C56.0129 17.9609 55.7832 18.0049 55.552 18C54.932 18 54.562 17.588 54.562 16.98C54.562 16.373 54.92 15.899 55.506 15.899C56.168 15.899 56.339 16.473 56.339 16.843C56.3402 16.9 56.3358 16.9569 56.326 17.013H54.912L54.911 17.014ZM51.846 16.639H52.932V16.339H51.846V15.454H52.999V15.15H51.48V17.954H53.061V17.65H51.846V16.639ZM53.988 15H53.622V17.954H53.988V15ZM59.358 15.458V15.94H59.882V16.219H59.358V17.305C59.358 17.555 59.428 17.696 59.632 17.696C59.732 17.696 59.791 17.688 59.845 17.671L59.861 17.951C59.791 17.975 59.678 18 59.537 18C59.464 18.0034 59.3912 17.9914 59.3231 17.9649C59.2551 17.9384 59.1934 17.8979 59.142 17.846C59.042 17.734 59 17.555 59 17.318V16.218H58.688V15.94H59V15.566L59.358 15.458ZM60.377 15.94C60.389 16.128 60.393 16.331 60.393 16.569V17.954H60.76V16.881C60.76 16.822 60.764 16.76 60.772 16.711C60.822 16.435 61.005 16.244 61.262 16.244C61.313 16.244 61.35 16.244 61.388 16.253V15.907L61.376 15.905C61.3468 15.9011 61.3174 15.8991 61.288 15.899C61.042 15.899 60.818 16.069 60.726 16.339H60.714L60.697 15.94H60.377ZM62.045 16.951C62.045 17.392 62.295 17.725 62.652 17.725C63.002 17.725 63.263 17.396 63.263 16.943C63.263 16.602 63.093 16.173 62.66 16.173C62.232 16.173 62.045 16.572 62.045 16.951ZM63.638 16.931C63.638 17.675 63.118 18 62.635 18C62.095 18 61.67 17.6 61.67 16.964C61.67 16.294 62.115 15.899 62.669 15.899C63.247 15.899 63.639 16.319 63.639 16.93L63.638 16.931ZM64.183 15.941C64.195 16.107 64.199 16.273 64.199 16.485V17.955H64.565V16.743C64.5638 16.6853 64.5723 16.6279 64.59 16.573C64.6221 16.4668 64.6868 16.3735 64.7749 16.3062C64.863 16.2389 64.9701 16.201 65.081 16.198C65.427 16.198 65.547 16.468 65.547 16.793V17.954H65.913V16.756C65.913 16.066 65.48 15.899 65.202 15.899C65.0676 15.8955 64.9347 15.9285 64.8175 15.9943C64.7002 16.0601 64.603 16.1564 64.536 16.273H64.528L64.507 15.94H64.183V15.941Z" fill="#1A1F71"/>
<path fill-rule="evenodd" clip-rule="evenodd" d="M102.48 1H76.48C74.88 1 73.48 2.3 73.48 4V20C73.48 21.7 74.78 23 76.48 23H102.48C104.18 23 105.48 21.7 105.48 20V4C105.48 2.3 104.18 1 102.48 1Z" fill="#383C43"/>
<path fill-rule="evenodd" clip-rule="evenodd" d="M85.18 5.40039C86.0467 5.40039 86.9049 5.5711 87.7057 5.90279C88.5064 6.23447 89.234 6.72062 89.8469 7.33349C90.4597 7.94635 90.9459 8.67393 91.2776 9.47468C91.6092 10.2754 91.78 11.1337 91.78 12.0004C91.78 12.8671 91.6092 13.7254 91.2776 14.5261C90.9459 15.3269 90.4597 16.0544 89.8469 16.6673C89.234 17.2802 88.5064 17.7663 87.7057 18.098C86.9049 18.4297 86.0467 18.6004 85.18 18.6004C84.3132 18.6004 83.455 18.4297 82.6542 18.098C81.8535 17.7663 81.1259 17.2802 80.5131 16.6673C79.9002 16.0544 79.414 15.3269 79.0824 14.5261C78.7507 13.7254 78.58 12.8671 78.58 12.0004C78.58 11.1337 78.7507 10.2754 79.0824 9.47468C79.414 8.67393 79.9002 7.94635 80.5131 7.33349C81.1259 6.72062 81.8535 6.23447 82.6542 5.90279C83.455 5.5711 84.3132 5.40039 85.18 5.40039Z" fill="#F22F12"/>
<path fill-rule="evenodd" clip-rule="evenodd" d="M93.98 5.5C97.58 5.6 100.48 8.5 100.38 12.1C100.28 15.7 97.38 18.6 93.78 18.5C90.18 18.4 87.38 15.6 87.38 12C87.38 8.4 90.38 5.5 93.98 5.5Z" fill="#F79F1A"/>
<path fill-rule="evenodd" clip-rule="evenodd" d="M87.38 12.0002C87.38 10.1002 88.18 8.4002 89.58 7.2002C92.28 9.5002 92.48 13.6002 90.18 16.2002L89.58 16.8002C88.8845 16.2098 88.327 15.4739 87.9469 14.6445C87.5668 13.8152 87.3733 12.9125 87.38 12.0002Z" fill="#FF5F01"/>
<path fill-rule="evenodd" clip-rule="evenodd" d="M112.48 22.5C111.081 22.5 109.98 21.4 109.98 20V4C109.98 2.6 111.081 1.5 112.48 1.5H138.48C139.88 1.5 140.98 2.6 140.98 4V20C140.98 21.4 139.88 22.5 138.48 22.5H112.48Z" fill="#F2F2F2"/>
<path fill-rule="evenodd" clip-rule="evenodd" d="M138.48 1H112.48C110.88 1 109.48 2.3 109.48 4V20C109.48 21.7 110.781 23 112.48 23H138.48C140.18 23 141.48 21.7 141.48 20V4C141.48 2.3 140.18 1 138.48 1ZM138.48 2C139.581 2 140.48 2.9 140.48 4V20C140.48 21.1 139.581 22 138.48 22H112.48C111.38 22 110.48 21.1 110.48 20V4C110.48 2.9 111.38 2 112.48 2H138.48Z" fill="#D8D8D8"/>
<path fill-rule="evenodd" clip-rule="evenodd" d="M134.28 8.10078H135.88L137.479 15.7998H135.479C135.479 15.7998 135.38 14.9008 135.28 14.6008H132.68C132.58 14.7998 132.28 15.7998 132.28 15.7998H130.18L133.18 8.70078C133.38 8.29978 133.78 7.99978 134.28 8.10078ZM134.18 10.9008C134.18 10.9008 133.58 12.7008 133.38 13.1008H135.08C134.979 12.7008 134.58 10.9008 134.58 10.9008L134.479 10.2008C134.38 10.4998 134.18 10.9008 134.18 10.9008Z" fill="url(#paint0_linear_3_1483)"/>
<path d="M128.88 8C129.479 8 130.08 8.101 130.68 8.3L130.38 10H130.28C129.78 9.8 129.28 9.701 128.78 9.701C127.979 9.701 127.58 10.101 127.58 10.401C127.58 10.774 127.93 10.974 128.55 11.327L128.68 11.401C129.88 11.901 130.38 12.601 130.38 13.5C130.38 15.101 128.979 16.101 126.88 16.101C126.08 16.101 125.28 16 124.58 15.701L124.88 14L125.18 14.101C125.78 14.401 126.38 14.5 127.08 14.5C127.58 14.601 128.18 14.201 128.28 13.701C128.38 13.3 128.08 13.101 127.28 12.701C126.28 12.401 125.58 11.601 125.479 10.601C125.479 9 126.88 8 128.88 8Z" fill="url(#paint1_linear_3_1483)"/>
<path d="M122.58 8.20117L121.28 15.9012H123.28L124.58 8.20117H122.58Z" fill="url(#paint2_linear_3_1483)"/>
<path d="M115.78 8.10059H112.479V8.29959C113.319 8.45259 114.115 8.77959 114.823 9.23759C114.743 9.19029 114.662 9.14462 114.58 9.10059L116.38 15.9006H118.479L121.68 8.20059L119.58 8.10059L117.58 13.4006L117.38 12.2996L116.679 8.79959C116.623 8.60239 116.506 8.42816 116.344 8.30239C116.183 8.17662 115.985 8.10591 115.78 8.10059Z" fill="url(#paint3_linear_3_1483)"/>
<path fill-rule="evenodd" clip-rule="evenodd" d="M174.48 1H148.48C146.879 1 145.48 2.3 145.48 4V20C145.48 21.7 146.78 23 148.48 23H174.48C176.18 23 177.48 21.7 177.48 20V4C177.48 2.3 176.18 1 174.48 1Z" fill="#006FCF"/>
<path fill-rule="evenodd" clip-rule="evenodd" d="M151.48 12.2H153.18L152.379 10.2L151.48 12.2ZM165.68 10.2V11.5H167.58V12.5H165.68V13.8H167.78L169.28 12L167.98 10.3L165.68 10.2ZM171.78 15L170.18 13.1L168.48 15H164.28V9.1H168.68L170.18 11L171.78 9.1H173.379L170.98 12L173.28 15H171.78ZM163.379 15H161.78V10.6L160.08 15H158.78L156.879 10.6V15H154.18L153.68 13.5H150.98L150.48 15H148.98L151.379 9.1H153.18L155.48 14.7V9.1H157.68L159.379 13L161.08 9.1H163.379V15ZM172.28 12L174.08 9.7L175.48 8H171.28L170.98 8.4L170.18 9.3L169.48 8.4L169.18 8H160.48L160.18 8.6L159.379 10.4L158.58 8.6L158.379 8H154.48V9.5L154.18 8.6L153.879 8H150.78L150.48 8.6L148.08 14.5L147.48 16H151.18L151.379 15.3L151.68 14.5H152.98L153.28 15.3L153.48 16H157.879V15.5L158.08 16H160.68L160.78 15.9V16H168.98L169.28 15.7L170.18 14.7L171.08 15.7L171.379 16.1H175.48L174.18 14.4L172.28 12Z" fill="white"/>
<path fill-rule="evenodd" clip-rule="evenodd" d="M184.061 23C182.615 23 181.48 21.848 181.48 20.381V3.619C181.48 2.153 182.615 1 184.061 1H210.899C212.345 1 213.48 2.153 213.48 3.619V20.381C213.48 21.848 212.345 23 210.899 23H184.061Z" fill="#F2F2F2"/>
<path fill-rule="evenodd" clip-rule="evenodd" d="M195.48 22L212.48 16V20C212.48 21.1 211.58 22 210.48 22H195.48Z" fill="#F16000"/>
<path fill-rule="evenodd" clip-rule="evenodd" d="M208.28 10.9999V9.99988H209.08C209.381 9.99988 209.58 10.0999 209.68 10.3999V10.4999C209.68 10.7999 209.48 10.9999 209.18 10.9999H208.28ZM207.48 12.7999H208.28V11.6999H208.881L209.58 12.7999H210.48L209.68 11.4999C210.18 11.2999 210.48 10.8999 210.381 10.3999C210.381 10.0999 210.28 9.79989 210.08 9.59989C209.78 9.29989 209.48 9.19988 209.08 9.19988H207.48V12.7999ZM204.18 12.7999H206.78V12.0999H204.881V11.3999H206.48V10.6999H204.881V9.89988H206.68V9.19988H204.08L204.18 12.7999ZM201.58 12.7999H202.28L203.68 9.19988H202.881L201.98 11.6999L201.08 9.19988H200.28L201.58 12.7999ZM194.68 12.8999C195.18 12.8999 195.78 12.6999 196.08 12.2999L195.58 11.7999C195.381 12.0999 194.98 12.1999 194.68 12.1999C194.08 12.1999 193.68 11.6999 193.68 11.0999C193.68 10.4999 194.08 9.99988 194.68 9.99988C194.98 9.99988 195.381 10.1999 195.58 10.3999L196.08 9.79989C195.78 9.39989 195.28 9.19988 194.68 9.19988C193.68 9.19988 192.881 9.99988 192.881 10.9999V11.0999C192.881 11.9999 193.58 12.7999 194.68 12.8999ZM191.18 12.8999C191.78 12.9999 192.381 12.5999 192.48 11.8999V11.6999C192.48 11.0999 191.98 10.5999 191.381 10.5999C190.78 10.4999 190.58 10.3999 190.58 10.1999C190.58 9.99988 190.78 9.89988 190.98 9.89988C191.28 9.89988 191.58 9.99989 191.881 10.2999L192.28 9.69988C191.98 9.29988 191.48 9.19988 191.08 9.19988C190.48 9.09988 189.881 9.49989 189.881 10.0999V10.1999C189.881 10.8999 190.28 11.0999 190.98 11.2999C191.58 11.4999 191.68 11.5999 191.68 11.7999C191.68 11.9999 191.48 12.1999 191.18 12.0999C190.78 12.0999 190.48 11.8999 190.18 11.6999L189.78 12.2999C190.08 12.6999 190.68 12.8999 191.18 12.8999ZM188.381 12.7999H189.181V9.19988H188.381V12.7999ZM185.28 12.0999V9.89988H185.881C186.48 9.89988 186.881 10.2999 186.881 10.8999V10.9999C186.881 11.5999 186.48 11.9999 185.98 12.0999H185.28ZM184.48 12.7999H185.78C186.78 12.7999 187.58 12.0999 187.58 11.0999V10.9999C187.58 9.99988 186.881 9.19988 185.881 9.19988H184.48V12.7999Z" fill="black"/>
<path fill-rule="evenodd" clip-rule="evenodd" d="M198.23 13C198.76 13 199.269 12.7893 199.644 12.4142C200.019 12.0391 200.23 11.5304 200.23 11C200.23 10.4696 200.019 9.96086 199.644 9.58579C199.269 9.21071 198.76 9 198.23 9C197.7 9 197.191 9.21071 196.816 9.58579C196.441 9.96086 196.23 10.4696 196.23 11C196.23 11.5304 196.441 12.0391 196.816 12.4142C197.191 12.7893 197.7 13 198.23 13Z" fill="#F16000"/>
<path fill-rule="evenodd" clip-rule="evenodd" d="M210.48 1H184.48C182.88 1 181.48 2.3 181.48 4V20C181.48 21.7 182.781 23 184.48 23H210.48C212.18 23 213.48 21.7 213.48 20V4C213.48 2.3 212.18 1 210.48 1ZM210.48 2C211.581 2 212.48 2.9 212.48 4V20C212.48 21.1 211.581 22 210.48 22H184.48C183.38 22 182.48 21.1 182.48 20V4C182.48 2.9 183.38 2 184.48 2H210.48Z" fill="#D8D8D8"/>
</g>
<defs>
<linearGradient id="paint0_linear_3_1483" x1="112.48" y1="12.9998" x2="137.48" y2="12.9998" gradientUnits="userSpaceOnUse">
<stop stop-color="#22245A"/>
<stop offset="1" stop-color="#2548A1"/>
</linearGradient>
<linearGradient id="paint1_linear_3_1483" x1="112.48" y1="13" x2="137.48" y2="13" gradientUnits="userSpaceOnUse">
<stop stop-color="#22245A"/>
<stop offset="1" stop-color="#2548A1"/>
</linearGradient>
<linearGradient id="paint2_linear_3_1483" x1="112.48" y1="13.0002" x2="137.48" y2="13.0002" gradientUnits="userSpaceOnUse">
<stop stop-color="#22245A"/>
<stop offset="1" stop-color="#2548A1"/>
</linearGradient>
<linearGradient id="paint3_linear_3_1483" x1="112.48" y1="12.9996" x2="137.48" y2="12.9996" gradientUnits="userSpaceOnUse">
<stop stop-color="#22245A"/>
<stop offset="1" stop-color="#2548A1"/>
</linearGradient>
<clipPath id="clip0_3_1483">
<rect width="213" height="24" fill="white" transform="translate(0.97998)"/>
</clipPath>
</defs>
</svg>
