<svg width="25" height="24" viewBox="0 0 25 24" fill="none" xmlns="http://www.w3.org/2000/svg">
<path d="M0.510012 12.204C0.586012 11.607 0.661012 11.157 0.888012 10.638C1.49201 9.22796 2.62301 8.33596 4.05701 7.81696C6.47201 6.92596 8.96201 6.99996 11.301 8.03896C11.678 8.18796 12.033 8.45596 12.411 8.67896C12.506 8.73396 12.433 8.67896 12.735 8.85596C12.83 8.91196 12.94 8.93996 12.864 9.00496C12.794 9.06496 12.508 9.07896 12.433 9.07896C11.452 9.15296 10.622 9.67296 9.94301 10.341C8.35801 11.677 7.45301 13.459 7.15101 15.389C6.62301 18.878 7.90501 21.625 10.773 23.777C10.848 23.852 10.923 23.852 10.999 24C8.88601 23.703 7.07501 22.96 5.49101 21.773C3.22701 20.066 1.64201 17.839 0.963012 15.092C0.813012 14.498 0.573012 13.98 0.511012 13.236C0.477012 12.834 0.434012 12.8 0.510012 12.204Z" fill="#2A2B32"/>
<path d="M1.149 7.36203C1.523 6.69803 1.822 6.03303 2.27 5.36903C4.29 2.41603 6.982 0.496029 10.571 0.127029C14.759 -0.389971 18.573 0.644029 21.639 3.67103C23.059 5.07403 24.106 6.77103 24.405 8.83903C24.705 10.906 24.331 12.825 22.76 14.376C21.713 15.483 20.367 15.926 18.872 16C17.825 16 16.778 15.926 15.731 15.63C15.4057 15.5436 15.1008 15.3933 14.834 15.188C14.384 14.893 14.31 14.523 14.609 14.007C14.759 13.785 14.909 13.637 14.983 13.49C15.507 12.53 15.507 11.57 15.207 10.537C14.684 8.98703 13.637 7.87903 12.217 7.06703C10.42 5.96003 8.401 5.59003 6.307 5.73803C4.513 5.88603 2.793 6.40203 1.297 7.43603C1.297 7.36203 1.297 7.36203 1.147 7.36203C1.222 7.36203 1.222 7.36203 1.147 7.36203H1.149Z" fill="#2A2B32"/>
<path d="M9.507 12.667C10.3 16.146 12.607 18.002 15.706 18.775C17.796 19.239 19.886 18.929 21.832 18.002C21.977 17.924 22.121 17.924 22.192 18.002C22.265 18.079 22.337 18.311 22.265 18.465C22.265 18.62 22.121 18.775 22.049 18.929C20.535 21.172 18.589 22.795 16.066 23.569C13.4 24.419 11.166 23.414 9.652 21.017C7.994 18.388 7.778 15.682 9.363 12.899C9.435 12.821 9.435 12.744 9.507 12.667Z" fill="#2A2B32"/>
</svg>
