<svg width="17" height="16" viewBox="0 0 17 16" fill="none" xmlns="http://www.w3.org/2000/svg">
<mask id="mask0_3_1420" style="mask-type:luminance" maskUnits="userSpaceOnUse" x="0" y="0" width="17" height="16">
<path d="M0.666748 0H16.6667V16H0.666748V0Z" fill="white"/>
</mask>
<g mask="url(#mask0_3_1420)">
<path d="M16.4167 8C16.4169 6.98222 16.2165 5.97438 15.8271 5.03405C15.4377 4.09372 14.8668 3.23931 14.1471 2.51963C13.4274 1.79995 12.573 1.22909 11.6327 0.839666C10.6924 0.450239 9.68453 0.249869 8.66675 0.25C7.64897 0.249869 6.64113 0.450239 5.7008 0.839666C4.76046 1.22909 3.90606 1.79995 3.18638 2.51963C2.4667 3.23931 1.89584 4.09372 1.50641 5.03405C1.11699 5.97438 0.916617 6.98222 0.916748 8C0.91711 9.84572 1.57594 11.6308 2.77476 13.0342C3.97359 14.4376 5.63375 15.3672 7.45675 15.656V10.24H5.48675V8H7.45675V6.293C7.45675 4.35 8.61175 3.277 10.3827 3.277C11.2307 3.277 12.1177 3.429 12.1177 3.429V5.335H11.1407C10.1777 5.335 9.87775 5.933 9.87775 6.545V8H12.0277L11.6837 10.24H9.87675V15.656C11.6997 15.3672 13.3599 14.4376 14.5587 13.0342C15.7576 11.6308 16.4164 9.84572 16.4167 8Z" fill="#44474E"/>
</g>
</svg>
