<svg width="24" height="24" viewBox="0 0 24 24" fill="none" xmlns="http://www.w3.org/2000/svg">
<path d="M12.092 23.264C9.56499 23.264 7.31199 22.592 5.33499 21.249C3.35699 19.905 1.88599 18.126 0.921986 15.911C0.403986 14.741 0.104986 13.398 0.0249863 11.88C-0.0550137 10.362 0.0599863 8.878 0.372986 7.427C0.685513 5.97514 1.18536 4.57005 1.85999 3.247C2.53799 1.914 3.33699 0.83 4.25699 0L4.10999 3.764C4.20799 3.639 4.51099 3.569 5.01999 3.556C5.52999 3.543 5.84199 3.612 5.95799 3.764C6.33299 3.04 7.04899 2.424 8.10799 1.915C9.16599 1.406 10.213 1.143 11.248 1.125C10.766 1.527 10.233 2.19 9.64799 3.114C9.06299 4.038 8.80199 4.768 8.86399 5.304C9.08799 5.375 9.36699 5.435 9.70099 5.484C10.036 5.534 10.317 5.567 10.545 5.585C10.773 5.603 11.076 5.621 11.455 5.639C11.835 5.656 12.061 5.669 12.132 5.679C12.266 5.723 12.309 5.927 12.26 6.289C12.21 6.649 12.074 6.987 11.851 7.299C11.7838 7.3872 11.7099 7.47011 11.63 7.547C11.527 7.65 11.275 7.808 10.873 8.023C10.449 8.24469 9.99274 8.39823 9.52099 8.478L9.72099 11.009L7.85999 10.112C7.69999 10.496 7.66599 10.86 7.75999 11.204C7.85299 11.547 8.01399 11.844 8.24099 12.094C8.46899 12.344 8.76099 12.53 9.11899 12.65C9.47599 12.77 9.83799 12.8 10.204 12.737C10.659 12.657 11.097 12.503 11.516 12.275C11.936 12.047 12.309 11.846 12.635 11.672C12.96 11.498 13.289 11.42 13.619 11.438C14.164 11.474 14.563 11.621 14.818 11.88C15.072 12.139 15.159 12.43 15.078 12.75L15.045 12.824C14.962 12.9783 14.8395 13.1077 14.69 13.199C14.5582 13.2684 14.416 13.3157 14.269 13.339C14.0633 13.3755 13.8531 13.3803 13.646 13.353C13.11 14.201 12.465 14.806 11.71 15.168C10.956 15.53 10.02 15.661 8.90399 15.563C9.53565 16.0929 10.2804 16.4709 11.081 16.668C11.871 16.86 12.623 16.887 13.338 16.748C14.0554 16.6086 14.7512 16.3746 15.407 16.052C16.035 15.7515 16.6131 15.3562 17.121 14.88C17.599 14.425 17.958 13.96 18.199 13.487C18.5814 12.6833 18.7609 11.7982 18.722 10.909C18.695 10.0454 18.5253 9.19225 18.22 8.384C17.92 7.607 17.57 7.049 17.168 6.71C17.945 7.05 18.557 7.404 19.003 7.775C19.45 8.145 19.793 8.648 20.034 9.282C20.168 7.764 19.912 6.232 19.264 4.688C18.617 3.143 17.682 1.875 16.458 0.884C18.824 1.571 20.664 2.819 21.976 4.627C23.29 6.436 23.963 8.746 24 11.558C24.0135 12.7192 23.8299 13.8742 23.457 14.974C23.0773 16.117 22.5191 17.1926 21.803 18.161C21.0791 19.1443 20.228 20.0274 19.272 20.787C18.2758 21.5721 17.1553 22.1852 15.957 22.601C14.7166 23.0421 13.4095 23.2664 12.093 23.264H12.092Z" fill="#2A2B32"/>
</svg>
