<svg width="168" height="50" viewBox="0 0 168 50" fill="none" xmlns="http://www.w3.org/2000/svg">
<g clip-path="url(#clip0_3_1249)">
<g clip-path="url(#clip1_3_1249)">
<g clip-path="url(#clip2_3_1249)">
<mask id="mask0_3_1249" style="mask-type:luminance" maskUnits="userSpaceOnUse" x="0" y="0" width="168" height="50">
<path d="M0 0H168V50H0V0Z" fill="white"/>
</mask>
<g mask="url(#mask0_3_1249)">
<path d="M162 0.0185547H6C2.68629 0.0185547 0 2.70485 0 6.01855V44.0186C0 47.3323 2.68629 50.0186 6 50.0186H162C165.314 50.0186 168 47.3323 168 44.0186V6.01855C168 2.70485 165.314 0.0185547 162 0.0185547Z" fill="#A6A6A6"/>
<path d="M161.945 1.02832H6.04401C3.28258 1.02832 1.04401 3.2669 1.04401 6.02832V44.0063C1.04401 46.7677 3.28258 49.0063 6.04401 49.0063H161.945C164.706 49.0063 166.945 46.7677 166.945 44.0063V6.02832C166.945 3.2669 164.706 1.02832 161.945 1.02832Z" fill="black"/>
<path d="M84.79 27.7361C81.865 27.7361 79.478 29.9361 79.478 32.9661C79.478 35.9981 81.862 38.1941 84.791 38.1941C87.719 38.1941 90.104 35.9741 90.104 32.9661C90.104 29.9581 87.718 27.7361 84.79 27.7361ZM84.79 36.1341C83.186 36.1341 81.802 34.8261 81.802 32.9661C81.802 31.1061 83.186 29.7961 84.791 29.7961C86.395 29.7961 87.776 31.0831 87.776 32.9661C87.776 34.8491 86.392 36.1341 84.79 36.1341ZM73.2 27.7361C70.274 27.7361 67.887 29.9361 67.887 32.9661C67.887 35.9981 70.271 38.1941 73.2 38.1941C76.128 38.1941 78.513 35.9741 78.513 32.9661C78.513 29.9581 76.125 27.7361 73.2 27.7361ZM73.2 36.1341C71.598 36.1341 70.214 34.8261 70.214 32.9661C70.214 31.1061 71.598 29.7961 73.2 29.7961C74.802 29.7961 76.188 31.0831 76.188 32.9661C76.188 34.8491 74.804 36.1341 73.2 36.1341ZM59.414 29.3421V31.5591H64.787C64.625 32.8071 64.207 33.7161 63.564 34.3511C62.782 35.1241 61.559 35.9741 59.414 35.9741C56.106 35.9741 53.518 33.3411 53.518 30.0741C53.518 26.8061 56.103 24.1741 59.414 24.1741C61.198 24.1741 62.501 24.8641 63.463 25.7551L65.047 24.1911C63.702 22.9251 61.918 21.9541 59.414 21.9541C54.884 21.9541 51.074 25.5991 51.074 30.0741C51.074 34.5491 54.884 38.1941 59.414 38.1941C61.858 38.1941 63.702 37.4001 65.148 35.9151C66.631 34.4511 67.093 32.3911 67.093 30.7261C67.093 30.2121 67.054 29.7371 66.973 29.3421H59.414ZM115.798 31.0621C115.356 29.8941 114.014 27.7361 111.268 27.7361C108.521 27.7361 106.277 29.8561 106.277 32.9661C106.277 35.8971 108.521 38.1941 111.528 38.1941C113.954 38.1941 115.356 36.7301 115.938 35.8771L114.133 34.6871C113.53 35.5581 112.711 36.1341 111.528 36.1341C110.344 36.1341 109.502 35.5991 108.961 34.5511L116.037 31.6591L115.798 31.0651V31.0621ZM108.581 32.8071C108.521 30.7851 110.165 29.7571 111.348 29.7571C112.271 29.7571 113.054 30.2131 113.314 30.8671L108.584 32.8101L108.581 32.8071ZM102.826 37.8751H105.151V22.5091H102.826V37.8751ZM99.016 28.9051H98.936C98.416 28.2911 97.411 27.7361 96.15 27.7361C93.503 27.7361 91.079 30.0331 91.079 32.9841C91.079 35.9361 93.505 38.1911 96.15 38.1911C97.414 38.1911 98.415 37.6371 98.935 37.0021H99.016V37.7551C99.016 39.7551 97.934 40.8251 96.189 40.8251C94.767 40.8251 93.882 39.8151 93.524 38.9651L91.498 39.7971C92.078 41.1841 93.622 42.8871 96.189 42.8871C98.915 42.8871 101.221 41.3021 101.221 37.4411V28.0551H99.016V28.9071V28.9051ZM96.35 36.1341C94.746 36.1341 93.404 34.8081 93.404 32.9871C93.404 31.1661 94.746 29.7991 96.35 29.7991C97.955 29.7991 99.177 31.1451 99.177 32.9871C99.177 34.8291 97.934 36.1341 96.35 36.1341ZM126.692 22.5111H121.129V37.8781H123.449V32.0571H126.692C129.266 32.0571 131.794 30.2151 131.794 27.2841C131.794 24.3531 129.264 22.5111 126.692 22.5111ZM126.752 29.9171H123.449V24.6491H126.752C127.462 24.6376 128.148 24.9085 128.658 25.4022C129.168 25.8959 129.462 26.5721 129.474 27.2821C129.462 27.9923 129.169 28.6687 128.658 29.1627C128.148 29.6566 127.462 29.9286 126.752 29.9171ZM141.102 27.7091C139.422 27.7091 137.679 28.4411 136.959 30.0591L139.021 30.9091C139.461 30.0591 140.283 29.7821 141.143 29.7821C142.345 29.7821 143.565 30.4941 143.585 31.7571V31.9171C143.164 31.6801 142.264 31.3231 141.164 31.3231C138.943 31.3231 136.681 32.5281 136.681 34.7831C136.681 36.8411 138.504 38.1641 140.543 38.1641C142.106 38.1641 142.964 37.4741 143.505 36.6611H143.585V37.8481H145.827V31.9551C145.827 29.2271 143.767 27.7061 141.104 27.7061M140.824 36.1271C140.062 36.1271 139.001 35.7521 139.001 34.8221C139.001 33.6351 140.322 33.1831 141.463 33.1831C142.483 33.1831 142.964 33.4011 143.585 33.6971C143.406 35.1201 142.165 36.1301 140.824 36.1301M153.993 28.0431L151.33 34.7061H151.249L148.488 28.0431H145.986L150.129 37.3551L147.767 42.5341H150.188L156.573 28.0431H153.991H153.993ZM133.079 37.8731H135.401V22.5071H133.079V37.8731Z" fill="white"/>
<path d="M25.783 24.878L12.533 38.768V38.775C12.7417 39.5303 13.1931 40.196 13.8178 40.6691C14.4424 41.1423 15.2054 41.3967 15.989 41.393C16.652 41.393 17.271 41.216 17.804 40.908L17.846 40.882L32.76 32.382L25.78 24.875L25.783 24.878Z" fill="#E43629"/>
<path d="M39.186 22.5114L39.173 22.5034L32.734 18.8174L25.481 25.1934L32.76 32.3814L39.163 28.7314C39.7305 28.4319 40.2058 27.9835 40.5379 27.4344C40.87 26.8853 41.0463 26.2561 41.048 25.6144C41.0479 24.9768 40.8744 24.3512 40.546 23.8046C40.2177 23.258 39.7469 22.811 39.184 22.5114" fill="#F9BD00"/>
<path d="M12.532 12.4023C12.452 12.6923 12.41 12.9983 12.41 13.3123V37.8573C12.41 38.1733 12.452 38.4773 12.532 38.7673L26.235 25.2313L12.532 12.4023Z" fill="#587DBE"/>
<path d="M25.879 25.5864L32.737 18.8144L17.84 10.2834C17.2805 9.95115 16.6417 9.77631 15.991 9.77736C15.2066 9.77483 14.4431 10.0302 13.8181 10.5042C13.1931 10.9781 12.7412 11.6444 12.532 12.4004V12.4024L25.882 25.5864H25.879Z" fill="#30A043"/>
<path d="M53.596 16.7896C52.9885 16.4498 52.4852 15.951 52.14 15.3466C51.7852 14.7287 51.6022 14.0271 51.61 13.3146C51.61 12.5716 51.786 11.8966 52.14 11.2826C52.485 10.6779 52.9884 10.1787 53.596 9.83862C54.213 9.48862 54.896 9.31462 55.648 9.31462C56.811 9.31462 57.768 9.73062 58.517 10.5656L57.684 11.3666C57.4396 11.0712 57.1357 10.8306 56.792 10.6606C56.4378 10.498 56.0516 10.4174 55.662 10.4246C55.133 10.4246 54.655 10.5426 54.22 10.7816C53.7895 11.0192 53.433 11.3712 53.19 11.7986C52.938 12.2386 52.81 12.7416 52.81 13.3116C52.81 13.8816 52.938 14.3856 53.19 14.8246C53.443 15.2646 53.786 15.6036 54.22 15.8396C54.652 16.0786 55.133 16.1996 55.661 16.1996C56.543 16.1996 57.281 15.8396 57.879 15.1176L58.735 15.9296C58.3624 16.3615 57.9013 16.7084 57.383 16.9466C56.8389 17.1924 56.2479 17.317 55.651 17.3116C54.9328 17.3202 54.2251 17.1395 53.599 16.7876L53.596 16.7896ZM60.064 9.48662H61.255V13.1996H61.32L64.407 9.48762H65.902V9.55162L62.633 13.3796L66.076 17.0796V17.1426H64.516L61.323 13.6336H61.258V17.1436H60.066V9.48362L60.064 9.48562V9.48662ZM69.743 9.48762H71.096L74.029 17.1446H72.719L72.003 15.1776H68.841L68.126 17.1446H66.816L69.738 9.48762H69.743ZM71.616 14.0856L70.75 11.7376L70.459 10.8616H70.393L70.103 11.7376L69.236 14.0856H71.618H71.616ZM78.513 13.7336C78.029 14.1546 77.433 14.3656 76.726 14.3656C76.2857 14.3715 75.8502 14.2746 75.454 14.0826C75.0839 13.9022 74.7741 13.6184 74.562 13.2656C74.347 12.9086 74.237 12.4906 74.237 12.0046V9.49262H75.439V11.8026C75.439 12.2636 75.577 12.6236 75.849 12.8756C76.123 13.1296 76.492 13.2556 76.955 13.2556C77.2532 13.2611 77.5487 13.1985 77.819 13.0725C78.0894 12.9465 78.3274 12.7605 78.515 12.5286V9.49262H79.696V17.1506H78.516V13.7386L78.513 13.7336ZM83.665 9.48762H85.017L87.95 17.1446H86.64L85.924 15.1776H82.762L82.047 17.1446H80.737L83.659 9.48762H83.665ZM85.537 14.0856L84.671 11.7376L84.38 10.8616H84.315L84.023 11.7376L83.157 14.0856H85.54H85.537ZM89.966 10.5996H87.789V9.48762H93.321V10.5996H91.154V17.1446H89.964V10.5996H89.966ZM94.556 9.48762H95.747V12.2156H97.393C97.877 12.2156 98.324 12.3126 98.735 12.5106C99.146 12.7056 99.474 12.9906 99.721 13.3666C99.965 13.7416 100.087 14.1776 100.087 14.6766C100.087 15.1746 99.965 15.6116 99.721 15.9866C99.476 16.3616 99.146 16.6466 98.735 16.8466C98.325 17.0466 97.877 17.1466 97.393 17.1466H94.556V9.48862V9.48762ZM97.479 16.0426C97.759 16.0426 98.009 15.9786 98.225 15.8506C98.4341 15.7296 98.606 15.5536 98.722 15.3416C98.8355 15.1373 98.895 14.9074 98.895 14.6736C98.895 14.4399 98.8355 14.21 98.722 14.0056C98.6047 13.7933 98.4332 13.6159 98.225 13.4916C97.9994 13.358 97.7411 13.2898 97.479 13.2946H95.747V16.0426H97.479ZM103.923 9.48762H105.104V13.7236L105.039 15.2006H105.104L108.578 9.49062H109.931V17.1476H108.75V12.8066L108.815 11.3286H108.75L105.221 17.1476H103.921V9.48962L103.923 9.48762ZM112.264 16.8236C111.777 16.4946 111.442 16.0116 111.262 15.3696L112.355 14.9406C112.448 15.3386 112.63 15.6546 112.901 15.8806C113.171 16.1096 113.491 16.2226 113.858 16.2226C114.256 16.2226 114.594 16.0996 114.875 15.8526C115.155 15.6066 115.296 15.3026 115.296 14.9386C115.296 14.7016 115.228 14.4886 115.09 14.2906C114.947 14.0895 114.753 13.9293 114.529 13.8256C114.285 13.7104 114.018 13.6517 113.748 13.6536H113.109V12.6266H113.683C114.074 12.6266 114.399 12.5206 114.659 12.3106C114.919 12.0996 115.049 11.8166 115.049 11.4606C115.052 11.3114 115.021 11.1634 114.958 11.0279C114.895 10.8925 114.803 10.773 114.687 10.6786C114.445 10.4736 114.144 10.3686 113.782 10.3686C113.457 10.3686 113.184 10.4656 112.96 10.6556C112.745 10.8364 112.584 11.0731 112.495 11.3396L111.444 10.9096C111.595 10.4896 111.871 10.1166 112.274 9.79262C112.674 9.46862 113.182 9.30762 113.795 9.30762C114.263 9.30762 114.682 9.39762 115.046 9.57962C115.41 9.76162 115.696 10.0106 115.902 10.3276C116.107 10.6456 116.211 11.0026 116.211 11.4006C116.211 12.1436 115.884 12.6906 115.226 13.0476V13.1116C115.595 13.2766 115.894 13.5146 116.125 13.8286C116.357 14.1416 116.471 14.5246 116.471 14.9746C116.471 15.4246 116.357 15.8046 116.131 16.1606C115.9 16.5202 115.576 16.8105 115.194 17.0006C114.781 17.2079 114.325 17.3128 113.863 17.3066C113.293 17.309 112.736 17.137 112.266 16.8136L112.264 16.8236Z" fill="white"/>
</g>
</g>
</g>
</g>
<defs>
<clipPath id="clip0_3_1249">
<rect width="168" height="50" fill="white"/>
</clipPath>
<clipPath id="clip1_3_1249">
<rect width="168" height="50" fill="white"/>
</clipPath>
<clipPath id="clip2_3_1249">
<rect width="168" height="50" fill="white"/>
</clipPath>
</defs>
</svg>
