<svg width="17" height="16" viewBox="0 0 17 16" fill="none" xmlns="http://www.w3.org/2000/svg">
<path d="M8.66975 4.40564C8.19812 4.40498 7.73099 4.49739 7.29513 4.67757C6.85928 4.85775 6.46326 5.12217 6.12976 5.45566C5.79627 5.78915 5.53186 6.18517 5.35168 6.62103C5.1715 7.05688 5.07909 7.52401 5.07975 7.99564C5.07896 8.46735 5.17127 8.93459 5.35139 9.37056C5.53151 9.80653 5.7959 10.2027 6.12941 10.5363C6.46292 10.8699 6.85898 11.1344 7.2949 11.3146C7.73082 11.4949 8.19803 11.5873 8.66975 11.5866C9.14138 11.5873 9.6085 11.4949 10.0444 11.3147C10.4802 11.1345 10.8762 10.8701 11.2097 10.5366C11.5432 10.2031 11.8076 9.80711 11.9878 9.37125C12.168 8.9354 12.2604 8.46827 12.2597 7.99664C12.2604 7.52501 12.168 7.05788 11.9878 6.62203C11.8076 6.18617 11.5432 5.79015 11.2097 5.45666C10.8762 5.12317 10.4802 4.85875 10.0444 4.67857C9.6085 4.49839 9.14138 4.40498 8.66975 4.40564ZM8.66975 10.3306C8.05131 10.3291 7.45867 10.0826 7.02146 9.64522C6.58426 9.20782 6.33807 8.61508 6.33675 7.99664C6.33727 7.3777 6.58332 6.78424 7.02088 6.34648C7.45845 5.90873 8.0518 5.66243 8.67075 5.66164C9.28986 5.66217 9.88347 5.90835 10.3213 6.34613C10.759 6.78391 11.0052 7.37752 11.0057 7.99664C11.0044 8.61542 10.758 9.20847 10.3203 9.64592C9.88268 10.0834 9.28853 10.3296 8.66975 10.3306ZM13.2447 4.25864C13.245 4.36868 13.2235 4.47768 13.1816 4.57941C13.1396 4.68113 13.078 4.77357 13.0002 4.85143C12.9225 4.92928 12.8301 4.99102 12.7284 5.0331C12.6268 5.07518 12.5178 5.09677 12.4077 5.09664C12.2419 5.09684 12.0798 5.04783 11.9418 4.95583C11.8038 4.86382 11.6963 4.73296 11.6327 4.57979C11.5692 4.42663 11.5525 4.25805 11.5848 4.0954C11.6171 3.93275 11.6969 3.78334 11.8142 3.66609C11.9314 3.54883 12.0809 3.469 12.2435 3.43669C12.4062 3.40439 12.5747 3.42107 12.7279 3.48462C12.8811 3.54817 13.0119 3.65574 13.1039 3.7937C13.1959 3.93166 13.2449 4.09382 13.2447 4.25964V4.25864ZM15.6227 5.10864C15.5697 3.98664 15.3127 2.99364 14.4917 2.17464C13.6727 1.35564 12.6787 1.09964 11.5577 1.04364C10.4007 0.977641 6.93575 0.977641 5.77875 1.04364C4.66075 1.09664 3.66675 1.35364 2.84475 2.17164C2.02275 2.99064 1.76975 3.98364 1.71375 5.10564C1.64775 6.26164 1.64775 9.72764 1.71375 10.8836C1.76675 12.0056 2.02375 12.9996 2.84475 13.8186C3.66675 14.6366 4.65775 14.8936 5.77875 14.9496C6.93575 15.0156 10.4007 15.0156 11.5577 14.9496C12.6787 14.8966 13.6727 14.6396 14.4917 13.8186C15.3107 12.9996 15.5667 12.0056 15.6227 10.8836C15.6887 9.72764 15.6887 6.26564 15.6227 5.10864ZM14.1297 12.1246C14.0108 12.4259 13.8312 12.6996 13.6021 12.9286C13.3729 13.1575 13.0991 13.3369 12.7977 13.4556C11.8757 13.8216 9.68775 13.7376 8.66975 13.7376C7.65075 13.7376 5.45975 13.8176 4.54175 13.4556C4.24053 13.3368 3.96696 13.1574 3.738 12.9284C3.50903 12.6994 3.32957 12.4259 3.21075 12.1246C2.84475 11.2026 2.92875 9.01464 2.92875 7.99664C2.92875 6.97764 2.84875 4.78664 3.21075 3.86864C3.32946 3.56724 3.50887 3.29347 3.73783 3.06433C3.9668 2.83519 4.24044 2.65558 4.54175 2.53664C5.46375 2.17164 7.65175 2.25664 8.66975 2.25664C9.68875 2.25664 11.8797 2.17464 12.7977 2.53664C13.0992 2.65551 13.373 2.8351 13.6021 3.06424C13.8313 3.29338 14.0109 3.56718 14.1297 3.86864C14.4947 4.79064 14.4097 6.97864 14.4097 7.99664C14.4097 9.01564 14.4947 11.2066 14.1297 12.1246Z" fill="#44474E"/>
</svg>
