<svg width="24" height="24" viewBox="0 0 24 24" fill="none" xmlns="http://www.w3.org/2000/svg">
<path d="M20.652 18.12C20.132 19.269 19.885 19.782 19.216 20.797C18.285 22.215 16.972 23.982 15.345 23.997C13.899 24.01 13.527 23.057 11.565 23.067C9.603 23.077 9.192 24.013 7.745 24C6.118 23.985 4.875 22.39 3.942 20.971C1.338 17.005 1.065 12.352 2.672 9.879C3.812 8.119 5.614 7.092 7.309 7.092C9.034 7.092 10.117 8.037 11.544 8.037C12.927 8.037 13.77 7.09 15.764 7.09C17.272 7.09 18.87 7.911 20.007 9.328C16.279 11.373 16.885 16.696 20.652 18.12ZM15.069 4.048C14.19 5.173 12.682 6.045 11.223 6C10.957 4.55 11.641 3.057 12.469 2.05C13.383 0.942 14.946 0.091 16.282 0C16.509 1.515 15.888 2.998 15.069 4.048Z" fill="#2A2B32"/>
</svg>
