<svg width="61" height="60" viewBox="0 0 61 60" fill="none" xmlns="http://www.w3.org/2000/svg">
<path d="M59.3 7.987C58.737 6.507 57.388 4.425 55.475 2.944C54.35 2.1 53.075 1.275 51.275 0.75C49.325 0.187 46.925 0 44 0H17C14.056 0 11.675 0.188001 9.744 0.769001C7.944 1.313 6.612 2.119 5.525 2.963C3.612 4.425 2.263 6.525 1.681 8.006C0.52 10.987 0.5 14.362 0.5 16.5V43.5C0.5 45.638 0.519 49.013 1.681 52.013C2.263 53.493 3.612 55.575 5.525 57.056C6.631 57.9 7.944 58.725 9.744 59.25C11.675 59.813 14.056 60 17 60H44C46.944 60 49.325 59.812 51.256 59.231C53.056 58.688 54.388 57.881 55.475 57.037C57.388 55.575 58.738 53.475 59.319 51.994C60.5 49.013 60.5 45.619 60.5 43.48V16.48C60.5 14.343 60.481 10.968 59.319 7.968L59.3 7.987ZM12.388 41.25H10.156V27.919H12.388V41.25ZM11.28 25.669C10.53 25.669 9.893 25.05 9.893 24.281C9.893 23.513 10.512 22.894 11.28 22.894C11.6503 22.8921 12.0062 23.037 12.2699 23.297C12.5336 23.5569 12.6836 23.9107 12.687 24.281C12.6805 24.6504 12.5295 25.0025 12.2665 25.2619C12.0036 25.5214 11.6494 25.6675 11.28 25.669ZM24.687 41.588C18.799 41.588 15.087 37.388 15.087 30.694C15.087 24 18.799 19.781 24.687 19.781C30.574 19.781 34.287 24 34.287 30.694C34.287 37.388 30.574 41.588 24.687 41.588ZM44.111 41.588C39.687 41.588 36.574 39.15 36.368 35.513H38.374C38.599 38.043 40.98 39.769 44.299 39.769C47.468 39.769 49.737 38.044 49.737 35.662C49.737 33.694 48.367 32.512 45.237 31.725L42.611 31.05C38.693 30.056 36.949 28.406 36.949 25.612C36.949 22.2 40.024 19.762 44.186 19.762C48.312 19.762 51.312 22.2 51.443 25.556H49.436C49.249 23.175 47.13 21.581 44.13 21.581C41.205 21.581 39.03 23.212 39.03 25.537C39.03 27.357 40.343 28.425 43.455 29.213L45.743 29.793C49.999 30.863 51.78 32.493 51.78 35.437C51.78 39.15 48.799 41.588 44.111 41.588ZM32.245 30.694C32.245 36.225 29.32 39.731 24.689 39.731C20.057 39.731 17.151 36.225 17.151 30.694C17.151 25.144 20.057 21.638 24.689 21.638C29.319 21.638 32.245 25.144 32.245 30.694Z" fill="#383C43"/>
</svg>
