<svg width="25" height="24" viewBox="0 0 25 24" fill="none" xmlns="http://www.w3.org/2000/svg">
<path fill-rule="evenodd" clip-rule="evenodd" d="M12.985 0C19.61 0.003 24.98 5.374 24.98 12C24.98 18.525 19.771 23.834 13.285 23.996L12.954 24C6.33898 23.986 0.97998 18.619 0.97998 12C0.97998 5.475 6.18898 0.166 12.675 0.004L12.985 0ZM11.98 13H8.01098C8.23498 16.529 9.64698 19.452 11.981 21.218L11.98 13ZM17.949 13.001L13.98 13V21.219C16.233 19.513 17.627 16.729 17.921 13.364L17.95 13L17.949 13.001ZM3.02898 13.001C3.20869 14.7847 3.86424 16.4874 4.9271 17.9312C5.98997 19.3749 7.42113 20.5066 9.07098 21.208C7.25598 19.088 6.18898 16.234 6.00798 13H3.02898V13.001ZM22.931 13.001H19.952C19.771 16.234 18.704 19.088 16.891 21.209C18.4906 20.5278 19.8853 19.4419 20.9378 18.0581C21.9904 16.6744 22.6646 15.0404 22.894 13.317L22.931 13.001ZM22.931 11.001C22.7513 9.21727 22.0957 7.51455 21.0329 6.07084C19.97 4.62712 18.5388 3.49541 16.889 2.794C18.704 4.914 19.771 7.768 19.952 11.002L22.931 11V11.001ZM9.06898 2.792L9.02698 2.812C7.38798 3.51807 5.96759 4.64955 4.91298 6.08922C3.85837 7.52889 3.20791 9.22438 3.02898 11H6.00798C6.18898 7.767 7.25598 4.913 9.06898 2.792ZM8.01098 11H11.98V2.782C9.72798 4.487 8.33298 7.27 8.03998 10.637L8.01098 11ZM13.981 2.782L13.98 11H17.949C17.725 7.472 16.313 4.549 13.98 2.782H13.981Z" fill="#383C43"/>
</svg>
