<svg width="17" height="16" viewBox="0 0 17 16" fill="none" xmlns="http://www.w3.org/2000/svg">
<path d="M14.6667 1H2.66375C2.11375 1 1.66675 1.453 1.66675 2.01V13.99C1.66675 14.547 2.11375 15 2.66375 15H14.6667C15.2167 15 15.6667 14.547 15.6667 13.99V2.01C15.6667 1.452 15.2167 1 14.6667 1ZM5.89775 13H3.82275V6.319H5.90075V13H5.89775ZM4.86075 5.406C4.69978 5.41064 4.53952 5.38294 4.38945 5.32455C4.23938 5.26616 4.10255 5.17825 3.98705 5.06604C3.87156 4.95382 3.77975 4.81958 3.71705 4.67125C3.65436 4.52293 3.62205 4.36353 3.62205 4.2025C3.62205 4.04147 3.65436 3.88207 3.71705 3.73375C3.77975 3.58542 3.87156 3.45118 3.98705 3.33896C4.10255 3.22675 4.23938 3.13884 4.38945 3.08045C4.53952 3.02206 4.69978 2.99436 4.86075 2.999C5.17393 3.00803 5.47126 3.13878 5.68959 3.3635C5.90792 3.58821 6.03005 3.88919 6.03005 4.2025C6.03005 4.51581 5.90792 4.81679 5.68959 5.0415C5.47126 5.26622 5.17393 5.39697 4.86075 5.406ZM13.6757 13H11.6007V9.75C11.6007 8.975 11.5857 7.978 10.5227 7.978C9.44175 7.978 9.27575 8.822 9.27575 9.694V13H7.20075V6.319H9.19175V7.231H9.21975C9.49775 6.706 10.1757 6.153 11.1857 6.153C13.2857 6.153 13.6757 7.538 13.6757 9.338V13Z" fill="#44474E"/>
</svg>
