<svg width="52" height="60" viewBox="0 0 52 60" fill="none" xmlns="http://www.w3.org/2000/svg">
<path d="M18.72 17.2828L18.88 20.9918L16.305 25.8288L12.28 33.7288L11.475 40.3388L14.373 49.6908L20.973 53.3998H30.953L40.29 46.3048L44.475 35.1798L34.817 23.4098L32.08 16.7998L18.72 17.2828Z" fill="#ECEFF1"/>
<path d="M41.849 26.4119C39.285 22.6979 37.201 20.4369 36.079 15.7549C34.958 11.0719 36.4 12.3629 35.439 8.32693C34.958 6.22693 34.156 4.77393 33.355 3.64393C32.393 2.51393 31.272 1.86793 30.631 1.70593C29.188 0.898929 25.823 -0.393072 21.656 1.86793C17.329 4.12793 17.81 8.97293 18.611 18.8219C18.611 19.4679 18.451 20.2759 18.131 20.9219C17.489 22.3749 16.367 23.6669 15.406 24.7969C14.284 26.4119 13.162 28.0269 12.361 29.8029C10.438 33.5169 8.675 38.1989 9.155 39.9759C9.957 39.8139 20.053 55.3159 20.053 55.6389C20.694 55.4769 23.419 55.4769 25.823 55.4769C29.188 55.3159 31.111 55.1539 33.836 55.7999C33.836 55.3159 33.676 54.8309 33.676 54.3469C33.676 53.3779 33.836 52.5709 33.996 51.4399C34.156 50.6329 34.316 49.8259 34.476 48.8569C32.874 50.3099 29.99 51.9249 27.266 52.4089C24.861 52.8939 20.854 52.0859 18.931 49.6639C19.091 49.6639 19.412 49.6639 19.572 49.5029C20.053 49.3409 20.534 49.1799 20.694 48.8569C21.175 48.0489 20.854 47.2419 20.534 46.7569C20.214 46.2729 17.81 44.4969 16.688 43.5279C15.566 42.5589 14.925 42.0749 14.284 41.4279L13.002 40.1379C12.682 39.8139 12.521 39.4909 12.361 39.3299C12.041 38.5219 11.88 37.5539 12.041 36.2619C12.201 34.4859 12.841 33.0319 13.643 31.4179C13.963 30.7719 14.765 29.4799 14.765 29.4799C14.765 29.4799 12.04 36.2619 13.483 38.3599C13.483 38.3599 13.643 36.2619 14.283 34.1619C14.765 32.7089 15.566 30.6099 16.528 29.4799C17.489 28.3499 19.893 24.1509 20.053 21.5679C20.053 20.4379 20.213 19.3069 20.213 18.4989C19.573 17.8539 30.791 16.2389 31.432 18.0149C31.592 18.6609 33.836 24.4749 35.118 27.5419C35.759 28.9949 36.56 30.2869 37.041 31.9019C37.521 33.6779 37.842 36.0999 37.842 38.5219C37.842 39.0069 37.842 39.8139 37.682 40.6219C38.002 40.6219 44.252 33.8399 36.881 28.1879C36.881 28.1879 41.368 30.2879 41.528 34.4849C41.688 37.8759 40.246 40.6209 39.926 41.1049C40.086 41.1049 43.291 42.5589 43.452 42.5589C44.092 42.5589 45.375 42.0749 45.375 42.0749C45.535 41.5899 46.015 40.2989 46.015 39.8149C47.138 36.0999 44.413 30.1249 41.849 26.4119Z" fill="#263238"/>
<path d="M21.438 15.9141C22.598 15.9141 23.538 14.4671 23.538 12.6841C23.538 10.8991 22.598 9.45413 21.438 9.45413C20.278 9.45413 19.338 10.8991 19.338 12.6841C19.338 14.4681 20.278 15.9141 21.438 15.9141ZM28.706 16.2371C30.222 16.2371 31.451 14.5741 31.451 12.5221C31.451 10.4701 30.222 8.80713 28.706 8.80713C27.189 8.80713 25.96 10.4701 25.96 12.5221C25.96 14.5741 27.19 16.2371 28.706 16.2371Z" fill="#ECEFF1"/>
<path d="M22.61 12.9049C22.476 11.8429 21.865 11.0449 21.246 11.1239C20.626 11.2019 20.233 12.1259 20.367 13.1879C20.501 14.2499 21.112 15.0479 21.732 14.9689C22.352 14.8909 22.745 13.9669 22.61 12.9049ZM28.544 15.2679C29.436 15.2679 30.159 14.3279 30.159 13.1679C30.159 12.0079 29.436 11.0679 28.544 11.0679C27.652 11.0679 26.929 12.0079 26.929 13.1679C26.929 14.3279 27.652 15.2679 28.544 15.2679Z" fill="#212121"/>
<path d="M50.026 48.7019C49.38 48.3789 48.249 47.8939 47.28 46.4409C46.796 45.6329 46.957 43.3709 46.15 42.4029C45.665 41.7559 45.019 42.0799 44.857 42.0799C43.404 42.4029 40.012 44.6639 37.751 42.0799C37.427 41.7569 36.943 41.2719 36.135 41.2719C35.328 41.2719 35.005 41.5949 34.682 42.2419C34.359 42.8869 34.359 43.3719 34.359 44.9869C34.359 46.2789 34.359 47.7329 34.197 48.8629C33.874 51.6089 33.39 53.2239 33.39 54.8389C33.39 56.6159 33.874 57.7469 34.52 58.2309C35.005 58.7159 35.812 59.0389 37.59 59.0389C39.366 59.0389 40.496 58.3929 41.627 57.2619C42.435 56.4539 43.081 56.1319 45.342 54.5159C47.118 53.3859 49.864 51.9319 50.349 51.4469C50.672 51.1239 51.156 50.9629 51.156 49.9939C51.156 49.1859 50.51 48.8639 50.026 48.7019ZM17.561 49.1859C15.946 46.6019 15.785 46.1169 14.654 44.5019C13.684 42.8869 11.585 39.8179 10.293 39.8179C9.32299 39.8179 8.83899 40.3029 8.19299 40.9489C7.54699 41.5949 6.90099 43.0489 5.77099 43.8559C4.80099 44.6639 2.05599 44.5019 1.40999 45.4709C0.763994 46.4409 2.05599 47.8939 2.05599 50.3169C2.05599 51.2859 1.24799 51.9319 1.08599 52.5779C0.924992 53.3859 0.763992 53.8699 1.08599 54.5159C1.73299 55.4859 2.54 55.8079 8.032 56.9389C10.939 57.5849 13.685 59.1999 15.462 59.3619C17.238 59.5229 20.307 59.3619 20.307 55.0009C20.468 52.4169 19.015 51.7709 17.561 49.1859ZM20.63 19.9519C19.66 19.3059 18.853 18.6599 18.853 17.6909C18.853 16.7209 19.499 16.3989 20.468 15.5909C20.63 15.4299 22.407 13.8149 24.183 13.8149C25.96 13.8149 28.06 14.9449 28.867 15.2679C30.321 15.5909 31.774 15.9139 31.613 17.0449C31.451 18.6599 31.29 18.9829 29.675 19.7899C28.545 20.1139 26.445 21.8899 24.991 21.8899C24.345 21.8899 23.376 21.8899 22.73 21.7289C22.245 21.5669 21.438 20.7589 20.63 19.9519Z" fill="#FFC107"/>
<path d="M20.307 18.6598C20.6735 19.0203 21.1145 19.2961 21.599 19.4678C21.922 19.6288 22.407 19.7898 22.407 19.7898H23.86C24.668 19.7898 25.799 19.4678 26.93 18.8208C28.06 18.3368 28.221 18.0138 29.029 17.6908C29.836 17.2058 30.644 16.7208 30.321 16.5608C29.998 16.3988 29.675 16.5608 28.544 17.2058C27.575 17.8518 26.768 18.1758 25.799 18.6598C25.314 18.8208 24.668 19.1448 24.183 19.1448H22.73C22.245 19.1448 21.922 18.9828 21.438 18.8208C21.114 18.6598 20.953 18.4978 20.791 18.4978C20.468 18.3368 19.822 17.6908 19.499 17.5288C19.499 17.5288 19.176 17.5288 19.338 17.6908L20.307 18.6598ZM25.152 15.1058C25.314 15.4288 25.637 15.4288 25.798 15.5908C25.8819 15.6828 25.9971 15.7402 26.121 15.7518C26.283 15.5908 26.121 15.2678 25.96 15.2678C25.96 14.9448 25.152 14.9448 25.152 15.1058ZM22.568 15.4298C22.568 15.5898 22.891 15.7518 22.891 15.5898C23.053 15.4298 23.214 15.2678 23.376 15.2678C23.699 15.1058 23.537 14.9448 23.053 14.9448C22.73 15.1058 22.73 15.2688 22.568 15.4298Z" fill="#634703"/>
<path d="M38.475 43.9V44.313C38.775 44.863 39.525 45 40.125 45C41.025 45 41.925 44.45 42.375 43.9C42.375 43.763 42.525 43.626 42.675 43.488C42.975 43.076 43.125 42.801 43.275 42.664C43.275 42.664 43.125 42.526 43.125 42.389C42.975 42.114 42.525 41.839 41.925 41.702C41.475 41.564 40.725 41.427 40.425 41.427C39.075 41.289 38.325 41.702 37.875 42.114C37.875 42.114 38.025 42.114 38.025 42.251C38.325 42.526 38.475 42.801 38.475 43.213C38.625 43.488 38.475 43.625 38.475 43.9Z" fill="#455A64"/>
</svg>
