<svg width="24" height="24" viewBox="0 0 24 24" fill="none" xmlns="http://www.w3.org/2000/svg">
<path d="M20.931 19.068C20.7277 18.9432 20.5368 18.7992 20.361 18.638C20.271 18.548 20.361 18.138 20.361 17.918C20.465 17.518 20.392 17.092 20.161 16.748C20.1122 16.7022 20.0586 16.662 20.001 16.628V15.988C19.9625 13.5215 18.9989 11.1594 17.301 9.36995C16.6315 8.73482 16.1777 7.90608 16.003 6.99995V6.76995C16.003 5.38995 16.003 2.50995 14.503 1.00095C14.1767 0.672349 13.7865 0.414087 13.3565 0.242098C12.9266 0.0701085 12.4659 -0.011961 12.003 0.000952044C9.904 0.000952044 8.504 1.00095 8.504 6.00095C8.41416 7.30615 8.00556 8.56939 7.314 9.67995C7.044 10.2 6.774 10.74 6.534 11.31C5.8599 12.8491 5.34716 14.454 5.004 16.099C4.78943 16.2242 4.60719 16.398 4.47191 16.6064C4.33662 16.8148 4.25206 17.052 4.225 17.299L4.145 17.629C3.97015 17.6936 3.78924 17.7405 3.605 17.769C3.005 17.889 2.005 18.089 2.005 18.999C2.008 19.244 2.035 19.489 2.085 19.729C2.20256 20.2762 2.17498 20.8447 2.005 21.378C1.99923 21.4211 1.99923 21.4648 2.005 21.508C2.005 22.698 3.875 22.858 5.005 22.998H5.445C5.718 23.079 5.982 23.186 6.235 23.318C6.93703 23.6979 7.70971 23.9294 8.505 23.998C8.66758 23.9963 8.82802 23.9607 8.97609 23.8936C9.12417 23.8264 9.25662 23.7291 9.365 23.608H9.415C10.2208 23.2115 11.106 23.003 12.004 22.998H15.064C15.115 23.201 15.214 23.39 15.354 23.548C15.653 23.858 16.073 24.022 16.504 23.998C16.9938 23.9839 17.4738 23.8576 17.9071 23.6288C18.3404 23.3999 18.7153 23.0746 19.003 22.678L19.323 22.348C19.678 22.078 20.083 21.878 20.513 21.758C21.233 21.498 21.973 21.228 21.973 20.498C21.973 19.768 21.403 19.388 20.933 19.068H20.931ZM13.003 3.00095C13.583 3.00095 14.003 3.62095 14.003 4.48095C14.003 5.34095 13.673 5.82095 13.193 5.93095C13.2912 5.84823 13.3686 5.7436 13.419 5.62549C13.4693 5.50738 13.4913 5.37909 13.483 5.25095C13.483 4.84095 13.263 4.50095 13.003 4.50095C12.743 4.50095 12.523 4.83095 12.523 5.25095C12.5147 5.37909 12.5367 5.50738 12.587 5.62549C12.6374 5.7436 12.7148 5.84823 12.813 5.93095C12.333 5.81095 12.003 5.23095 12.003 4.48095C12.003 3.73095 12.423 3.00095 13.003 3.00095ZM13.443 6.88095C12.728 7.43899 11.8924 7.82218 11.003 7.99995C10.4289 7.79391 9.91398 7.45061 9.503 6.99995C10.0203 6.42705 10.7343 6.07001 11.503 5.99995C12.2187 6.10808 12.8902 6.41372 13.443 6.88095ZM10.003 2.99995C10.583 2.99995 11.003 3.61995 11.003 4.47995C11.003 5.33995 10.673 5.80995 10.193 5.92995C10.2912 5.84723 10.3686 5.7426 10.419 5.62449C10.4693 5.50638 10.4913 5.37809 10.483 5.24995C10.483 4.83995 10.263 4.49995 10.003 4.49995C9.743 4.49995 9.523 4.82995 9.523 5.24995C9.51472 5.37809 9.53665 5.50638 9.58702 5.62449C9.63739 5.7426 9.7148 5.84723 9.813 5.92995C9.333 5.80995 9.003 5.23995 9.003 4.47995C9.003 3.71995 9.423 2.99995 10.003 2.99995ZM8.773 22.707C8.713 22.897 8.623 22.997 8.503 22.997C7.8469 22.919 7.21198 22.7153 6.633 22.397C6.31713 22.2235 5.98133 22.0892 5.633 21.997H5.073C3.584 21.877 3.124 21.697 3.024 21.557C3.20392 20.9044 3.22109 20.2177 3.074 19.557C3.035 19.3726 3.01159 19.1853 3.004 18.997C3.26102 18.8569 3.543 18.7686 3.834 18.737C4.19664 18.7005 4.54243 18.5656 4.834 18.347C5.03046 18.1129 5.15849 17.8291 5.204 17.527C5.334 16.997 5.384 16.997 5.454 16.997C5.754 17.347 5.992 17.747 6.154 18.177C6.47557 19.0388 7.00449 19.8081 7.694 20.417C8.08111 20.6482 8.39058 20.9895 8.58292 21.3974C8.77527 21.8052 8.84179 22.2611 8.774 22.707H8.773ZM15.143 19.707C13.673 21.187 10.733 21.087 9.433 20.887C9.15878 20.3709 8.76433 19.9284 8.283 19.597C7.74669 19.0783 7.33326 18.4462 7.073 17.747C6.86777 17.1523 6.52516 16.6144 6.073 16.177C6.40114 14.6405 6.88013 13.1403 7.503 11.698C7.713 11.168 7.983 10.698 8.243 10.148C8.608 9.47595 8.923 8.77795 9.183 8.05895C9.69394 8.53048 10.3227 8.85525 11.003 8.99895C12.003 8.74595 12.956 8.34195 13.833 7.79895C15.2931 10.5536 16.0392 13.6304 16.003 16.748C15.4676 17.6411 15.1715 18.6571 15.143 19.698V19.707ZM20.201 20.827C19.6314 20.9909 19.1031 21.2738 18.651 21.657L18.311 22.007C18.1101 22.3049 17.8414 22.551 17.5269 22.7248C17.2124 22.8986 16.8612 22.9954 16.502 23.007C16.4291 23.0153 16.3553 23.009 16.2849 22.9884C16.2145 22.9678 16.1489 22.9333 16.092 22.887C15.942 22.717 15.982 22.327 15.992 22.167L16.002 21.997C16.002 21.697 16.282 18.867 16.372 18.417C16.412 18.477 16.455 18.534 16.502 18.587C16.762 18.862 17.124 19.015 17.502 19.007H17.852C18.1146 19.0326 18.3797 19.0061 18.632 18.9288C18.8843 18.8516 19.1188 18.7252 19.322 18.557C19.332 18.855 19.449 19.139 19.652 19.357C19.875 19.568 20.12 19.756 20.382 19.917C20.762 20.167 21.002 20.337 21.022 20.447C20.7697 20.6123 20.493 20.7372 20.202 20.817L20.201 20.827Z" fill="#2A2B32"/>
</svg>
