<svg width="24" height="24" viewBox="0 0 24 24" fill="none" xmlns="http://www.w3.org/2000/svg">
<path fill-rule="evenodd" clip-rule="evenodd" d="M12 24C5.373 24 0 18.627 0 12C0 5.373 5.373 0 12 0C18.627 0 24 5.373 24 12C24 18.627 18.627 24 12 24ZM5.515 15.49C5.515 17.569 7.117 19.081 9.115 19.081C11.104 19.081 12.751 17.542 12.751 15.463C12.751 13.402 11.14 11.854 9.142 11.854C8.66419 11.8513 8.19062 11.9436 7.74878 12.1255C7.30694 12.3074 6.90564 12.5753 6.56819 12.9136C6.23074 13.2519 5.96387 13.6538 5.78307 14.0961C5.60227 14.5384 5.51115 15.0122 5.515 15.49ZM6.676 15.463C6.676 14.032 7.747 12.88 9.133 12.88C10.51 12.88 11.59 14.032 11.59 15.463C11.59 16.894 10.51 18.055 9.133 18.055C7.747 18.055 6.676 16.894 6.676 15.463ZM15.608 19.081C17.166 19.081 18.048 18.046 18.048 17.02C18.048 15.976 17.382 15.229 16.122 14.977L15.23 14.806C14.664 14.689 14.34 14.266 14.34 13.87C14.34 13.33 14.87 12.844 15.555 12.844C16.302 12.844 16.779 13.402 16.905 13.906L17.93 13.582C17.787 12.817 17.13 11.854 15.537 11.854C14.267 11.854 13.205 12.808 13.205 13.969C13.205 14.887 13.835 15.652 14.996 15.886L15.86 16.066C16.455 16.192 16.904 16.516 16.904 17.092C16.904 17.686 16.328 18.082 15.627 18.082C14.78 18.082 14.222 17.551 14.069 16.732L13 17.02C13.098 18.019 13.962 19.081 15.61 19.081H15.608ZM7.464 7.9V10H8.29V7.914C8.29 7.347 8.598 6.969 9.116 6.969C9.69 6.969 9.914 7.361 9.914 7.893V10H10.747V7.69C10.747 6.843 10.334 6.178 9.389 6.178C8.815 6.178 8.451 6.388 8.087 6.794C7.877 6.416 7.506 6.178 6.932 6.178C6.638 6.178 6.176 6.29 5.819 6.766V6.262H5.007V10H5.84V7.921C5.84 7.354 6.148 6.969 6.659 6.969C7.233 6.969 7.464 7.375 7.464 7.9ZM14.772 10V7.62C14.772 7.368 14.737 7.151 14.646 6.948C14.401 6.409 13.876 6.185 13.246 6.185C12.973 6.185 12.707 6.234 12.49 6.332C11.972 6.556 11.685 7.032 11.65 7.347L12.406 7.515C12.469 7.158 12.77 6.899 13.225 6.899C13.715 6.899 13.96 7.172 13.96 7.466C13.96 7.648 13.862 7.781 13.61 7.781H13.148C12.497 7.781 11.594 8.054 11.594 8.922V8.964C11.594 9.608 12.126 10.063 12.854 10.063C13.204 10.063 13.68 9.944 13.953 9.489V10H14.772ZM13.953 8.488C13.953 9.048 13.589 9.398 13.022 9.398C12.672 9.398 12.427 9.195 12.427 8.887C12.427 8.537 12.833 8.369 13.148 8.369H13.953V8.488ZM17.544 10.063C18.559 10.063 19.14 9.412 19.308 8.838L18.545 8.593C18.433 8.88 18.202 9.307 17.558 9.307C16.921 9.307 16.452 8.81 16.452 8.11C16.452 7.403 16.942 6.941 17.551 6.941C18.174 6.941 18.447 7.347 18.531 7.641L19.287 7.389C19.126 6.759 18.482 6.185 17.558 6.185C16.445 6.185 15.598 7.06 15.598 8.124C15.598 9.223 16.445 10.063 17.544 10.063Z" fill="#2A2B32"/>
</svg>
