<svg width="61" height="60" viewBox="0 0 61 60" fill="none" xmlns="http://www.w3.org/2000/svg">
<path fill-rule="evenodd" clip-rule="evenodd" d="M30.5 60C13.932 60 0.5 46.567 0.5 30C0.5 13.432 13.932 0 30.5 0C47.067 0 60.5 13.432 60.5 30C60.5 46.567 47.067 60 30.5 60ZM14.288 38.725C14.288 43.923 18.293 47.703 23.288 47.703C28.26 47.703 32.378 43.855 32.378 38.657C32.378 33.505 28.35 29.635 23.355 29.635C22.1605 29.6285 20.9767 29.8593 19.8722 30.3141C18.7677 30.7689 17.7645 31.4386 16.921 32.2843C16.0774 33.1299 15.4103 34.1348 14.9583 35.2405C14.5063 36.3461 14.2784 37.5306 14.288 38.725ZM17.19 38.658C17.19 35.08 19.868 32.2 23.333 32.2C26.775 32.2 29.475 35.08 29.475 38.657C29.475 42.235 26.775 45.137 23.333 45.137C19.868 45.137 17.19 42.236 17.19 38.658ZM39.52 47.702C43.415 47.702 45.62 45.115 45.62 42.55C45.62 39.94 43.955 38.073 40.805 37.442L38.575 37.015C37.16 36.722 36.35 35.665 36.35 34.675C36.35 33.325 37.675 32.11 39.388 32.11C41.255 32.11 42.448 33.505 42.762 34.765L45.325 33.955C44.967 32.043 43.325 29.635 39.342 29.635C36.168 29.635 33.512 32.02 33.512 34.922C33.512 37.218 35.088 39.13 37.99 39.715L40.15 40.165C41.637 40.48 42.76 41.29 42.76 42.73C42.76 44.215 41.32 45.205 39.567 45.205C37.45 45.205 36.055 43.877 35.673 41.83L33 42.55C33.245 45.048 35.405 47.703 39.525 47.703L39.52 47.702ZM19.16 19.75V25H21.225V19.785C21.225 18.368 21.995 17.423 23.29 17.423C24.725 17.423 25.285 18.403 25.285 19.733V25H27.368V19.225C27.368 17.108 26.335 15.445 23.972 15.445C22.538 15.445 21.627 15.97 20.717 16.985C20.193 16.04 19.265 15.445 17.83 15.445C17.095 15.445 15.94 15.725 15.048 16.915V15.655H13.018V25H15.1V19.803C15.1 18.385 15.87 17.423 17.147 17.423C18.583 17.423 19.16 18.437 19.16 19.75ZM37.43 25V19.05C37.43 18.42 37.342 17.878 37.115 17.37C36.503 16.023 35.19 15.463 33.615 15.463C32.933 15.463 32.268 15.585 31.725 15.83C30.43 16.39 29.713 17.58 29.625 18.368L31.515 18.788C31.672 17.895 32.425 17.248 33.562 17.248C34.787 17.248 35.4 17.93 35.4 18.665C35.4 19.12 35.155 19.453 34.525 19.453H33.37C31.743 19.453 29.485 20.135 29.485 22.305V22.41C29.485 24.02 30.815 25.158 32.635 25.158C33.51 25.158 34.7 24.86 35.382 23.722V25H37.43ZM35.382 21.22C35.382 22.62 34.472 23.495 33.055 23.495C32.18 23.495 31.567 22.987 31.567 22.218C31.567 21.342 32.583 20.922 33.37 20.922H35.382V21.22ZM44.36 25.158C46.897 25.158 48.35 23.53 48.77 22.095L46.863 21.483C46.583 22.2 46.005 23.268 44.395 23.268C42.802 23.268 41.63 22.025 41.63 20.275C41.63 18.508 42.855 17.353 44.378 17.353C45.935 17.353 46.618 18.367 46.828 19.103L48.718 18.473C48.315 16.898 46.705 15.463 44.395 15.463C41.613 15.463 39.495 17.65 39.495 20.31C39.495 23.057 41.612 25.158 44.36 25.158Z" fill="#383C43"/>
</svg>
