<svg width="24" height="25" viewBox="0 0 24 25" fill="none" xmlns="http://www.w3.org/2000/svg">
<path d="M4.8002 16.9801C4.8002 16.6501 5.0702 16.3801 5.4002 16.3801H7.8002C8.1302 16.3801 8.4002 16.6501 8.4002 16.9801C8.4002 17.3101 8.1302 17.5801 7.8002 17.5801H5.4002C5.0702 17.5801 4.8002 17.3101 4.8002 16.9801ZM9.6002 16.9801C9.6002 16.6501 9.8702 16.3801 10.2002 16.3801H15.0002C15.3302 16.3801 15.6002 16.6501 15.6002 16.9801C15.6002 17.3101 15.3302 17.5801 15.0002 17.5801H10.2002C9.8702 17.5801 9.6002 17.3101 9.6002 16.9801ZM1.2002 6.78013C1.2002 6.14361 1.45305 5.53316 1.90314 5.08307C2.35323 4.63298 2.96368 4.38013 3.6002 4.38013H20.4002C21.7232 4.38013 22.8002 5.45413 22.8002 6.78013V18.7801C22.8002 20.1041 21.7232 21.1801 20.4002 21.1801H3.6002C2.96376 21.1799 2.35346 20.9269 1.90343 20.4769C1.4534 20.0269 1.20046 19.4166 1.2002 18.7801V6.78013ZM2.4002 6.78013V7.98013H21.6002V6.78013C21.6002 6.46187 21.4738 6.15664 21.2487 5.9316C21.0237 5.70656 20.7185 5.58013 20.4002 5.58013H3.6002C3.28194 5.58013 2.97671 5.70656 2.75167 5.9316C2.52662 6.15664 2.4002 6.46187 2.4002 6.78013ZM2.4002 11.5801H21.6002V9.18013H2.4002V11.5801ZM2.4002 12.7801V18.7801C2.4002 19.0984 2.52662 19.4036 2.75167 19.6287C2.97671 19.8537 3.28194 19.9801 3.6002 19.9801H20.4002C21.0632 19.9801 21.6002 19.4441 21.6002 18.7801V12.7801H2.4002Z" fill="#F59A11"/>
</svg>
