<svg width="24" height="25" viewBox="0 0 24 25" fill="none" xmlns="http://www.w3.org/2000/svg">
<mask id="mask0_3_2169" style="mask-type:luminance" maskUnits="userSpaceOnUse" x="0" y="0" width="24" height="25">
<path d="M0 0.780029H24V24.78H0V0.780029Z" fill="white"/>
</mask>
<g mask="url(#mask0_3_2169)">
<path d="M18.265 6.15393C17.941 6.15393 17.635 6.22693 17.361 6.35793C17.331 5.25693 16.416 4.37993 15.265 4.37993C14.902 4.37993 14.561 4.47293 14.263 4.63393C13.99 3.79093 13.203 3.17993 12.303 3.17993C11.365 3.17993 10.577 3.79993 10.307 4.64893C9.99913 4.47472 9.6518 4.38212 9.29803 4.37993C8.14003 4.37993 7.19803 5.32193 7.19803 6.47993V14.7259L6.06403 13.2639C5.8731 13.0142 5.62741 12.8115 5.34586 12.6716C5.06431 12.5317 4.75442 12.4583 4.44003 12.4569C4.1713 12.4543 3.90473 12.5052 3.65591 12.6067C3.40709 12.7083 3.18101 12.8584 2.99088 13.0484C2.80075 13.2383 2.6504 13.4642 2.54861 13.713C2.44681 13.9617 2.39562 14.2282 2.39803 14.4969C2.39803 14.9529 2.54303 15.4149 2.83803 15.8019L6.07603 20.0579C6.58782 20.7757 7.26362 21.3609 8.0472 21.7647C8.83079 22.1686 9.69949 22.3795 10.581 22.3799H14.398C17.706 22.3799 20.398 19.6839 20.398 16.3719V8.25793C20.397 7.97948 20.3409 7.70398 20.233 7.44729C20.1251 7.19059 19.9674 6.95778 19.7692 6.76223C19.571 6.56669 19.336 6.41227 19.0779 6.30788C18.8197 6.20348 18.5435 6.15116 18.265 6.15393ZM19.165 16.3719C19.1678 17.0034 19.0456 17.6292 18.8055 18.2133C18.5653 18.7974 18.212 19.3281 17.7658 19.7751C17.3196 20.222 16.7895 20.5762 16.2058 20.8173C15.6221 21.0584 14.9965 21.1817 14.365 21.1799H10.58C9.88676 21.1785 9.20386 21.0114 8.58826 20.6926C7.97265 20.3737 7.44217 19.9124 7.04103 19.3469L3.79203 15.0749C3.66442 14.908 3.59489 14.704 3.59403 14.4939C3.59403 13.9939 3.99003 13.6539 4.42903 13.6539C4.69303 13.6539 4.94703 13.7769 5.10903 13.9889L6.41903 15.7129C6.65303 16.0209 7.01503 16.1959 7.37803 16.1959C7.52803 16.1959 8.39803 16.0979 8.39803 15.2159L8.39703 15.1789V6.47993C8.39703 5.98393 8.80103 5.57993 9.26303 5.57993C9.72603 5.57993 10.129 5.98393 10.129 6.47993L10.201 12.1799C10.201 12.5119 10.465 12.7799 10.797 12.7799C10.9566 12.7802 11.1098 12.7172 11.223 12.6047C11.3362 12.4923 11.4002 12.3395 11.401 12.1799L11.364 6.47393C11.364 6.46993 11.364 6.47793 11.364 6.47393V5.27993C11.3749 5.04858 11.4745 4.83031 11.6421 4.67043C11.8097 4.51056 12.0324 4.42137 12.264 4.42137C12.4956 4.42137 12.7184 4.51056 12.8859 4.67043C13.0535 4.83031 13.1531 5.04858 13.164 5.27993L13.166 12.1799C13.1749 12.3331 13.2419 12.477 13.3535 12.5823C13.465 12.6876 13.6126 12.7463 13.766 12.7463C13.9194 12.7463 14.067 12.6876 14.1786 12.5823C14.2901 12.477 14.3572 12.3331 14.366 12.1799L14.364 6.47993C14.3749 6.24858 14.4745 6.03031 14.6421 5.87043C14.8097 5.71056 15.0324 5.62137 15.264 5.62137C15.4956 5.62137 15.7184 5.71056 15.8859 5.87043C16.0535 6.03031 16.1531 6.24858 16.164 6.47993V12.1649C16.164 12.3241 16.2272 12.4767 16.3398 12.5892C16.4523 12.7017 16.6049 12.7649 16.764 12.7649C16.9232 12.7649 17.0758 12.7017 17.1883 12.5892C17.3008 12.4767 17.364 12.3241 17.364 12.1649V8.25793C17.364 7.75993 17.768 7.35493 18.264 7.35493C18.76 7.35493 19.164 7.75993 19.164 8.25793V16.3719H19.165Z" fill="#F59A11"/>
</g>
</svg>
