<svg width="24" height="25" viewBox="0 0 24 25" fill="none" xmlns="http://www.w3.org/2000/svg">
<mask id="mask0_3_2249" style="mask-type:luminance" maskUnits="userSpaceOnUse" x="0" y="0" width="24" height="25">
<path d="M0 0.780029H24V24.78H0V0.780029Z" fill="white"/>
</mask>
<g mask="url(#mask0_3_2249)">
<path d="M15.7669 12.0109C15.8984 12.0917 16.007 12.2048 16.0824 12.3394C16.1578 12.474 16.1976 12.6256 16.1979 12.7799C16.1977 12.9341 16.1581 13.0857 16.0828 13.2203C16.0076 13.3549 15.8992 13.468 15.7679 13.5489L10.3679 16.8489C10.2317 16.9323 10.0757 16.9777 9.916 16.9803C9.75631 16.9829 9.59884 16.9428 9.45995 16.8639C9.31981 16.7866 9.203 16.673 9.12173 16.5351C9.04046 16.3972 8.99772 16.24 8.99795 16.0799V9.44593C8.99795 9.15393 9.17495 8.85393 9.45995 8.69593C9.73995 8.53493 10.0899 8.50893 10.3669 8.71093L15.7669 12.0109ZM10.1979 10.0159V15.5439L14.7249 12.7459L10.1979 10.0159ZM2.39795 12.7799C2.39795 10.2339 3.40937 7.79206 5.20972 5.99171C7.01007 4.19136 9.45187 3.17993 11.9979 3.17993C13.2586 3.17993 14.507 3.42824 15.6717 3.91069C16.8364 4.39313 17.8947 5.10026 18.7862 5.99171C19.6776 6.88315 20.3847 7.94144 20.8672 9.10617C21.3496 10.2709 21.5979 11.5192 21.5979 12.7799C21.5979 14.0406 21.3496 15.289 20.8672 16.4537C20.3847 17.6184 19.6776 18.6767 18.7862 19.5682C17.8947 20.4596 16.8364 21.1667 15.6717 21.6492C14.507 22.1316 13.2586 22.3799 11.9979 22.3799C9.45187 22.3799 7.01007 21.3685 5.20972 19.5682C3.40937 17.7678 2.39795 15.326 2.39795 12.7799ZM11.9979 21.1799C14.2259 21.1799 16.3626 20.2949 17.938 18.7195C19.5134 17.1441 20.3984 15.0074 20.3984 12.7794C20.3984 10.5515 19.5134 8.41478 17.938 6.83938C16.3626 5.26398 14.2259 4.37893 11.9979 4.37893C9.77 4.37893 7.6333 5.26398 6.0579 6.83938C4.4825 8.41478 3.59745 10.5515 3.59745 12.7794C3.59745 15.0074 4.4825 17.1441 6.0579 18.7195C7.6333 20.2949 9.77 21.1799 11.9979 21.1799Z" fill="#F59A11"/>
</g>
</svg>
