<svg width="32" height="32" viewBox="0 0 32 32" fill="none" xmlns="http://www.w3.org/2000/svg">
<mask id="mask0_3_348" style="mask-type:luminance" maskUnits="userSpaceOnUse" x="0" y="0" width="32" height="32">
<path d="M0 0H32V32H0V0Z" fill="white"/>
</mask>
<g mask="url(#mask0_3_348)">
<path d="M31.695 27.37C32.045 27.645 32.1 28.105 31.83 28.495C31.6984 28.6617 31.5062 28.7695 31.2954 28.7948C31.0845 28.8201 30.8723 28.7609 30.705 28.63L0.305014 4.62804C0.145674 4.4944 0.0446382 4.30396 0.0233205 4.0971C0.00200279 3.89023 0.0620792 3.68319 0.190816 3.51986C0.319553 3.35654 0.506831 3.24976 0.712956 3.22216C0.919081 3.19457 1.12785 3.24833 1.29501 3.37204L31.695 27.37ZM30.275 16.615C29.765 17.845 28.86 19.465 27.58 21.065L26.325 20.075C27.505 18.555 28.34 17.105 28.8 16C28.135 14.355 26.695 11.955 24.54 10C22.385 8.00004 19.52 6.40004 16 6.40004C14.01 6.40004 12.23 6.91004 10.67 7.71504L9.30501 6.64004C11.2 5.54004 13.44 4.75504 16 4.75504C20.04 4.75504 23.275 6.64204 25.63 8.83004C27.97 11 29.535 13.555 30.275 15.385C30.3567 15.5798 30.3988 15.7889 30.3988 16C30.3988 16.2112 30.3567 16.4203 30.275 16.615ZM4.42001 10.935L5.67501 11.925C4.68626 13.1694 3.84092 14.5213 3.15501 15.955C3.86701 17.6 5.30501 20 7.46001 22C9.61501 24 12.48 25.6 15.955 25.6C17.99 25.6 19.77 25.09 21.33 24.285L22.695 25.36C20.755 26.46 18.56 27.2 15.955 27.2C11.96 27.2 8.72501 25.36 6.37001 23.17C4.03101 20.955 2.46701 18.4 1.72301 16.615C1.64182 16.4202 1.60001 16.2112 1.60001 16C1.60001 15.7889 1.64182 15.5799 1.72301 15.385C2.23601 14.155 3.14001 12.535 4.42001 10.935ZM9.55501 15.955C9.55501 15.685 9.62501 15.38 9.66501 15.075L11.21 16.295C11.36 18.81 13.405 20.8 15.955 20.8C16.28 20.8 16.56 20.775 16.825 20.73L18.37 21.945C17.6019 22.251 16.7818 22.4056 15.955 22.4C12.465 22.4 9.55501 19.535 9.55501 15.955ZM22.4 15.955C22.4 16.315 22.375 16.62 22.335 16.925L20.79 15.705C20.7144 14.4738 20.1722 13.3176 19.2739 12.4722C18.3755 11.6268 17.1886 11.1558 15.955 11.155C15.72 11.155 15.44 11.225 15.175 11.27L13.63 10.055C14.365 9.76004 15.165 9.55504 15.955 9.55504C19.535 9.55504 22.4 12.465 22.4 15.955Z" fill="#F59A11"/>
</g>
</svg>
