<svg width="24" height="25" viewBox="0 0 24 25" fill="none" xmlns="http://www.w3.org/2000/svg">
<mask id="mask0_3_2262" style="mask-type:luminance" maskUnits="userSpaceOnUse" x="0" y="0" width="24" height="25">
<path d="M0 0.780029H24V24.78H0V0.780029Z" fill="white"/>
</mask>
<g mask="url(#mask0_3_2262)">
<path d="M15.086 6.99793C14.9269 6.88646 14.743 6.81554 14.5502 6.79131C14.3575 6.76709 14.1617 6.7903 13.98 6.85893L10.38 8.20893C9.911 8.38093 9.6 8.83493 9.6 9.32993V12.0939C9.31421 11.9771 9.00873 11.916 8.7 11.9139C7.542 11.9139 6.6 12.7209 6.6 13.7139C6.6 14.7059 7.542 15.5139 8.7 15.5139C9.858 15.5139 10.8 14.7059 10.8 13.7139V9.32993L14.4 7.98093V10.8959C14.1146 10.7777 13.8089 10.7166 13.5 10.7159C12.342 10.7159 11.4 11.5219 11.4 12.5159C11.4 13.5079 12.342 14.3159 13.5 14.3159C14.658 14.3159 15.6 13.5079 15.6 12.5159V7.97993C15.6 7.58593 15.405 7.21893 15.086 6.99793ZM8.7 14.3139C8.22 14.3139 7.8 14.0339 7.8 13.7139C7.8 13.3939 8.22 13.1139 8.7 13.1139C9.18 13.1139 9.6 13.3939 9.6 13.7139C9.6 14.0339 9.18 14.3139 8.7 14.3139ZM13.5 13.1139C13.02 13.1139 12.6 12.8339 12.6 12.5139C12.6 12.1939 13.02 11.9139 13.5 11.9139C13.98 11.9139 14.4 12.1939 14.4 12.5139C14.4 12.8339 13.98 13.1139 13.5 13.1139ZM19.8 21.1799H4.2C3.87 21.1799 3.6 21.4499 3.6 21.7799C3.6 22.1099 3.87 22.3799 4.2 22.3799H19.8C19.8788 22.3799 19.9568 22.3644 20.0296 22.3343C20.1024 22.3041 20.1685 22.2599 20.2243 22.2042C20.28 22.1485 20.3242 22.0823 20.3543 22.0095C20.3845 21.9367 20.4 21.8587 20.4 21.7799C20.4 21.7011 20.3845 21.6231 20.3543 21.5503C20.3242 21.4775 20.28 21.4114 20.2243 21.3557C20.1685 21.3 20.1024 21.2558 20.0296 21.2256C19.9568 21.1955 19.8788 21.1799 19.8 21.1799ZM21.6 3.17993H2.4C1.76348 3.17993 1.15303 3.43279 0.702944 3.88288C0.252856 4.33296 0 4.94341 0 5.57993L0 17.5799C0 18.2165 0.252856 18.8269 0.702944 19.277C1.15303 19.7271 1.76348 19.9799 2.4 19.9799H21.6C22.2365 19.9799 22.847 19.7271 23.2971 19.277C23.7471 18.8269 24 18.2165 24 17.5799V5.57993C24 4.94341 23.7471 4.33296 23.2971 3.88288C22.847 3.43279 22.2365 3.17993 21.6 3.17993ZM22.8 17.5799C22.8 18.2419 22.262 18.7799 21.6 18.7799H2.4C1.739 18.7799 1.2 18.2419 1.2 17.5799V5.57993C1.2 4.91893 1.738 4.37993 2.4 4.37993H21.6C22.262 4.37993 22.8 4.91893 22.8 5.57993V17.5799Z" fill="#F59A11"/>
</g>
</svg>
