<svg width="24" height="25" viewBox="0 0 24 25" fill="none" xmlns="http://www.w3.org/2000/svg">
<g clip-path="url(#clip0_3_2186)">
<mask id="mask0_3_2186" style="mask-type:luminance" maskUnits="userSpaceOnUse" x="0" y="0" width="24" height="25">
<path d="M0 0.780029H24V24.78H0V0.780029Z" fill="white"/>
</mask>
<g mask="url(#mask0_3_2186)">
<path d="M11.9731 14.5501C11.6578 14.5494 11.3455 14.6111 11.054 14.7314C10.7626 14.8518 10.4979 15.0286 10.2749 15.2516C10.052 15.4746 9.87536 15.7395 9.7551 16.0309C9.63483 16.3224 9.57332 16.6348 9.57411 16.9501C9.57411 18.2801 10.6441 19.3501 11.9741 19.3501C12.2894 19.3507 12.6017 19.2891 12.893 19.1687C13.1844 19.0483 13.4491 18.8715 13.6719 18.6485C13.8948 18.4255 14.0713 18.1606 14.1915 17.8691C14.3117 17.5777 14.373 17.2653 14.3721 16.9501C14.3721 15.6201 13.3321 14.5501 11.9731 14.5501ZM12.0031 18.1801C11.3431 18.1801 10.8031 17.6401 10.8031 16.9801C10.8031 16.3201 11.3431 15.7801 12.0031 15.7801C12.6631 15.7801 13.2031 16.3201 13.2031 16.9801C13.2031 17.6401 12.6631 18.1801 12.0031 18.1801ZM22.9601 8.39008C23.0801 8.51008 23.2401 8.58008 23.3901 8.58008C23.5401 8.58008 23.6901 8.53008 23.8001 8.42008C23.8574 8.36566 23.9033 8.30048 23.9354 8.22826C23.9674 8.15604 23.9848 8.07821 23.9867 7.99923C23.9885 7.92026 23.9748 7.84169 23.9462 7.76805C23.9176 7.6944 23.8748 7.62713 23.8201 7.57008C20.8221 4.40008 16.5141 2.58008 11.9851 2.58008C7.45711 2.58008 3.17011 4.40008 0.170114 7.57008C0.0600487 7.68545 0.000322079 7.83981 0.00407281 7.99922C0.00592998 8.07815 0.0233153 8.15594 0.0552363 8.22815C0.0871572 8.30036 0.132989 8.36558 0.190114 8.42008C0.247239 8.47458 0.314539 8.51729 0.388171 8.54578C0.461803 8.57427 0.540326 8.58798 0.619256 8.58612C0.778662 8.58237 0.930049 8.51545 1.04011 8.40008C3.81911 5.46008 7.80711 3.78008 12.0051 3.78008C16.2041 3.78008 20.1921 5.46008 22.9711 8.39008H22.9611H22.9601Z" fill="#F59A11"/>
<path d="M17.814 10.28C16.0895 9.14532 14.0704 8.54043 12.006 8.54004C9.08804 8.54004 6.38904 9.67004 4.37904 11.72C4.14904 11.99 4.14904 12.37 4.37904 12.6C4.61904 12.83 4.99904 12.83 5.22904 12.6C7.01004 10.78 9.40704 9.78004 11.996 9.78004C13.726 9.78004 15.355 10.25 16.784 11.08C16.854 11 16.914 10.92 16.994 10.85C17.244 10.62 17.524 10.43 17.824 10.28H17.814ZM22.799 15.74V13.95C22.799 12.33 21.459 10.95 19.799 10.95C19.489 10.95 19.2 11.01 18.91 11.1C18.49 11.23 18.11 11.45 17.79 11.74C17.18 12.29 16.801 13.08 16.801 13.94V15.74C16.141 15.74 15.601 16.31 15.601 16.97V21.77C15.601 22.43 16.141 22.97 16.801 22.97H22.8C23.46 22.97 24 22.43 24 21.77V16.97C24 16.31 23.459 15.74 22.799 15.74ZM17.991 13.95C17.991 13.39 18.271 12.88 18.691 12.54C18.991 12.3 19.37 12.15 19.78 12.15H19.79C20.78 12.15 21.59 12.99 21.59 13.95V15.75H17.99L17.991 13.95ZM22.799 21.78H16.8V16.98H22.8L22.799 21.78Z" fill="#F59A11"/>
</g>
</g>
<defs>
<clipPath id="clip0_3_2186">
<rect width="24" height="24" fill="white" transform="translate(0 0.780029)"/>
</clipPath>
</defs>
</svg>
