<svg width="32" height="32" viewBox="0 0 32 32" fill="none" xmlns="http://www.w3.org/2000/svg">
<path d="M26.525 7.38596L16.925 3.38596C16.6333 3.26254 16.3197 3.19927 16.003 3.19996C15.689 3.19996 15.375 3.25996 15.08 3.38496L5.48 7.38496C4.587 7.75596 4 8.62996 4 9.55596C4 22.47 13.47 28.8 15.995 28.8C18.46 28.8 28 22.565 28 9.55496C28 8.62996 27.415 7.75596 26.525 7.38596ZM26.395 9.61596C26.395 20.88 18.085 27.2 16.005 27.2C13.865 27.155 5.6 20.81 5.6 9.59996C5.59993 9.44275 5.64618 9.28901 5.73297 9.15794C5.81976 9.02687 5.94324 8.92427 6.088 8.86296L15.688 4.86296C15.7867 4.82121 15.8928 4.79946 16 4.79896C16.104 4.79896 16.208 4.81896 16.306 4.86296L25.906 8.86296C26.365 9.05496 26.395 9.48996 26.395 9.61496V9.61596ZM20 12.265C19.895 12.2646 19.7909 12.285 19.6937 12.325C19.5966 12.3649 19.5083 12.4237 19.434 12.498L14.665 17.269L12.565 15.169C12.4128 15.0311 12.2134 14.957 12.0081 14.962C11.8029 14.9671 11.6074 15.0509 11.4622 15.1961C11.3169 15.3413 11.2331 15.5368 11.2281 15.7421C11.223 15.9474 11.2971 16.1468 11.435 16.299L14.101 18.966C14.2519 19.1135 14.454 19.1969 14.665 19.199C14.865 19.199 15.075 19.121 15.231 18.965L20.566 13.63C20.6767 13.5177 20.7518 13.3752 20.782 13.2204C20.8122 13.0657 20.7961 12.9054 20.7357 12.7598C20.6753 12.6141 20.5733 12.4895 20.4424 12.4015C20.3116 12.3134 20.1577 12.266 20 12.265Z" fill="#F59A11"/>
</svg>
