<svg width="32" height="32" viewBox="0 0 32 32" fill="none" xmlns="http://www.w3.org/2000/svg">
<path d="M20 12.8C20 15.01 18.21 16.8 16 16.8C13.79 16.8 12 15.01 12 12.8C12 10.59 13.79 8.79995 16 8.79995C18.21 8.79995 20 10.59 20 12.8ZM16 15.2C16.3152 15.1999 16.6274 15.1377 16.9186 15.017C17.2098 14.8963 17.4744 14.7195 17.6973 14.4965C17.9201 14.2736 18.0969 14.0089 18.2175 13.7176C18.338 13.4264 18.4001 13.1142 18.4 12.799C18.3999 12.4837 18.3378 12.1716 18.2171 11.8804C18.0964 11.5891 17.9195 11.3245 17.6966 11.1017C17.4736 10.8788 17.2089 10.7021 16.9177 10.5815C16.6264 10.4609 16.3142 10.3989 15.999 10.399C15.3623 10.3991 14.7518 10.6521 14.3017 11.1024C13.8516 11.5527 13.5989 12.1633 13.599 12.8C13.5991 13.4366 13.8522 14.0471 14.3024 14.4972C14.7527 14.9473 15.3633 15.2001 16 15.2ZM25.6 12.8C25.6 17.17 19.75 24.95 17.185 28.16C17.0436 28.3389 16.8636 28.4835 16.6584 28.583C16.4531 28.6824 16.228 28.7341 16 28.7341C15.7719 28.7341 15.5469 28.6824 15.3416 28.583C15.1364 28.4835 14.9563 28.3389 14.815 28.16C12.205 24.95 6.39999 17.17 6.39999 12.8C6.39999 10.2539 7.41142 7.81208 9.21177 6.01173C11.0121 4.21138 13.4539 3.19995 16 3.19995C18.5461 3.19995 20.9879 4.21138 22.7882 6.01173C24.5886 7.81208 25.6 10.2539 25.6 12.8ZM16 4.79995C11.58 4.79995 7.99999 8.37995 7.99999 12.8C7.99999 13.58 8.27199 14.65 8.82799 15.97C9.37399 17.265 10.14 18.67 11.007 20.075C12.71 22.84 14.73 25.485 16 27.08C17.27 25.485 19.29 22.84 20.995 20.075C21.86 18.67 22.625 17.265 23.17 15.97C23.73 14.65 24 13.58 24 12.8C24 8.37995 20.42 4.79995 16 4.79995Z" fill="#F59A11"/>
</svg>
