<svg width="24" height="25" viewBox="0 0 24 25" fill="none" xmlns="http://www.w3.org/2000/svg">
<mask id="mask0_3_2275" style="mask-type:luminance" maskUnits="userSpaceOnUse" x="0" y="0" width="24" height="25">
<path d="M0 0.780029H24V24.78H0V0.780029Z" fill="white"/>
</mask>
<g mask="url(#mask0_3_2275)">
<path d="M21.6 7.97993H16.8V9.17993H21.6C22.262 9.17993 22.8 9.71893 22.8 10.3799V17.5799C22.8 18.2419 22.262 18.7799 21.6 18.7799H19.2V20.6389L15.915 18.7799H12C11.338 18.7799 10.8 18.2419 10.8 17.5799V16.3799H9.6V17.5799C9.60106 18.207 9.85071 18.8081 10.2942 19.2514C10.7377 19.6947 11.3389 19.9441 11.966 19.9449L15.6 19.9799L19.684 22.2909C19.7505 22.3415 19.83 22.3724 19.9132 22.3801C19.9965 22.3878 20.0802 22.3719 20.1548 22.3342C20.2295 22.2966 20.2921 22.2387 20.3354 22.1672C20.3787 22.0958 20.4011 22.0135 20.4 21.9299V19.9789H21.6C22.922 19.9789 24 18.9009 24 17.6129V10.3459C24 9.05593 22.924 7.97993 21.6 7.97993ZM15.6 12.7799V5.54593C15.6 4.25793 14.524 3.17993 13.2 3.17993H2.4C1.078 3.17993 0 4.25793 0 5.54593V12.7459C0 14.1039 1.078 15.1799 2.4 15.1799H3.6V17.1299C3.59986 17.2132 3.6229 17.2949 3.66653 17.3659C3.71017 17.4368 3.77268 17.4943 3.84708 17.5317C3.92148 17.5692 4.00484 17.5852 4.08783 17.578C4.17082 17.5708 4.25017 17.5407 4.317 17.4909L8.4 15.1799L13.2 15.1769C13.836 15.1769 14.446 14.9245 14.896 14.475C15.346 14.0256 15.5992 13.4159 15.6 12.7799ZM8.085 13.9799L4.8 15.8399V13.9799H2.4C1.739 13.9799 1.2 13.4399 1.2 12.7799V5.57993C1.2 4.91893 1.738 4.37993 2.4 4.37993H13.2C13.862 4.37993 14.4 4.91893 14.4 5.57993V12.7799C14.4 13.4419 13.861 13.9799 13.2 13.9799H8.085Z" fill="#F59A11"/>
</g>
</svg>
