<svg width="24" height="25" viewBox="0 0 24 25" fill="none" xmlns="http://www.w3.org/2000/svg">
<g clip-path="url(#clip0_3_2092)">
<mask id="mask0_3_2092" style="mask-type:luminance" maskUnits="userSpaceOnUse" x="0" y="0" width="24" height="25">
<path d="M0 0.780029H24V24.78H0V0.780029Z" fill="white"/>
</mask>
<g mask="url(#mask0_3_2092)">
<path d="M7.2001 10.3799V7.97993C7.2001 6.70689 7.70581 5.48599 8.60599 4.58582C9.50616 3.68564 10.7271 3.17993 12.0001 3.17993C13.2731 3.17993 14.494 3.68564 15.3942 4.58582C16.2944 5.48599 16.8001 6.70689 16.8001 7.97993V10.3799H17.4001C18.1957 10.3799 18.9588 10.696 19.5214 11.2586C20.084 11.8212 20.4001 12.5843 20.4001 13.3799V19.3799C20.4001 20.1756 20.084 20.9386 19.5214 21.5013C18.9588 22.0639 18.1957 22.3799 17.4001 22.3799H6.6001C5.80445 22.3799 5.04139 22.0639 4.47878 21.5013C3.91617 20.9386 3.6001 20.1756 3.6001 19.3799V13.3799C3.6001 12.5843 3.91617 11.8212 4.47878 11.2586C5.04139 10.696 5.80445 10.3799 6.6001 10.3799H7.2001ZM8.4001 10.3799H15.6001V7.97993C15.6001 7.50717 15.507 7.03904 15.3261 6.60227C15.1451 6.1655 14.88 5.76864 14.5457 5.43435C14.2114 5.10006 13.8145 4.83488 13.3778 4.65397C12.941 4.47305 12.4729 4.37993 12.0001 4.37993C11.5266 4.37714 11.0572 4.46836 10.6191 4.64829C10.1811 4.82822 9.78315 5.09329 9.4483 5.42813C9.11345 5.76298 8.84839 6.16095 8.66846 6.59898C8.48853 7.03701 8.39731 7.50639 8.4001 7.97993V10.3799ZM4.8001 19.3799C4.8001 19.6163 4.84666 19.8504 4.93711 20.0688C5.02757 20.2871 5.16016 20.4856 5.32731 20.6527C5.49445 20.8199 5.69288 20.9525 5.91127 21.0429C6.12965 21.1334 6.36372 21.1799 6.6001 21.1799H17.4001C17.6365 21.1799 17.8705 21.1334 18.0889 21.0429C18.3073 20.9525 18.5057 20.8199 18.6729 20.6527C18.84 20.4856 18.9726 20.2871 19.0631 20.0688C19.1535 19.8504 19.2001 19.6163 19.2001 19.3799V13.3799C19.2001 12.9025 19.0105 12.4447 18.6729 12.1071C18.3353 11.7696 17.8775 11.5799 17.4001 11.5799H6.6001C6.12271 11.5799 5.66487 11.7696 5.32731 12.1071C4.98974 12.4447 4.8001 12.9025 4.8001 13.3799V19.3799Z" fill="#F59A11"/>
</g>
</g>
<defs>
<clipPath id="clip0_3_2092">
<rect width="24" height="24" fill="white" transform="translate(0 0.780029)"/>
</clipPath>
</defs>
</svg>
