<svg width="32" height="32" viewBox="0 0 32 32" fill="none" xmlns="http://www.w3.org/2000/svg">
<mask id="mask0_3_4718" style="mask-type:luminance" maskUnits="userSpaceOnUse" x="0" y="0" width="32" height="32">
<path d="M0 0H32V32H0V0Z" fill="white"/>
</mask>
<g mask="url(#mask0_3_4718)">
<path d="M15.9671 18.3599C15.5467 18.359 15.1302 18.4411 14.7416 18.6016C14.353 18.7621 13.9999 18.9978 13.7026 19.2952C13.4054 19.5925 13.1698 19.9456 13.0094 20.3343C12.8491 20.723 12.767 21.1395 12.7681 21.5599C12.7681 23.3329 14.1941 24.7599 15.9671 24.7599C16.3875 24.7607 16.8038 24.6785 17.1923 24.5179C17.5808 24.3573 17.9338 24.1216 18.2309 23.8243C18.528 23.527 18.7635 23.1739 18.9238 22.7853C19.0842 22.3967 19.1662 21.9803 19.1651 21.5599C19.1651 19.7869 17.7791 18.3599 15.9671 18.3599ZM16.0071 23.1999C15.1271 23.1999 14.4071 22.4799 14.4071 21.5999C14.4071 20.7199 15.1271 19.9999 16.0071 19.9999C16.8871 19.9999 17.6071 20.7199 17.6071 21.5999C17.6071 22.4799 16.8871 23.1999 16.0071 23.1999ZM30.6141 10.1469C30.7741 10.3069 30.9871 10.3999 31.1871 10.3999C31.3871 10.3999 31.5871 10.3329 31.7341 10.1869C31.8104 10.1142 31.8716 10.0272 31.9142 9.93084C31.9568 9.83447 31.98 9.73064 31.9824 9.6253C31.9848 9.51996 31.9664 9.41517 31.9283 9.31695C31.8901 9.21873 31.833 9.129 31.7601 9.0529C27.7621 4.8269 22.0181 2.3999 15.9801 2.3999C9.94309 2.3999 4.2251 4.8269 0.227096 9.0529C0.154409 9.12907 0.0974362 9.21881 0.0594303 9.31699C0.0214243 9.41518 0.00312937 9.51989 0.00559012 9.62514C0.00805087 9.7304 0.0312191 9.83414 0.0737719 9.93044C0.116325 10.0267 0.177429 10.1137 0.253596 10.1864C0.329762 10.2591 0.4195 10.3161 0.517685 10.3541C0.61587 10.3921 0.720579 10.4104 0.825834 10.4079C0.931089 10.4054 1.03483 10.3823 1.13113 10.3397C1.22743 10.2972 1.31441 10.2361 1.3871 10.1599C5.0901 6.2399 10.4081 3.9999 16.0061 3.9999C21.6041 3.9999 26.9211 6.2399 30.6261 10.1469H30.6141Z" fill="#F59A11"/>
<path d="M23.7502 12.6669C21.4508 11.154 18.7587 10.3475 16.0062 10.3469C12.1152 10.3469 8.51617 11.8529 5.83717 14.5869C5.53117 14.9469 5.53117 15.4529 5.83717 15.7599C5.98878 15.9076 6.19204 15.9902 6.40367 15.9902C6.61529 15.9902 6.81855 15.9076 6.97017 15.7599C9.34317 13.3329 12.5412 11.9999 15.9932 11.9999C18.2992 11.9999 20.4712 12.6269 22.3772 13.7329C22.4702 13.6269 22.5502 13.5199 22.6572 13.4269C22.9902 13.1199 23.3632 12.8669 23.7632 12.6669H23.7502ZM30.4002 19.9469V17.5599C30.4002 15.3999 28.6152 13.5599 26.4022 13.5599C25.9892 13.5599 25.6022 13.6399 25.2162 13.7599C24.6625 13.9318 24.1532 14.223 23.7242 14.6129C23.3109 14.9822 22.9798 15.4342 22.7524 15.9397C22.525 16.4451 22.4064 16.9927 22.4042 17.5469V19.9469C21.5242 19.9469 20.8042 20.7069 20.8042 21.5869V27.9869C20.8042 28.8669 21.5242 29.5869 22.4042 29.5869H30.4012C31.2812 29.5869 32.0002 28.8669 32.0002 27.9869V21.5869C32.0002 20.7069 31.2802 19.9469 30.4002 19.9469ZM23.9902 17.5599C23.9902 16.8129 24.3632 16.1329 24.9232 15.6799C25.3232 15.3599 25.8292 15.1599 26.3762 15.1599H26.3892C27.7092 15.1599 28.7882 16.2799 28.7882 17.5599V19.9599H23.9902V17.5599ZM30.4002 27.9999H22.4042V21.5999H30.4012L30.4002 27.9999Z" fill="#F59A11"/>
</g>
</svg>
