<svg width="32" height="32" viewBox="0 0 32 32" fill="none" xmlns="http://www.w3.org/2000/svg">
<path d="M20.4 10.4C20.4 9.73495 20.935 9.19995 21.6 9.19995C22.265 9.19995 22.7999 9.73495 22.7999 10.4C22.7999 11.065 22.265 11.6 21.6 11.6C20.935 11.6 20.4 11.065 20.4 10.4ZM20 20.8C19.525 20.8 19.06 20.765 18.605 20.69L17.205 22.005C17.025 22.275 16.72 22.4 16.4 22.4H14.4V24.4C14.4 25.065 13.865 25.6 13.2 25.6H11.2V27.6C11.2 28.265 10.665 28.8 9.99995 28.8H4.39995C3.73795 28.8 3.19995 28.265 3.19995 27.6V22.8C3.19995 22.48 3.32595 22.175 3.55095 21.95L11.445 14.06C11.2844 13.385 11.2022 12.6938 11.2 12C11.2 10.2595 11.7161 8.55809 12.683 7.11094C13.65 5.66378 15.0243 4.53587 16.6323 3.86982C18.2403 3.20376 20.0097 3.02949 21.7167 3.36904C23.4238 3.70859 24.9918 4.54671 26.2225 5.77742C27.4532 7.00812 28.2913 8.57613 28.6309 10.2832C28.9704 11.9902 28.7961 13.7596 28.1301 15.3676C27.464 16.9756 26.3361 18.3499 24.889 19.3169C23.4418 20.2838 21.7404 20.8 20 20.8ZM20 19.2C21.424 19.2 22.816 18.7777 24.0001 17.9865C25.1841 17.1954 26.1069 16.0709 26.6519 14.7553C27.1968 13.4396 27.3394 11.992 27.0616 10.5953C26.7838 9.19864 26.0981 7.91572 25.0911 6.90879C24.0842 5.90185 22.8013 5.21611 21.4046 4.9383C20.0079 4.66049 18.5603 4.80307 17.2446 5.34802C15.929 5.89297 14.8045 6.81582 14.0134 7.99985C13.2222 9.18388 12.8 10.5759 12.8 12C12.8 12.585 12.87 13.105 12.955 13.685L13.205 14.56L4.79995 22.965V27.2H9.59995V24H12.8V20.8H16.235L18.05 18.98L18.86 19.11C19.23 19.17 19.61 19.2 20 19.2Z" fill="#F59A11"/>
</svg>
