<svg width="30" height="26" viewBox="0 0 30 26" fill="none" xmlns="http://www.w3.org/2000/svg">
<path d="M15.8 24.2H3.79998C3.58986 24.2 3.3818 24.1586 3.18768 24.0782C2.99356 23.9978 2.81718 23.8799 2.6686 23.7313C2.52003 23.5828 2.40218 23.4064 2.32177 23.2123C2.24136 23.0181 2.19998 22.8101 2.19998 22.6V3.39997C2.19998 2.97563 2.36855 2.56866 2.6686 2.2686C2.96866 1.96855 3.37563 1.79998 3.79998 1.79998H10.2V7.39997C10.2 8.03649 10.4528 8.64694 10.9029 9.09703C11.353 9.54712 11.9635 9.79998 12.6 9.79998H18.725C19.32 9.79998 19.8 9.31998 19.8 8.72398C19.7998 7.87558 19.4628 7.06195 18.863 6.46197L13.535 1.13697C13.2385 0.839577 12.8863 0.603629 12.4985 0.442665C12.1107 0.281701 11.6949 0.198887 11.275 0.198975H3.79998C2.95128 0.198975 2.13735 0.536116 1.53723 1.13623C0.937118 1.73635 0.599976 2.55028 0.599976 3.39897V22.599C0.599976 23.4477 0.937118 24.2616 1.53723 24.8617C2.13735 25.4618 2.95128 25.799 3.79998 25.799H15.8C16.0121 25.799 16.2156 25.7147 16.3657 25.5647C16.5157 25.4146 16.6 25.2111 16.6 24.999C16.6 24.7868 16.5157 24.5833 16.3657 24.4333C16.2156 24.2833 16.0121 24.199 15.8 24.199V24.2ZM11.8 1.90297C12.024 1.98197 12.233 2.09597 12.406 2.26797L17.731 7.59298C17.8989 7.76309 18.0237 7.97086 18.095 8.19898H12.6C12.16 8.19898 11.8 7.83897 11.8 7.39897V1.90297ZM27 16.2V13C27 11.236 25.564 9.79998 23.8 9.79998C22.9516 9.80103 22.1383 10.1385 21.5384 10.7384C20.9385 11.3383 20.601 12.1516 20.6 13V16.2C19.9635 16.2 19.353 16.4528 18.9029 16.9029C18.4528 17.353 18.2 17.9635 18.2 18.6V23.4C18.2 24.0365 18.4528 24.6469 18.9029 25.097C19.353 25.5471 19.9635 25.8 20.6 25.8H27C27.6365 25.8 28.2469 25.5471 28.697 25.097C29.1471 24.6469 29.4 24.0365 29.4 23.4V18.6C29.4 17.9635 29.1471 17.353 28.697 16.9029C28.2469 16.4528 27.6365 16.2 27 16.2ZM22.2 13C22.2 12.5756 22.3685 12.1687 22.6686 11.8686C22.9687 11.5685 23.3756 11.4 23.8 11.4C24.2243 11.4 24.6313 11.5685 24.9313 11.8686C25.2314 12.1687 25.4 12.5756 25.4 13V16.2H22.2V13ZM27.8 23.4C27.8 23.505 27.7793 23.6091 27.7391 23.7061C27.6989 23.8032 27.6399 23.8914 27.5657 23.9657C27.4914 24.0399 27.4032 24.0989 27.3061 24.1391C27.2091 24.1793 27.105 24.2 27 24.2H20.6C20.3878 24.2 20.1843 24.1157 20.0343 23.9657C19.8843 23.8156 19.8 23.6121 19.8 23.4V18.6C19.8 18.3878 19.8843 18.1843 20.0343 18.0343C20.1843 17.8843 20.3878 17.8 20.6 17.8H27C27.2121 17.8 27.4156 17.8843 27.5657 18.0343C27.7157 18.1843 27.8 18.3878 27.8 18.6V23.4Z" fill="#F59A11"/>
</svg>
