<svg width="25" height="24" viewBox="0 0 25 24" fill="none" xmlns="http://www.w3.org/2000/svg">
<path fill-rule="evenodd" clip-rule="evenodd" d="M22.09 20H2.09003C1.55959 20 1.05089 19.7893 0.675813 19.4142C0.300741 19.0391 0.0900269 18.5304 0.0900269 18V3C0.0900269 2.46957 0.300741 1.96086 0.675813 1.58579C1.05089 1.21071 1.55959 1 2.09003 1H22.09C22.6205 1 23.1292 1.21071 23.5042 1.58579C23.8793 1.96086 24.09 2.46957 24.09 3V18C24.09 18.5304 23.8793 19.0391 23.5042 19.4142C23.1292 19.7893 22.6205 20 22.09 20ZM6.09003 21H18.09C18.3552 21 18.6096 21.1054 18.7971 21.2929C18.9847 21.4804 19.09 21.7348 19.09 22C19.09 22.2652 18.9847 22.5196 18.7971 22.7071C18.6096 22.8946 18.3552 23 18.09 23H6.09003C5.82481 23 5.57046 22.8946 5.38292 22.7071C5.19538 22.5196 5.09003 22.2652 5.09003 22C5.09003 21.7348 5.19538 21.4804 5.38292 21.2929C5.57046 21.1054 5.82481 21 6.09003 21ZM15.003 3.75C15.126 4.57 14.79 5.374 14.346 5.943C13.871 6.553 13.053 7.024 12.263 7C12.119 6.214 12.49 5.406 12.938 4.86C13.433 4.26 14.279 3.8 15.003 3.75ZM16.593 15.015C16.955 14.465 17.089 14.187 17.37 13.565C15.33 12.794 15.002 9.91 17.02 8.803C16.405 8.035 15.54 7.591 14.723 7.591C14.133 7.591 13.73 7.743 13.363 7.882C13.057 7.998 12.777 8.103 12.437 8.103C12.069 8.103 11.743 7.987 11.402 7.866C11.027 7.732 10.632 7.591 10.143 7.591C9.22503 7.591 8.24903 8.148 7.63103 9.101C6.76103 10.441 6.90903 12.961 8.31903 15.109C8.82403 15.879 9.49803 16.742 10.379 16.749C10.745 16.753 10.988 16.645 11.251 16.528C11.553 16.394 11.881 16.248 12.448 16.244C13.018 16.241 13.341 16.389 13.638 16.525C13.895 16.643 14.133 16.752 14.496 16.748C15.377 16.74 16.088 15.783 16.593 15.015Z" fill="#2A2B32"/>
</svg>
