<svg width="312" height="313" viewBox="0 0 312 313" fill="none" xmlns="http://www.w3.org/2000/svg">
<g clip-path="url(#clip0_3_2120)">
<g clip-path="url(#clip1_3_2120)">
<g clip-path="url(#clip2_3_2120)">
<mask id="mask0_3_2120" style="mask-type:luminance" maskUnits="userSpaceOnUse" x="0" y="0" width="312" height="313">
<path d="M294.586 0.780029H17.414C7.79651 0.780029 0 8.57654 0 18.194V295.366C0 304.984 7.79651 312.78 17.414 312.78H294.586C304.203 312.78 312 304.984 312 295.366V18.194C312 8.57654 304.203 0.780029 294.586 0.780029Z" fill="white"/>
</mask>
<g mask="url(#mask0_3_2120)">
<path d="M294.586 0.780029H17.414C7.79651 0.780029 0 8.57654 0 18.194V295.366C0 304.984 7.79651 312.78 17.414 312.78H294.586C304.203 312.78 312 304.984 312 295.366V18.194C312 8.57654 304.203 0.780029 294.586 0.780029Z" fill="#F8F8F8"/>
<path d="M76.8494 197.522C96.5184 197.522 112.463 181.577 112.463 161.908C112.463 142.239 96.5184 126.294 76.8494 126.294C57.1794 126.294 41.2344 142.239 41.2344 161.908C41.2344 181.577 57.1804 197.522 76.8494 197.522Z" fill="black"/>
<path d="M44.2252 317.008L31.0252 341.682C28.1372 343.316 24.9862 344.129 21.8822 344.129C18.8595 344.132 15.8828 343.39 13.2156 341.968C10.5484 340.546 8.27305 338.488 6.59119 335.976L-5.70381 317.766C-10.3695 310.832 -13.2849 302.87 -14.2005 294.563C-15.116 286.256 -14.0044 277.851 -10.9608 270.067L11.1892 213.417C13.1533 208.39 15.891 203.701 19.3032 199.52L20.2252 277.182C19.6522 283.964 44.2182 317.008 44.2182 317.008H44.2252Z" fill="#FF7059"/>
<path d="M141.363 317.008H23.1091C16.3191 317.008 10.9691 311.201 11.5421 304.419L19.3151 199.512C25.8651 190.222 44.2991 181.233 53.7291 175.116C55.7421 173.885 71.5291 163.898 78.8371 160.275C83.9171 157.023 87.7641 161.8 97.2251 166.468C113.545 176.371 126.041 182.688 139.815 192.846L141.82 209.871L142.168 212.805L142.586 216.32L143.012 219.921L146.806 252.205L152.945 304.419C153.518 311.201 148.169 317.008 141.379 317.008H141.363Z" fill="#FF7059"/>
<path d="M144.426 317.008C136.018 317.008 121.85 307.028 114.309 301.206C112.226 299.603 109.207 301.09 109.207 303.722V317.008H144.426Z" fill="#E55041"/>
<path d="M104.699 210.576H87.4343C86.5933 210.576 85.7605 210.741 84.9835 211.063C84.2064 211.384 83.5004 211.856 82.9058 212.45C82.3111 213.045 81.8395 213.751 81.5178 214.528C81.1962 215.305 81.0309 216.138 81.0313 216.979V256.077C81.0334 257.774 81.7087 259.402 82.9091 260.602C84.1094 261.802 85.7368 262.477 87.4343 262.479H104.699C106.397 262.477 108.024 261.802 109.224 260.602C110.425 259.402 111.1 257.774 111.102 256.077V216.979C111.103 216.138 110.937 215.305 110.616 214.528C110.294 213.751 109.822 213.045 109.228 212.45C108.633 211.856 107.927 211.384 107.15 211.063C106.373 210.741 105.54 210.576 104.699 210.576Z" fill="white"/>
<path d="M114.068 234.561H89.2002C87.4502 234.561 86.3123 236.373 87.0473 237.944L89.8733 243.914C90.7884 245.862 92.378 247.413 94.3483 248.28L112.349 256.27C112.875 256.51 113.472 256.626 114.068 256.626C115.195 256.624 116.275 256.176 117.071 255.379C117.868 254.583 118.316 253.503 118.318 252.376V238.819C118.316 237.692 117.868 236.613 117.071 235.816C116.275 235.019 115.195 234.571 114.068 234.569V234.561Z" fill="#824F36"/>
<path d="M144.416 317.007H133.167L119.509 305.077L118.364 237.696C118.34 236.342 119.827 235.498 120.973 236.218L146.777 252.221C144.865 235.947 141.683 208.888 139.802 192.861C154.945 203.313 167.674 248.644 174.502 264.833C185.806 291.629 171.374 317.093 144.401 317.015L144.416 317.007Z" fill="#FF7059"/>
<path d="M105.565 175.588L96.4913 193.519C91.9473 202.477 79.1643 202.461 74.6353 193.519L65.5853 175.588C64.4649 173.39 64.0407 170.903 64.3693 168.458L70.5093 122.105H100.641L104.295 149.737L105.325 157.51L106.773 168.458C107.099 170.902 106.678 173.388 105.565 175.588ZM66.3703 122.973C66.0978 122.248 65.6848 121.585 65.1551 121.02C64.6253 120.456 63.9893 120.001 63.2834 119.683C62.5776 119.365 61.8159 119.19 61.0421 119.167C60.2683 119.145 59.4976 119.275 58.7743 119.551C58.0497 119.826 57.3863 120.241 56.822 120.772C56.2578 121.303 55.8038 121.94 55.486 122.647C55.1682 123.354 54.9928 124.117 54.9699 124.891C54.9469 125.666 55.0769 126.438 55.3523 127.162C56.5063 130.212 60.8723 134.246 63.9153 133.092C66.9583 131.939 67.5313 126.024 66.3693 122.981L66.3703 122.973Z" fill="#824F36"/>
<path d="M98.8232 152.734C86.0262 157.589 71.6802 151.48 66.3002 138.883L57.7832 118.916C51.9232 105.12 58.6812 89.2251 72.6952 83.9061C86.7082 78.5871 102.332 85.9891 107.085 100.203L113.968 120.79C118.319 133.774 111.646 147.872 98.8322 152.742L98.8232 152.734Z" fill="#824F36"/>
<path d="M105.326 157.511C104.181 157.891 102.113 158.603 100.511 158.897C96.7271 159.579 92.8373 159.389 89.1381 158.34C84.9725 157.186 81.1718 154.984 78.0981 151.945C77.1451 151.016 78.3061 149.452 79.4831 150.087C81.1396 150.979 82.8896 151.685 84.7011 152.192C87.9658 153.112 91.3817 153.369 94.7473 152.947C98.113 152.526 101.36 151.435 104.297 149.738L105.326 157.511Z" fill="#663C2B"/>
<path d="M105.988 97.2381C100.7 92.1671 92.7881 90.9361 86.2381 94.2181C79.4951 97.6021 72.8281 102.897 71.1721 106.738L63.2441 125.032C63.0556 125.452 62.7114 125.783 62.2841 125.954C62.0726 126.035 61.8473 126.073 61.621 126.067C61.3947 126.061 61.1719 126.009 60.9654 125.917C60.7589 125.824 60.5728 125.691 60.4177 125.526C60.2627 125.361 60.1418 125.167 60.0621 124.955L56.8411 116.47C51.7231 102.983 58.0101 87.5831 71.3881 82.1561C78.3561 79.3221 85.7971 79.6941 92.1301 82.5431C95.2937 83.9604 98.146 85.9889 100.523 88.5122C102.9 91.0354 104.755 94.0036 105.981 97.2461H105.996L105.988 97.2381ZM103.395 118.328C104.169 120.473 105.106 122.083 106.066 121.735C107.026 121.386 106.716 119.551 105.942 117.415C105.168 115.278 104.239 113.683 103.279 114.023C102.319 114.364 102.628 116.207 103.395 118.328ZM99.3381 110.942C99.0947 110.9 98.8642 110.803 98.6643 110.658C98.4644 110.513 98.3004 110.324 98.1851 110.106C97.9939 109.737 97.9558 109.307 98.0789 108.91C98.202 108.513 98.4766 108.18 98.8431 107.984C98.9741 107.907 102.249 106.227 106.546 107.117C107.406 107.295 107.948 108.116 107.77 108.983C107.682 109.393 107.436 109.751 107.085 109.98C106.734 110.209 106.307 110.29 105.896 110.206C102.753 109.541 100.329 110.764 100.314 110.787C100.004 110.95 99.6561 110.988 99.3381 110.95V110.934V110.942ZM84.3261 120.867C83.3661 121.216 83.6761 123.051 84.4421 125.172C85.2161 127.317 86.1521 128.919 87.1121 128.579C88.0721 128.238 87.7631 126.395 86.9891 124.251C86.2151 122.106 85.2861 120.519 84.3261 120.86V120.867ZM85.3801 115.928C85.1631 116.168 84.8771 116.361 84.5361 116.446C84.5061 116.439 81.8731 117.089 79.9221 119.644C79.6662 119.975 79.2899 120.192 78.8751 120.247C78.4602 120.302 78.0404 120.191 77.7071 119.938C77.5423 119.812 77.4041 119.654 77.3005 119.475C77.1969 119.295 77.1298 119.096 77.1032 118.891C77.0766 118.685 77.091 118.476 77.1456 118.276C77.2001 118.075 77.2938 117.888 77.4211 117.724C80.1001 114.24 83.6771 113.38 83.8311 113.357C84.2365 113.266 84.6613 113.339 85.0136 113.559C85.3658 113.78 85.6171 114.13 85.7131 114.534C85.7674 114.775 85.7657 115.026 85.708 115.266C85.6502 115.506 85.538 115.73 85.3801 115.92V115.935V115.928Z" fill="black"/>
<path d="M98.8831 136.832C98.8831 136.832 93.4401 139.735 88.1211 136.638" stroke="black" stroke-width="1.324" stroke-miterlimit="10" stroke-linecap="round"/>
<path d="M133.211 293.642C124.617 276.446 135.975 240.747 135.975 240.747L150.228 204.506C153.969 195.006 160.732 187.001 169.475 181.728L203.308 161.343H252.634L285.585 181.194C294.868 186.789 301.902 195.454 305.467 205.69L323.622 257.803C326.238 265.309 326.882 273.36 325.494 281.186C324.106 289.012 320.732 296.351 315.694 302.499C309.776 310.485 302.069 316.973 293.191 321.444C284.314 325.914 274.512 328.243 264.572 328.242H189.868C166.711 328.242 145.103 315.831 134.147 295.43C133.83 294.834 133.52 294.238 133.218 293.642H133.211Z" fill="#C3DCF4"/>
<path d="M240.805 124.506H215.116L202.969 161.343L224.67 197.623C226.157 200.108 229.757 200.108 231.243 197.623L252.96 161.343L240.813 124.506H240.805ZM247.078 117.553C247.351 116.828 247.764 116.165 248.293 115.601C248.823 115.036 249.459 114.582 250.165 114.264C250.87 113.946 251.632 113.77 252.406 113.748C253.179 113.725 253.95 113.855 254.673 114.131C255.398 114.406 256.061 114.821 256.626 115.352C257.19 115.883 257.644 116.52 257.962 117.227C258.279 117.934 258.455 118.697 258.478 119.471C258.501 120.246 258.371 121.018 258.095 121.742C256.941 124.792 252.575 128.826 249.532 127.672C246.489 126.519 245.916 120.604 247.078 117.561V117.553Z" fill="#FFBD6E"/>
<path d="M256.157 112.211C256.002 112.644 255.839 113.063 255.654 113.488L255.266 114.394L252.727 120.356L249.591 127.688L247.129 133.463C246.55 134.824 245.853 136.133 245.047 137.373C242.699 140.99 239.466 143.949 235.655 145.967C232.447 147.685 228.907 148.694 225.276 148.926C221.644 149.158 218.005 148.609 214.604 147.314C212.482 146.512 210.477 145.429 208.643 144.093C208.476 143.978 208.313 143.857 208.155 143.729C199.701 137.272 195.923 125.946 199.468 115.362L206.351 94.7761C206.715 93.6991 207.141 92.6621 207.621 91.6631C213.466 79.5161 227.797 73.5621 240.742 78.4781C254.322 83.6421 261.089 98.7401 256.149 112.219L256.157 112.211Z" fill="#FFBD6E"/>
<path d="M235.666 145.967C235.624 146.183 235.512 146.379 235.348 146.525C232.275 149.564 228.474 151.766 224.308 152.92C220.609 153.969 216.719 154.159 212.935 153.477C211.587 153.23 207.987 152.208 206.16 151.658L208.661 144.094C208.494 143.979 208.331 143.857 208.173 143.73V143.699C208.359 143.792 208.529 143.892 208.7 143.985C214.382 147.098 222.086 148.631 228.752 146.773C230.564 146.265 232.314 145.559 233.97 144.667C234.93 144.148 235.875 145.093 235.673 145.967H235.666Z" fill="#E59A48"/>
<path d="M207.449 91.818C212.737 86.747 220.65 85.516 227.199 88.798C233.943 92.182 240.609 97.478 242.266 101.318L250.194 119.612C250.38 120.031 250.736 120.371 251.154 120.534C251.365 120.615 251.591 120.653 251.817 120.647C252.043 120.64 252.266 120.589 252.473 120.496C252.679 120.404 252.865 120.271 253.02 120.106C253.175 119.941 253.296 119.747 253.376 119.535L256.597 111.05C261.714 97.563 255.428 82.164 242.049 76.736C235.081 73.903 227.641 74.274 221.308 77.123C218.144 78.5402 215.292 80.5688 212.915 83.0921C210.538 85.6153 208.683 88.5835 207.457 91.826H207.441L207.449 91.818ZM210.629 112.413C210.079 114.464 209.336 116.036 208.414 115.788C207.493 115.541 207.64 113.806 208.19 111.755C208.739 109.719 209.483 108.147 210.396 108.395C211.31 108.642 211.17 110.377 210.629 112.413ZM213.81 105.212C214.251 105.096 214.63 104.786 214.816 104.345C214.965 103.986 214.966 103.584 214.82 103.224C214.673 102.865 214.391 102.578 214.034 102.425C213.902 102.363 210.728 101.054 206.795 102.231C206.61 102.286 206.438 102.378 206.288 102.5C206.138 102.622 206.014 102.772 205.922 102.942C205.831 103.112 205.773 103.299 205.754 103.491C205.734 103.683 205.753 103.877 205.808 104.062C205.863 104.247 205.955 104.419 206.077 104.569C206.199 104.719 206.349 104.843 206.519 104.935C206.689 105.026 206.875 105.084 207.068 105.103C207.26 105.123 207.454 105.104 207.639 105.049C210.511 104.182 212.857 105.127 212.88 105.15C213.182 105.274 213.508 105.289 213.802 105.22V105.204L213.81 105.212ZM228.556 113.264C229.478 113.512 229.331 115.246 228.789 117.282C228.247 119.318 227.496 120.905 226.574 120.658C225.653 120.41 225.8 118.676 226.35 116.624C226.9 114.572 227.643 113.016 228.564 113.264H228.556Z" fill="black"/>
<path d="M227.516 107.558C227.732 107.767 228.019 107.921 228.344 107.976C228.375 107.968 230.868 108.363 232.889 110.585C233.019 110.728 233.176 110.844 233.351 110.926C233.526 111.008 233.716 111.055 233.909 111.064C234.102 111.073 234.294 111.044 234.476 110.978C234.658 110.912 234.825 110.812 234.968 110.682C235.111 110.551 235.226 110.394 235.308 110.22C235.391 110.045 235.438 109.855 235.446 109.662C235.455 109.469 235.426 109.276 235.361 109.095C235.295 108.913 235.194 108.746 235.064 108.603C232.3 105.576 228.901 105.057 228.754 105.041C228.369 104.988 227.979 105.09 227.669 105.323C227.358 105.557 227.153 105.904 227.097 106.288C227.028 106.76 227.198 107.225 227.516 107.55V107.565V107.558Z" fill="black"/>
<path d="M233.797 123.073C233.797 123.073 228.447 131.59 216.168 129.546" stroke="black" stroke-width="1.324" stroke-miterlimit="10" stroke-linecap="round"/>
<path d="M171.561 276.129C169.577 273.606 168.35 270.57 168.025 267.376C167.701 264.182 168.29 260.961 169.726 258.09L175.068 247.405C175.897 245.756 178.382 246.345 178.382 248.187V279.226C177.08 279.295 175.781 279.049 174.594 278.51C173.407 277.971 172.367 277.155 171.561 276.129ZM284.2 276.129C286.185 273.606 287.412 270.57 287.736 267.376C288.061 264.182 287.471 260.961 286.035 258.09L280.693 247.405C279.864 245.756 277.379 246.345 277.379 248.187V279.226C278.681 279.295 279.981 279.049 281.168 278.51C282.355 277.971 283.395 277.155 284.2 276.129Z" fill="#9BC2DE"/>
<path d="M273.96 197.523H181.936C179.737 197.523 177.628 198.396 176.073 199.951C174.519 201.506 173.645 203.615 173.645 205.814V258.26C173.645 259.349 173.859 260.427 174.276 261.433C174.692 262.439 175.303 263.353 176.073 264.123C176.843 264.893 177.757 265.504 178.763 265.921C179.769 266.337 180.847 266.552 181.936 266.552H273.96C275.049 266.552 276.128 266.338 277.134 265.922C278.14 265.505 279.054 264.895 279.825 264.124C280.595 263.354 281.205 262.44 281.622 261.434C282.038 260.428 282.253 259.349 282.252 258.26V205.814C282.252 203.615 281.378 201.506 279.823 199.951C278.268 198.396 276.159 197.523 273.96 197.523Z" fill="white"/>
<path d="M227.954 237.519C229.397 237.5 230.775 236.913 231.788 235.885C232.802 234.858 233.37 233.473 233.37 232.03C233.37 230.586 232.802 229.201 231.788 228.174C230.775 227.146 229.397 226.56 227.954 226.54C227.233 226.54 226.519 226.681 225.853 226.957C225.187 227.232 224.582 227.637 224.072 228.147C223.562 228.656 223.158 229.262 222.882 229.928C222.606 230.594 222.465 231.308 222.465 232.029C222.465 232.75 222.606 233.464 222.882 234.131C223.157 234.797 223.562 235.402 224.072 235.912C224.581 236.422 225.187 236.826 225.853 237.102C226.519 237.378 227.233 237.52 227.954 237.519Z" fill="#BCBCBC"/>
<path d="M284.922 229.892H257.475C255.563 229.892 254.301 231.882 255.114 233.616L258.226 240.213C259.235 242.359 260.983 244.068 263.151 245.028L283.017 253.839C283.732 254.156 284.514 254.289 285.293 254.227C286.072 254.165 286.823 253.909 287.478 253.483C288.133 253.057 288.672 252.474 289.044 251.787C289.417 251.101 289.613 250.332 289.613 249.55V234.592C289.613 233.348 289.119 232.155 288.239 231.275C287.359 230.395 286.166 229.901 284.922 229.9V229.892ZM168.661 228.777C167.417 228.778 166.224 229.272 165.344 230.152C164.464 231.032 163.97 232.225 163.969 233.469V248.427C163.969 249.209 164.165 249.978 164.538 250.665C164.91 251.352 165.449 251.935 166.104 252.361C166.759 252.787 167.51 253.042 168.289 253.104C169.069 253.166 169.851 253.033 170.565 252.716L190.432 243.905C192.6 242.945 194.348 241.235 195.356 239.09L198.468 232.493C199.281 230.759 198.027 228.769 196.107 228.769H168.661V228.777Z" fill="#FFBD6E"/>
</g>
</g>
</g>
</g>
<defs>
<clipPath id="clip0_3_2120">
<rect width="312" height="312" fill="white" transform="translate(0 0.780029)"/>
</clipPath>
<clipPath id="clip1_3_2120">
<rect width="312" height="312" fill="white" transform="translate(0 0.780029)"/>
</clipPath>
<clipPath id="clip2_3_2120">
<rect width="312" height="312" fill="white" transform="translate(0 0.780029)"/>
</clipPath>
</defs>
</svg>
