<svg width="312" height="313" viewBox="0 0 312 313" fill="none" xmlns="http://www.w3.org/2000/svg">
<g clip-path="url(#clip0_3_2203)">
<g clip-path="url(#clip1_3_2203)">
<mask id="mask0_3_2203" style="mask-type:luminance" maskUnits="userSpaceOnUse" x="0" y="0" width="312" height="313">
<path d="M294.586 0.780029H17.414C7.79651 0.780029 0 8.57654 0 18.194V295.366C0 304.984 7.79651 312.78 17.414 312.78H294.586C304.203 312.78 312 304.984 312 295.366V18.194C312 8.57654 304.203 0.780029 294.586 0.780029Z" fill="white"/>
</mask>
<g mask="url(#mask0_3_2203)">
<path d="M294.586 0.780029H17.414C7.79651 0.780029 0 8.57654 0 18.194V295.366C0 304.984 7.79651 312.78 17.414 312.78H294.586C304.203 312.78 312 304.984 312 295.366V18.194C312 8.57654 304.203 0.780029 294.586 0.780029Z" fill="#F8F8F8"/>
<path d="M48.6265 288.959C48.4407 288.494 48.2549 288.045 48.0691 287.58C42.8855 274.027 44.3904 259.223 51.3391 246.263L73.3184 205.251C78.149 194.585 86.9185 185.603 98.2519 179.669L122.572 166.95C125.433 165.442 134.263 162.979 137.608 162.979L168.484 162.263C171.847 162.263 180.246 162.979 189.904 166.95L214.205 179.669C225.539 185.587 234.308 194.585 239.139 205.251L264.797 261.885C264.871 262.046 264.945 262.19 265.001 262.35C274.885 284.805 255.377 308.816 227.564 308.816H111.592C111.592 308.816 90.8201 311.478 72.3895 307.645C61.3348 305.335 52.4724 298.23 48.6265 288.975V288.959Z" fill="#4680E1"/>
<path d="M154 347.78C131.512 347.78 111.162 338.619 96.494 323.815C89.6469 316.92 84.0447 308.804 80.0306 299.818C75.5058 289.731 73 278.551 73 266.78C73 259.358 73.9975 252.168 75.8729 245.337C76.8545 241.746 78.0755 238.258 79.5279 234.883C82.329 228.339 85.976 222.234 90.3252 216.712C97.7309 207.303 107.18 199.578 118.001 194.207C128.846 188.813 141.064 185.78 154 185.78C162.395 185.78 170.487 187.057 178.1 189.427C179.449 189.842 180.774 190.297 182.091 190.784C185.498 192.045 188.794 193.529 191.97 195.221C217.571 208.827 235 235.769 235 266.78C235 270.666 234.729 274.497 234.186 278.24C228.632 317.551 194.851 347.78 154 347.78Z" fill="#95D1F9"/>
<path d="M235 266.78C235 270.666 234.729 274.497 234.186 278.24C228.632 317.551 194.851 347.78 154 347.78C131.512 347.78 111.162 338.619 96.494 323.815C89.6469 316.92 84.0447 308.804 80.0306 299.818C75.5058 289.731 73 278.551 73 266.78C73 259.358 73.9975 252.168 75.8729 245.337C76.8545 241.746 78.0755 238.258 79.5279 234.883C82.329 228.339 85.976 222.234 90.3252 216.712C97.7309 207.303 107.18 199.578 118.001 194.207C128.846 188.813 141.064 185.78 154 185.78C162.395 185.78 170.487 187.057 178.1 189.427C179.449 189.842 180.774 190.297 182.091 190.784C185.498 192.045 188.794 193.529 191.97 195.221C217.571 208.827 235 235.769 235 266.78Z" fill="#95D1F9"/>
<path d="M80.0939 243.254L75.8723 245.337C76.8539 241.746 78.0749 238.259 79.5273 234.883L81.5623 238.41C82.5598 240.15 81.8895 242.369 80.0939 243.254Z" fill="#F8F8F8"/>
<path d="M99.7982 313.808L96.4944 323.815C89.6473 316.92 84.0451 308.804 80.031 299.819L83.9813 302.644C84.1329 302.755 84.2925 302.851 84.4681 302.931L98.0346 309.61C99.5827 310.369 100.341 312.164 99.7982 313.808Z" fill="#F8F8F8"/>
<path d="M118.002 194.207L117.563 202.586C117.515 203.584 117.037 204.501 116.262 205.124L97.1735 220.294C95.5775 221.571 93.2233 221.188 92.106 219.464L90.4382 216.895C90.3983 216.831 90.3584 216.775 90.3264 216.711C97.7322 207.302 107.181 199.577 118.002 194.207Z" fill="#F8F8F8"/>
<path d="M120.131 216.137L116.915 216.432C115.758 216.536 114.696 215.802 114.385 214.685C113.922 213.017 115.327 211.421 117.042 211.676L117.96 211.812C118.104 211.836 118.248 211.844 118.391 211.844H119.923C121.527 211.844 122.565 213.528 121.855 214.964C121.519 215.634 120.865 216.081 120.123 216.145L120.131 216.137Z" fill="#F8F8F8"/>
<path d="M234.998 266.78C234.998 270.666 234.727 274.497 234.184 278.239C233.474 278.319 232.803 278.638 232.285 279.141L228.31 283.052C227.951 283.403 227.68 283.818 227.504 284.289L225.19 290.306C225.078 290.601 224.927 290.88 224.735 291.136L222.549 294.088C222.309 294.408 221.966 294.631 221.575 294.703C220.865 294.846 220.155 294.495 219.835 293.849L213.395 280.841C213.268 280.594 213.116 280.362 212.94 280.155L209.014 275.486C208.36 274.704 207.386 274.249 206.365 274.249H204.481C204.17 274.249 203.851 274.209 203.555 274.122L193.444 271.313C192.343 271.001 191.481 272.262 192.16 273.18C192.343 273.435 192.615 273.603 192.926 273.651L196.716 274.289C197.762 274.465 198.672 275.103 199.182 276.029L199.238 276.125C200.02 277.545 199.717 279.325 198.496 280.402L193.389 284.919C193.077 285.198 192.718 285.414 192.319 285.565L188.84 286.882C187.491 287.393 185.975 287.018 185.017 285.948L178.154 278.223C177.835 277.864 177.292 277.824 176.917 278.12C176.598 278.375 176.486 278.822 176.654 279.197L180.572 287.872C181.187 289.228 182.607 290.042 184.092 289.891L189.414 289.34C191.034 289.172 192.447 290.449 192.447 292.077C192.447 292.644 192.271 293.203 191.944 293.665L182.128 307.543C181.785 308.03 181.57 308.589 181.506 309.179L179.678 326.369C179.599 327.127 179.271 327.837 178.745 328.388L164.939 342.912C164.284 343.598 163.375 343.989 162.425 343.989H158.858C157.557 343.989 156.368 343.263 155.769 342.114L149.521 329.968C149.266 329.481 149.138 328.93 149.138 328.38V308.828C149.138 308.469 149.082 308.11 148.97 307.767L147.111 301.997C146.832 301.127 146.225 300.401 145.411 299.986L141.78 298.086C141.317 297.847 140.806 297.719 140.296 297.695L124.535 297.161C123.122 297.105 121.877 296.211 121.398 294.886L118.198 286.172C117.911 285.39 117.911 284.544 118.198 283.77L124.064 267.937C124.359 267.155 124.918 266.508 125.652 266.101L135.18 260.89C135.539 260.691 135.922 260.563 136.329 260.499L144.685 259.246C145.914 259.063 147.151 259.558 147.925 260.539L150.886 264.306C151.54 265.144 152.545 265.631 153.615 265.631H159.64C159.823 265.631 160.007 265.647 160.191 265.678L168.578 267.035C169.152 267.123 169.735 267.075 170.278 266.883L172.76 266.014C174.164 265.527 174.834 263.939 174.22 262.59C173.741 261.521 172.584 260.93 171.435 261.154L168.65 261.704C167.157 262 165.673 261.186 165.122 259.773C164.468 258.097 165.362 256.206 167.078 255.655L170.733 254.466C171.219 254.307 171.73 254.259 172.241 254.322L175.114 254.682C176.957 254.913 178.649 253.652 178.96 251.825L178.992 251.641C179.311 249.806 178.114 248.05 176.295 247.659L170.349 246.406C167.971 245.911 165.825 247.954 166.216 250.356L166.335 251.098C166.575 252.575 165.649 253.979 164.213 254.362C163.383 254.578 162.688 255.152 162.329 255.935L161.459 257.77C161.212 258.305 160.765 258.728 160.222 258.943C159.073 259.406 157.773 258.887 157.246 257.778L153.176 249.127C152.897 248.537 152.242 248.226 151.604 248.385C150.79 248.593 150.359 249.486 150.694 250.253L151.205 251.418C151.269 251.553 151.34 251.689 151.428 251.817L154.102 255.703C154.852 256.788 154.445 258.297 153.248 258.855C152.17 259.35 150.894 258.887 150.399 257.818L149.345 255.536C149.202 255.24 149.026 254.969 148.811 254.722L145.786 251.242C144.733 250.029 142.977 249.702 141.557 250.444L139.593 251.474C138.652 251.968 138.277 253.125 138.74 254.083C139.194 255.017 138.843 256.142 137.934 256.653L132.499 259.749C131.39 260.38 130.025 260.348 128.94 259.669L128.03 259.095C127.152 258.544 126.57 257.626 126.442 256.597L126.242 255.057C126.107 253.963 126.49 252.87 127.288 252.112L127.942 251.489C128.349 251.098 128.836 250.819 129.379 250.66L131.813 249.957C133.281 249.534 134.079 247.946 133.56 246.51C133.161 245.432 133.504 244.227 134.414 243.517L141.604 237.907C142.434 237.253 142.921 236.255 142.921 235.202V233.709C142.921 233.239 143.201 232.816 143.639 232.632C144.086 232.441 144.605 232.544 144.948 232.895L146.401 234.412C146.816 234.843 147.334 235.162 147.909 235.337L150.542 236.119C151.332 236.351 152.178 236.303 152.929 235.968L154.955 235.074C155.929 234.651 156.647 233.797 156.911 232.768L157.222 231.579C157.437 230.717 157.988 229.967 158.746 229.496L160.382 228.482C160.669 228.299 160.885 228.019 160.981 227.7C161.132 227.182 160.965 226.623 160.558 226.272L158.435 224.444C157.892 223.981 157.629 223.271 157.725 222.561C157.932 221.188 156.751 220.007 155.37 220.199C154.413 220.334 153.671 221.116 153.591 222.074L152.929 229.48C152.793 230.948 151.612 232.097 150.135 232.193H150C148.882 232.265 147.837 231.658 147.342 230.661L146.84 229.631C146.449 228.841 145.491 228.506 144.693 228.889C144.015 229.216 143.209 229.033 142.738 228.45L141.628 227.086C140.743 225.992 140.607 224.468 141.285 223.231L149.393 208.484C149.657 208.005 150.024 207.598 150.471 207.287L156.759 202.993C157.844 202.251 159.249 202.187 160.39 202.818L170.86 208.587C171.379 208.875 171.698 209.425 171.698 210.016C171.698 210.718 171.251 211.341 170.581 211.564L167.269 212.657C166.319 212.977 165.912 214.094 166.439 214.94C166.814 215.546 167.564 215.818 168.243 215.594L171.674 214.437C172.831 214.046 173.613 212.961 173.613 211.732C173.613 211.093 173.837 210.471 174.236 209.968L175.098 208.875C175.664 208.156 176.486 207.694 177.396 207.582L185.496 206.592C186.198 206.505 186.853 206.209 187.379 205.738L189.143 204.166C190.181 203.241 190.564 201.788 190.117 200.471L189.558 198.804C189.167 197.646 189.598 196.37 190.603 195.683C191.01 195.404 191.481 195.244 191.968 195.22C217.569 208.827 234.998 235.768 234.998 266.78Z" fill="#F8F8F8"/>
<path d="M131.702 232.768L129.172 228.1C128.781 227.373 129.013 226.464 129.715 226.025C130.545 225.498 131.638 225.857 132.005 226.759L133.37 230.127C133.561 230.597 133.857 231.02 134.232 231.372L135.397 232.449C137.328 234.229 136.658 237.421 134.176 238.275L132.189 238.961C131.67 239.144 131.088 238.929 130.8 238.458C130.569 238.075 130.577 237.588 130.824 237.213L131.542 236.112C132.205 235.106 132.253 233.822 131.686 232.768H131.702Z" fill="#F8F8F8"/>
<path d="M127.801 235.912L129.062 234.883C129.724 234.34 129.828 233.366 129.293 232.696C128.702 231.962 127.601 231.906 126.947 232.584L125.814 233.757C125.247 234.348 125.263 235.282 125.861 235.848C126.396 236.351 127.226 236.383 127.793 235.92L127.801 235.912Z" fill="#F8F8F8"/>
<path d="M226.525 294.91L227.467 293.609C227.691 293.298 227.635 292.859 227.339 292.62C226.988 292.333 226.47 292.428 226.238 292.819L225.432 294.208C225.281 294.471 225.328 294.814 225.56 295.022C225.847 295.277 226.294 295.229 226.517 294.918L226.525 294.91Z" fill="#F8F8F8"/>
<path d="M241.336 256.185H225.308C224.191 256.185 223.447 258.194 223.933 259.953L225.753 266.645C226.342 268.816 227.366 270.556 228.638 271.525L240.24 280.442C240.592 280.711 240.964 280.855 241.357 280.855C242.867 280.855 244.098 278.719 244.098 276.1V260.939C244.098 258.32 242.867 256.185 241.357 256.185" fill="#824F36"/>
<path d="M66.9929 256.185C65.4828 256.185 64.252 258.444 64.252 261.234V277.275C64.252 280.047 65.4828 282.306 66.9929 282.306C67.3756 282.306 67.7582 282.154 68.1099 281.869L79.7148 272.434C80.987 271.409 82.0006 269.568 82.6005 267.271L84.4209 260.19C84.8967 258.33 84.1623 256.204 83.0453 256.204H67.0032" fill="#824F36"/>
<path d="M184.904 127.678L183.993 139.09L183.131 149.905L181.959 164.591L169.353 170.097C160.772 173.848 151.035 173.848 142.454 170.097L129.848 164.591L140.5 112.28L184.904 127.678Z" fill="#824F36"/>
<path d="M183.766 138.937L182.881 150.196C180.487 151.727 177.927 152.771 175.066 153.457C171.275 154.364 167.234 154.427 163.199 153.491C158.657 152.44 154.643 150.248 151.381 147.273C150.341 146.32 151.465 144.595 152.723 145.206C154.465 146.051 156.319 146.714 158.272 147.165C167.902 149.397 177.526 145.949 183.771 138.937H183.766Z" fill="#663C2B"/>
<path d="M148.444 103.821C149.153 100.706 147.18 97.6125 144.034 96.911C140.888 96.2095 137.764 98.1622 137.055 101.277C136.347 104.392 137.737 110.051 140.883 110.752C144.029 111.454 147.736 106.936 148.449 103.821H148.444Z" fill="#824F36"/>
<path d="M199.975 114.95C200.755 111.576 198.585 108.224 195.125 107.464C191.664 106.704 188.227 108.819 187.447 112.194C186.668 115.568 188.198 121.699 191.658 122.459C195.119 123.219 199.196 118.324 199.981 114.95H199.975Z" fill="#824F36"/>
<path d="M159.368 146.498C145.843 143.456 137.139 130.31 139.644 116.718L143.62 95.1633C146.363 80.2866 160.97 70.6691 175.771 73.9972C190.573 77.3253 199.624 92.2613 195.696 106.874L190.005 128.045C186.412 141.395 172.893 149.54 159.368 146.503V146.498Z" fill="#824F36"/>
<path d="M175.653 74.0093C161.169 70.7104 146.777 79.8923 143.509 94.5118L143.28 95.5235C143.269 95.562 143.263 95.6005 143.258 95.6389L142.762 99.0918C142.648 99.889 143.16 100.642 143.939 100.818C144.647 100.978 145.372 100.615 145.671 99.944L150.59 88.8103C152.431 84.6427 156.931 82.3665 161.338 83.3671L184.576 88.6563C188.989 89.6625 192.083 93.6651 191.974 98.2286L191.68 110.418C191.663 111.155 192.159 111.798 192.873 111.957C193.652 112.133 194.431 111.677 194.67 110.907L195.705 107.52C195.705 107.52 195.711 107.487 195.716 107.476L195.727 107.526L195.967 106.454C199.235 91.8342 190.138 77.3082 175.653 74.0093Z" fill="black"/>
<path d="M159.48 108.4C159.001 110.594 158.336 112.31 157.493 112.126C156.651 111.943 156.761 110.105 157.239 107.911C157.718 105.717 158.383 104.001 159.225 104.185C160.067 104.369 159.958 106.206 159.48 108.4Z" fill="black"/>
<path d="M178.999 112.657C178.521 114.851 177.855 116.567 177.013 116.383C176.171 116.2 176.28 114.362 176.759 112.168C177.237 109.974 177.903 108.258 178.745 108.442C179.587 108.625 179.478 110.463 178.999 112.657Z" fill="black"/>
<path d="M162.861 100.08C163.298 99.8723 163.633 99.4764 163.737 98.975C163.908 98.1407 163.378 97.3081 162.534 97.1296C162.37 97.0949 158.806 96.3663 154.945 98.3872C154.174 98.7871 153.882 99.7218 154.28 100.504C154.681 101.27 155.626 101.564 156.397 101.164C159.22 99.678 161.85 100.208 161.883 100.215C162.221 100.283 162.563 100.208 162.861 100.08Z" fill="black"/>
<path d="M177.215 103.21C176.904 102.839 176.765 102.34 176.879 101.841C177.071 101.011 177.9 100.475 178.741 100.664C178.905 100.701 182.449 101.522 185.117 104.967C185.652 105.652 185.528 106.623 184.841 107.168C184.158 107.698 183.176 107.572 182.641 106.887C180.693 104.361 178.082 103.747 178.049 103.74C177.713 103.661 177.433 103.451 177.215 103.21Z" fill="black"/>
<path d="M164.985 126.53C164.492 126.275 163.948 126.425 163.689 126.843C163.416 127.279 163.555 127.866 163.993 128.134C164.196 128.258 164.407 128.378 164.618 128.487C168.674 130.581 174.203 129.669 177.222 126.417C177.391 126.231 177.478 125.992 177.469 125.738C177.46 125.485 177.355 125.255 177.167 125.079C177.107 125.018 177.038 124.976 176.957 124.934C176.578 124.739 176.117 124.822 175.828 125.134C173.362 127.797 168.821 128.534 165.473 126.806C165.306 126.719 165.133 126.631 164.978 126.52L164.973 126.53H164.985Z" fill="black"/>
</g>
</g>
</g>
<defs>
<clipPath id="clip0_3_2203">
<rect width="312" height="312" fill="white" transform="translate(0 0.780029)"/>
</clipPath>
<clipPath id="clip1_3_2203">
<rect width="312" height="312" fill="white" transform="translate(0 0.780029)"/>
</clipPath>
</defs>
</svg>
