<svg width="312" height="313" viewBox="0 0 312 313" fill="none" xmlns="http://www.w3.org/2000/svg">
<g clip-path="url(#clip0_3_2035)">
<g clip-path="url(#clip1_3_2035)">
<g clip-path="url(#clip2_3_2035)">
<mask id="mask0_3_2035" style="mask-type:luminance" maskUnits="userSpaceOnUse" x="0" y="0" width="312" height="313">
<path d="M300 0.780029H12C5.37258 0.780029 0 6.15261 0 12.78V300.78C0 307.407 5.37258 312.78 12 312.78H300C306.627 312.78 312 307.407 312 300.78V12.78C312 6.15261 306.627 0.780029 300 0.780029Z" fill="white"/>
</mask>
<g mask="url(#mask0_3_2035)">
<path d="M300 0.780029H12C5.37258 0.780029 0 6.15261 0 12.78V300.78C0 307.407 5.37258 312.78 12 312.78H300C306.627 312.78 312 307.407 312 300.78V12.78C312 6.15261 306.627 0.780029 300 0.780029Z" fill="#F8F8F8"/>
<path d="M110.048 229.957H205.68L207.503 159.567L96.6328 197.076L110.048 229.957Z" fill="#DCC6FF"/>
<path d="M240.482 301.903L255.311 232.763C259.448 213.479 256.873 193.361 248.011 175.741L234.266 148.416L204.694 160.723C200.072 162.646 195.902 165.511 192.448 169.134C188.994 172.757 186.332 177.06 184.631 181.768L144.112 293.863C140.662 303.396 147.727 313.463 157.865 313.463H226.187C229.534 313.462 232.779 312.314 235.382 310.211C237.984 308.107 239.787 305.175 240.49 301.903" fill="#ED9696"/>
<path d="M240.482 301.903L255.311 232.763C259.448 213.479 256.873 193.361 248.011 175.741L234.266 148.416L204.694 160.723C200.072 162.646 195.902 165.511 192.448 169.134C188.994 172.757 186.332 177.06 184.631 181.768L144.112 293.863C140.662 303.396 147.727 313.463 157.865 313.463H226.187C229.534 313.462 232.779 312.314 235.382 310.211C237.984 308.107 239.787 305.175 240.49 301.903" fill="#ED9696"/>
<path d="M240.482 301.903L255.311 232.763C259.448 213.479 256.873 193.361 248.011 175.741L234.266 148.416L204.694 160.723C200.072 162.646 195.902 165.511 192.448 169.134C188.994 172.757 186.332 177.06 184.631 181.768L144.112 293.863C140.662 303.396 147.727 313.463 157.865 313.463H226.187C229.534 313.462 232.779 312.314 235.382 310.211C237.984 308.107 239.787 305.175 240.49 301.903" fill="#DCC6FF"/>
<path d="M234.633 150.991L223.299 146.071L210.752 149.731L204.682 170.417C204.171 172.468 206.529 174.016 208.21 172.735L234.633 152.971V150.991Z" fill="#F4C9B8"/>
<path d="M167.214 229.957L172.942 214.114C173.343 213.014 171.866 212.228 171.174 213.163L158.703 229.957H167.221H167.214Z" fill="#306DC6"/>
<path d="M154.234 265.865L145.877 288.983L169.776 302.826C184.686 311.465 202.888 306.942 212.496 294.179H212.504L212.596 294.045C213.062 293.42 213.507 292.775 213.93 292.112L248.73 228.557L231.044 164.807L184.706 273.991L154.234 265.865Z" fill="#BCA4EA"/>
<path d="M136.363 178.926L131.585 149.616C128.908 133.192 113.318 122.014 96.836 124.701C80.355 127.388 69.122 142.938 71.8 159.362L76.577 188.672C71.8087 193.034 67.8403 198.197 64.851 203.927L57.955 161.619C54.037 137.586 70.471 114.836 94.588 110.904C118.704 106.973 141.515 123.326 145.433 147.359L152.33 189.667C147.675 185.184 142.272 181.549 136.366 178.925L136.363 178.926Z" fill="#F59A11"/>
<path d="M52.7622 235.88C58.1972 269.22 89.7252 291.826 123.18 286.373C156.635 280.919 179.355 249.47 173.92 216.13C168.485 182.789 136.957 160.183 103.499 165.637C70.0422 171.091 47.3282 202.539 52.7622 235.88Z" fill="#F59A11"/>
<path d="M98.4352 218.862C97.2182 211.393 102.225 204.36 109.619 203.155C117.012 201.95 123.994 207.028 125.212 214.497C125.595 216.812 125.378 219.187 124.582 221.394C123.786 223.601 122.437 225.568 120.664 227.105L123.308 243.323C123.938 247.186 121.323 250.859 117.499 251.482C113.676 252.105 110.03 249.453 109.4 245.59L106.757 229.372C104.588 228.477 102.685 227.041 101.229 225.201C99.7729 223.36 98.8131 221.178 98.4412 218.861L98.4352 218.862Z" fill="#2E53BC"/>
<path d="M250.76 228.803L230.471 155.722L193.556 242.704L175.098 286.194L211.931 285.095L250.76 228.803Z" fill="#DCC6FF"/>
<path d="M209.073 151.095L234.872 152.896L241.671 111.271C244.196 95.813 233.71 81.233 218.253 78.708C202.795 76.183 188.215 86.669 185.69 102.127L183.061 118.22C180.371 134.693 192.423 149.92 209.074 151.087M185.239 104.796L181.243 109.86C180.893 110.304 180.687 110.844 180.65 111.408C180.613 111.972 180.748 112.534 181.037 113.02L183.289 116.788L185.247 104.797L185.239 104.796Z" fill="#F4C9B8"/>
<path d="M193.88 94.7241C194.306 94.7941 194.765 94.6691 195.105 94.3421C195.239 94.2131 195.347 94.0588 195.422 93.8881C195.497 93.7173 195.537 93.5335 195.541 93.3471C195.545 93.1608 195.512 92.9754 195.444 92.8018C195.376 92.6282 195.275 92.4696 195.146 92.3351C195.051 92.2321 192.741 89.8481 188.811 89.3891C188.625 89.3664 188.437 89.3807 188.256 89.4312C188.076 89.4817 187.908 89.5674 187.761 89.6833C187.614 89.7992 187.491 89.9431 187.4 90.1067C187.309 90.2702 187.251 90.4502 187.23 90.6361C187.207 90.8218 187.222 91.0101 187.272 91.1902C187.323 91.3703 187.408 91.5386 187.524 91.6854C187.64 91.8323 187.784 91.9548 187.947 92.0459C188.11 92.137 188.29 92.1948 188.476 92.2161C191.352 92.5511 193.075 94.2901 193.088 94.3081C193.301 94.527 193.579 94.6702 193.881 94.7161M187.266 106.989C186.816 109.455 186.689 111.497 187.408 111.63C188.127 111.764 188.733 109.808 189.183 107.342C189.634 104.875 189.76 102.834 189.042 102.7C188.323 102.567 187.717 104.522 187.266 106.989ZM188.94 128.482C188.412 128.396 187.957 128.696 187.842 129.155C187.786 129.389 187.825 129.634 187.95 129.839C188.074 130.045 188.274 130.192 188.507 130.251C188.73 130.303 188.961 130.349 189.186 130.386C193.529 131.095 198.331 128.607 200.127 124.728C200.226 124.508 200.236 124.258 200.154 124.031C200.069 123.804 199.899 123.619 199.68 123.516C199.46 123.416 199.209 123.406 198.982 123.49C198.755 123.574 198.571 123.744 198.469 123.963C197.002 127.14 193.055 129.17 189.472 128.585C189.294 128.556 189.108 128.526 188.933 128.473L188.94 128.482Z" fill="black"/>
<path d="M243.418 114.151L237.259 139.488C234.182 138.948 232.982 138.023 230.729 136.018C228.435 133.98 226.755 131.342 225.88 128.401L221.561 113.977L198.427 80.8891C198.571 80.0713 198.875 79.2899 199.321 78.5897C199.768 77.8894 200.348 77.284 201.028 76.8079C201.709 76.3319 202.476 75.9946 203.287 75.8153C204.098 75.636 204.936 75.6183 205.754 75.7631L217.718 77.8801C217.803 77.8841 217.88 77.8991 217.966 77.9121L218.081 77.9301C218.206 77.9551 218.332 77.9801 218.467 78.0041C218.806 78.0771 219.161 78.1381 219.5 78.2111C219.82 78.2871 220.132 78.3651 220.454 78.4501C220.582 78.4841 220.707 78.5101 220.834 78.5441C221.235 78.6531 221.609 78.7671 221.993 78.8881C222.031 78.8911 222.062 78.9041 222.101 78.9161C236.82 83.5761 246.171 98.5251 243.407 114.143" fill="#824F36"/>
<path d="M229.883 112.842C228.344 109.726 224.561 108.449 221.445 109.987C219.948 110.729 218.807 112.034 218.272 113.616C217.737 115.198 217.852 116.927 218.591 118.425C220.129 121.541 223.912 122.818 227.028 121.28C230.144 119.741 231.421 115.958 229.883 112.842ZM50.7128 238.314C55.6028 235.18 59.2378 231.191 61.7498 227.759C64.3448 224.214 63.0098 218.973 59.1928 217.556L48.8258 213.716L45.0888 233.954C44.4288 237.545 47.8388 240.168 50.7128 238.314Z" fill="#F4C9B8"/>
<path d="M236.53 106.961L256.465 100.672L257.139 100.458C259.025 99.92 261.014 99.8541 262.931 100.266C269.434 101.652 273.591 108.051 272.205 114.554C270.82 121.058 264.427 125.216 257.917 123.829C256.06 123.438 254.324 122.61 252.851 121.414C252.803 121.376 252.755 121.332 252.7 121.286L252.174 120.822L236.523 106.96L236.53 106.961Z" fill="#824F36"/>
<path d="M242.074 103.568L241.747 114.304C241.733 114.771 241.884 115.228 242.172 115.595C242.461 115.963 242.869 116.218 243.326 116.315C243.581 116.37 243.845 116.373 244.102 116.326C244.359 116.279 244.604 116.181 244.823 116.039C245.042 115.897 245.231 115.713 245.378 115.497C245.526 115.282 245.63 115.04 245.684 114.784L248.074 103.543C248.144 103.213 248.13 102.871 248.032 102.548C247.934 102.226 247.756 101.933 247.514 101.698C247.272 101.463 246.974 101.294 246.649 101.205C246.323 101.117 245.981 101.113 245.653 101.193L243.589 101.698C243.166 101.803 242.789 102.043 242.515 102.382C242.241 102.721 242.086 103.14 242.073 103.576" fill="black"/>
<path d="M117.561 266.746L139.022 281.195L144.582 278.335L150.143 274.76L91.127 241.933L96.98 256.34C97.4031 257.382 98.2191 258.216 99.252 258.662L115.876 265.827C116.465 266.08 117.029 266.388 117.561 266.746Z" fill="#2E53BC"/>
<path d="M98.7699 257.119L118.925 264.171L124.273 248.696L107.214 235.102C106.523 234.552 105.572 235.341 105.987 236.121L110.361 244.368L93.4749 239.742C91.8619 239.3 90.4329 240.883 91.0369 242.443L95.4979 253.954C95.7817 254.687 96.2212 255.349 96.7859 255.896C97.3506 256.442 98.0282 256.86 98.7699 257.119Z" fill="#F4C9B8"/>
<path d="M124.717 248.529L217.403 273.779C211.828 294.687 187.92 304.587 169.2 293.74L118.281 263.877L122.737 250.014L124.717 248.529Z" fill="#DCC6FF"/>
</g>
</g>
</g>
</g>
<defs>
<clipPath id="clip0_3_2035">
<rect width="312" height="312" fill="white" transform="translate(0 0.780029)"/>
</clipPath>
<clipPath id="clip1_3_2035">
<rect width="312" height="312" fill="white" transform="translate(0 0.780029)"/>
</clipPath>
<clipPath id="clip2_3_2035">
<rect width="312" height="312" fill="white" transform="translate(0 0.780029)"/>
</clipPath>
</defs>
</svg>
