<svg width="17" height="16" viewBox="0 0 17 16" fill="none" xmlns="http://www.w3.org/2000/svg">
<path d="M15.9347 4.33602C15.8491 4.01324 15.6801 3.71863 15.4447 3.4817C15.2094 3.24477 14.9159 3.07384 14.5937 2.98602C13.4107 2.66602 8.66673 2.66602 8.66673 2.66602C8.66673 2.66602 3.92273 2.66602 2.73973 2.98602C2.41753 3.07384 2.12406 3.24477 1.88871 3.4817C1.65336 3.71863 1.48439 4.01324 1.39873 4.33602C1.08173 5.52602 1.08173 8.01002 1.08173 8.01002C1.08173 8.01002 1.08173 10.494 1.39873 11.685C1.48516 12.005 1.65476 12.2965 1.89029 12.5297C2.12582 12.7629 2.41889 12.9297 2.73973 13.013C3.92273 13.333 8.66673 13.333 8.66673 13.333C8.66673 13.333 13.4107 13.333 14.5937 13.013C14.9146 12.9297 15.2076 12.7629 15.4432 12.5297C15.6787 12.2965 15.8483 12.005 15.9347 11.685C16.2517 10.495 16.2517 8.01002 16.2517 8.01002C16.2517 8.01002 16.2517 5.52602 15.9347 4.33602ZM7.11473 10.266V5.75602L11.0797 8.01102L7.11473 10.266Z" fill="#44474E"/>
</svg>
